<?xml version="1.0" encoding="utf-8"?>
<!-- Generator: Adobe Illustrator 25.1.0, SVG Export Plug-In . SVG Version: 6.00 Build 0)  -->
<svg version="1.1" id="Layer_1" xmlns="http://www.w3.org/2000/svg" xmlns:xlink="http://www.w3.org/1999/xlink" x="0px" y="0px"
	 viewBox="0 0 417.1504 365.185" enable-background="new 0 0 417.1504 365.185" xml:space="preserve">
<g>
	<circle fill="#AFB0CC" cx="208.5752" cy="165" r="165"/>
	<path fill="#FFFFFF" d="M191.9453,119.2432v17.9795c0,1.2407,1.0098,2.25,2.25,2.25h17.9795c1.2402,0,2.25-1.0093,2.25-2.25
		v-17.9795c0-1.2407-1.0098-2.25-2.25-2.25h-17.9795C192.9551,116.9932,191.9453,118.0024,191.9453,119.2432z"/>
	<path fill="#FFFFFF" d="M351.4922,79.3306h19.0791c1.2402,0,2.25-1.0093,2.25-2.25v-8.3311c0-1.2407-1.0098-2.25-2.25-2.25
		h-19.0791c-1.2402,0-2.25,1.0093-2.25,2.25v8.3311C349.2422,78.3213,350.252,79.3306,351.4922,79.3306z"/>
	<path fill="#FFFFFF" d="M323.7725,79.3306h19.0801c1.2402,0,2.25-1.0093,2.25-2.25v-8.3311c0-1.2407-1.0098-2.25-2.25-2.25
		h-19.0801c-1.2402,0-2.25,1.0093-2.25,2.25v8.3311C321.5225,78.3213,322.5322,79.3306,323.7725,79.3306z"/>
	<path fill="#FFFFFF" d="M398.291,116.9932h-17.9795c-1.2402,0-2.25,1.0093-2.25,2.25v17.9795c0,1.2407,1.0098,2.25,2.25,2.25
		h17.9795c1.2402,0,2.25-1.0093,2.25-2.25v-17.9795C400.541,118.0024,399.5312,116.9932,398.291,116.9932z"/>
	<path fill="#FFFFFF" d="M398.7217,89.334h-34.6494c-1.0029,0-1.8193,0.8159-1.8193,1.8193v18.8408
		c0,1.0034,0.8164,1.8193,1.8193,1.8193h34.6494c1.0029,0,1.8193-0.8159,1.8193-1.8193V91.1533
		C400.541,90.1499,399.7246,89.334,398.7217,89.334z"/>
	<path fill="#FFFFFF" d="M398.7217,144.6519h-39.918c-1.0029,0-1.8193,0.8159-1.8193,1.8193v18.8408
		c0,1.0034,0.8164,1.8193,1.8193,1.8193h39.918c1.0029,0,1.8193-0.8159,1.8193-1.8193v-18.8408
		C400.541,145.4678,399.7246,144.6519,398.7217,144.6519z"/>
	<path fill="#FFFFFF" d="M296.0537,79.3306h19.0791c1.2402,0,2.25-1.0093,2.25-2.25v-8.3311c0-1.2407-1.0098-2.25-2.25-2.25
		h-19.0791c-1.2402,0-2.25,1.0093-2.25,2.25v8.3311C293.8037,78.3213,294.8135,79.3306,296.0537,79.3306z"/>
	<path fill="#FFFFFF" d="M187.8369,137.2227v-17.9795c0-1.2407-1.0098-2.25-2.25-2.25h-17.9795c-1.2402,0-2.25,1.0093-2.25,2.25
		v17.9795c0,1.2407,1.0098,2.25,2.25,2.25h17.9795C186.8271,139.4727,187.8369,138.4634,187.8369,137.2227z"/>
	<path fill="#FFFFFF" d="M129.7373,79.3306h19.0791c1.2402,0,2.25-1.0093,2.25-2.25v-8.3311c0-1.2407-1.0098-2.25-2.25-2.25
		h-19.0791c-1.2402,0-2.25,1.0093-2.25,2.25v8.3311C127.4873,78.3213,128.4971,79.3306,129.7373,79.3306z"/>
	<path fill="#FFFFFF" d="M157.4561,79.3306h19.0801c1.2402,0,2.25-1.0093,2.25-2.25v-8.3311c0-1.2407-1.0098-2.25-2.25-2.25
		h-19.0801c-1.2402,0-2.25,1.0093-2.25,2.25v8.3311C155.2061,78.3213,156.2158,79.3306,157.4561,79.3306z"/>
	<path fill="#FFFFFF" d="M218.5332,119.2432v17.9795c0,1.2407,1.0098,2.25,2.25,2.25h17.9795c1.2402,0,2.25-1.0093,2.25-2.25
		v-17.9795c0-1.2407-1.0098-2.25-2.25-2.25h-17.9795C219.543,116.9932,218.5332,118.0024,218.5332,119.2432z"/>
	<path fill="#FFFFFF" d="M373.9531,137.2227v-17.9795c0-1.2407-1.0098-2.25-2.25-2.25h-17.9795c-1.2402,0-2.25,1.0093-2.25,2.25
		v17.9795c0,1.2407,1.0098,2.25,2.25,2.25h17.9795C372.9434,139.4727,373.9531,138.4634,373.9531,137.2227z"/>
	<path fill="#FFFFFF" d="M185.1758,79.3306h19.0791c1.2402,0,2.25-1.0093,2.25-2.25v-8.3311c0-1.2407-1.0098-2.25-2.25-2.25
		h-19.0791c-1.2402,0-2.25,1.0093-2.25,2.25v8.3311C182.9258,78.3213,183.9355,79.3306,185.1758,79.3306z"/>
	<path fill="#FFFFFF" d="M268.334,79.3306h19.0791c1.2402,0,2.25-1.0093,2.25-2.25v-8.3311c0-1.2407-1.0098-2.25-2.25-2.25H268.334
		c-1.2402,0-2.25,1.0093-2.25,2.25v8.3311C266.084,78.3213,267.0938,79.3306,268.334,79.3306z"/>
	<path fill="#FFFFFF" d="M240.6143,79.3306h19.0801c1.2402,0,2.25-1.0093,2.25-2.25v-8.3311c0-1.2407-1.0098-2.25-2.25-2.25
		h-19.0801c-1.2402,0-2.25,1.0093-2.25,2.25v8.3311C238.3643,78.3213,239.374,79.3306,240.6143,79.3306z"/>
	<path fill="#FFFFFF" d="M212.8955,79.3306h19.0791c1.2402,0,2.25-1.0093,2.25-2.25v-8.3311c0-1.2407-1.0098-2.25-2.25-2.25
		h-19.0791c-1.2402,0-2.25,1.0093-2.25,2.25v8.3311C210.6455,78.3213,211.6553,79.3306,212.8955,79.3306z"/>
	<path fill="#FFFFFF" d="M379.2119,79.3306h19.0791c1.2402,0,2.25-1.0093,2.25-2.25v-8.3311c0-1.2407-1.0098-2.25-2.25-2.25
		h-19.0791c-1.2402,0-2.25,1.0093-2.25,2.25v8.3311C376.9619,78.3213,377.9717,79.3306,379.2119,79.3306z"/>
	<path fill="#FFFFFF" d="M204.2705,172.311H186.292c-1.2402,0-2.25,1.0093-2.25,2.25v17.979c0,1.2407,1.0098,2.25,2.25,2.25h17.9785
		c1.2402,0,2.25-1.0093,2.25-2.25v-17.979C206.5205,173.3203,205.5107,172.311,204.2705,172.311z"/>
	<path fill="#FFFFFF" d="M230.8594,172.311h-17.9795c-1.2402,0-2.25,1.0093-2.25,2.25v17.979c0,1.2407,1.0098,2.25,2.25,2.25
		h17.9795c1.2402,0,2.25-1.0093,2.25-2.25v-17.979C233.1094,173.3203,232.0996,172.311,230.8594,172.311z"/>
	<path fill="#FFFFFF" d="M222.9551,89.334h-17.9795c-1.2402,0-2.25,1.0093-2.25,2.25v17.9795c0,1.2407,1.0098,2.25,2.25,2.25
		h17.9795c1.2402,0,2.25-1.0093,2.25-2.25V91.584C225.2051,90.3433,224.1953,89.334,222.9551,89.334z"/>
	<path fill="#FFFFFF" d="M244.1533,144.6519h-17.9795c-1.2402,0-2.25,1.0093-2.25,2.25v17.9795c0,1.2407,1.0098,2.25,2.25,2.25
		h17.9795c1.2402,0,2.25-1.0093,2.25-2.25v-17.9795C246.4033,145.6611,245.3936,144.6519,244.1533,144.6519z"/>
	<path fill="#FFFFFF" d="M265.3506,116.9932h-17.9785c-1.2402,0-2.25,1.0093-2.25,2.25v17.9795c0,1.2407,1.0098,2.25,2.25,2.25
		h17.9785c1.2402,0,2.25-1.0093,2.25-2.25v-17.9795C267.6006,118.0024,266.5908,116.9932,265.3506,116.9932z"/>
	<path fill="#FFFFFF" d="M196.3672,89.334h-17.9795c-1.2402,0-2.25,1.0093-2.25,2.25v17.9795c0,1.2407,1.0098,2.25,2.25,2.25
		h17.9795c1.2402,0,2.25-1.0093,2.25-2.25V91.584C198.6172,90.3433,197.6074,89.334,196.3672,89.334z"/>
	<path fill="#FFFFFF" d="M193.2266,164.8813v-17.9795c0-1.2407-1.0098-2.25-2.25-2.25h-17.9795c-1.2402,0-2.25,1.0093-2.25,2.25
		v17.9795c0,1.2407,1.0098,2.25,2.25,2.25h17.9795C192.2168,167.1313,193.2266,166.1221,193.2266,164.8813z"/>
	<path fill="#FFFFFF" d="M125.2109,111.8135h17.9795c1.2402,0,2.25-1.0093,2.25-2.25V91.584c0-1.2407-1.0098-2.25-2.25-2.25
		h-17.9795c-1.2402,0-2.25,1.0093-2.25,2.25v17.9795C122.9609,110.8042,123.9707,111.8135,125.2109,111.8135z"/>
	<path fill="#FFFFFF" d="M291.9395,116.9932H273.96c-1.2402,0-2.25,1.0093-2.25,2.25v17.9795c0,1.2407,1.0098,2.25,2.25,2.25
		h17.9795c1.2402,0,2.25-1.0093,2.25-2.25v-17.9795C294.1895,118.0024,293.1797,116.9932,291.9395,116.9932z"/>
	<path fill="#FFFFFF" d="M345.1152,116.9932h-17.9795c-1.2402,0-2.25,1.0093-2.25,2.25v17.9795c0,1.2407,1.0098,2.25,2.25,2.25
		h17.9795c1.2402,0,2.25-1.0093,2.25-2.25v-17.9795C347.3652,118.0024,346.3555,116.9932,345.1152,116.9932z"/>
	<path fill="#FFFFFF" d="M318.5273,116.9932h-17.9795c-1.2402,0-2.25,1.0093-2.25,2.25v17.9795c0,1.2407,1.0098,2.25,2.25,2.25
		h17.9795c1.2402,0,2.25-1.0093,2.25-2.25v-17.9795C320.7773,118.0024,319.7676,116.9932,318.5273,116.9932z"/>
	<path fill="#FFFFFF" d="M276.1309,111.8135c1.2402,0,2.25-1.0093,2.25-2.25V91.584c0-1.2407-1.0098-2.25-2.25-2.25h-17.9795
		c-1.2402,0-2.25,1.0093-2.25,2.25v17.9795c0,1.2407,1.0098,2.25,2.25,2.25H276.1309z"/>
	<path fill="#FFFFFF" d="M169.7793,111.8135c1.2402,0,2.25-1.0093,2.25-2.25V91.584c0-1.2407-1.0098-2.25-2.25-2.25h-17.9795
		c-1.2402,0-2.25,1.0093-2.25,2.25v17.9795c0,1.2407,1.0098,2.25,2.25,2.25H169.7793z"/>
	<path fill="#FFFFFF" d="M329.3066,111.8135c1.2402,0,2.25-1.0093,2.25-2.25V91.584c0-1.2407-1.0098-2.25-2.25-2.25h-17.9795
		c-1.2402,0-2.25,1.0093-2.25,2.25v17.9795c0,1.2407,1.0098,2.25,2.25,2.25H329.3066z"/>
	<path fill="#FFFFFF" d="M217.5654,144.6519h-17.9795c-1.2402,0-2.25,1.0093-2.25,2.25v17.9795c0,1.2407,1.0098,2.25,2.25,2.25
		h17.9795c1.2402,0,2.25-1.0093,2.25-2.25v-17.9795C219.8154,145.6611,218.8057,144.6519,217.5654,144.6519z"/>
	<path fill="#FFFFFF" d="M302.7188,111.8135c1.2402,0,2.25-1.0093,2.25-2.25V91.584c0-1.2407-1.0098-2.25-2.25-2.25h-17.9795
		c-1.2402,0-2.25,1.0093-2.25,2.25v17.9795c0,1.2407,1.0098,2.25,2.25,2.25H302.7188z"/>
	<path fill="#FFFFFF" d="M355.8945,111.8135c1.2402,0,2.25-1.0093,2.25-2.25V91.584c0-1.2407-1.0098-2.25-2.25-2.25H337.915
		c-1.2402,0-2.25,1.0093-2.25,2.25v17.9795c0,1.2407,1.0098,2.25,2.25,2.25H355.8945z"/>
	<path fill="#FFFFFF" d="M249.543,111.8135c1.2402,0,2.25-1.0093,2.25-2.25V91.584c0-1.2407-1.0098-2.25-2.25-2.25h-17.9795
		c-1.2402,0-2.25,1.0093-2.25,2.25v17.9795c0,1.2407,1.0098,2.25,2.25,2.25H249.543z"/>
	<path fill="#FFFFFF" d="M296.0322,199.4097c0.3926,0.6841,0.7236,1.2622,0.9727,1.6885c0.1462,0.2507,0.4116,0.6931,0.7666,1.2789
		v-0.028c0-1.7706,1.2371-3.2496,2.8896-3.6408c-0.4448-0.9188-0.8563-1.7393-1.2119-2.4183h-5.2168
		C294.8379,197.3306,295.4419,198.3799,296.0322,199.4097z"/>
	<path fill="#FFFFFF" d="M286.2852,184.3759v-6.4045c-1.2502-1.3035-2.509-2.5784-3.6377-3.6886
		c-1.5745-0.4802-3.1177-1.163-4.5723-1.9717h-0.2227c0.1559,0.2305,0.304,0.4492,0.4717,0.6973
		C280.8898,176.8031,284.2556,181.7796,286.2852,184.3759z"/>
	<path fill="#FFFFFF" d="M270.7412,144.6519h-17.9795c-1.2402,0-2.25,1.0093-2.25,2.25v17.9795
		c0,1.0078,0.6707,1.8527,1.5852,2.1383c-0.2253-1.8627-0.1569-3.369,0.3005-4.3385c0.3064-0.6495,0.7239-1.1935,1.2072-1.6639
		c1.1393-1.6395,3.767-2.8195,6.243-2.7316c0.8218,0.0256,1.7188,0.1627,2.6313,0.3961c0.7124,0.0637,1.3503,0.1672,1.855,0.2934
		c1.3291,0.3323,3.1277,1.6516,4.8542,3.166c-0.0129-0.144-0.0378-0.2906-0.0378-0.4316c0-1.4772,0.8198-2.7657,1.9211-3.8359
		c0.5153-0.626,1.2056-1.261,1.9197-1.8121v-9.1596C272.9912,145.6611,271.9814,144.6519,270.7412,144.6519z"/>
	<path fill="#FFFFFF" d="M287.7852,186.1784c0.3431,0.4284,0.7141,0.9299,1.1084,1.4938v-6.9175
		c-0.3613-0.3958-0.7303-0.7959-1.1084-1.2004V186.1784z"/>
	<path fill="#FFFFFF" d="M45.4473,111.8135h17.9795c1.2402,0,2.25-1.0093,2.25-2.25V91.584c0-1.2407-1.0098-2.25-2.25-2.25H45.4473
		c-1.2402,0-2.25,1.0093-2.25,2.25v17.9795C43.1973,110.8042,44.207,111.8135,45.4473,111.8135z"/>
	<path fill="#FFFFFF" d="M293.4365,186.459c-0.3252-0.7648-1.4973-2.2578-3.043-4.0272v7.4978
		c0.9365,1.4674,1.9415,3.1301,2.9604,4.8604h5.2585c-0.0586-0.0938-0.1133-0.1785-0.1604-0.2451
		C297.0928,193.2886,294.7197,189.48,293.4365,186.459z"/>
	<path fill="#FFFFFF" d="M293.51,155.3217c1.4194-1.174,3.8918-2.8515,6.0691-2.8068v-5.613c0-1.2407-1.0098-2.25-2.25-2.25
		h-17.9795c-1.2402,0-2.25,1.0093-2.25,2.25v7.2316c0.3641-0.0864,0.7419-0.1658,1.1431-0.2219
		c1.5059-0.428,2.9617-0.5399,3.9048,0.1344c0.7891,0.3418,3.9297,0.4482,5.4502,0.4995c0.7734,0.0264,1.4951,0.0513,2.0898,0.0884
		C290.7218,154.6985,292.0986,154.9392,293.51,155.3217z"/>
	<path fill="#FFFFFF" d="M269.8789,210.509v10.2508c0,1.8301-1.4893,3.3188-3.3193,3.3188h-5.1462
		c-0.1981,3.5721-0.6904,6.4846-0.9993,8.0327c0.9585,0.9987,2.0486,2.4904,3.1426,4.1929h17.0813
		c-1.25-3.2549-3.01-7.7228-4.8541-12.2256h-0.8502c-2.0674,0-3.75-1.6821-3.75-3.75v-7.0255
		C270.7242,212.2891,270.2867,211.3504,269.8789,210.509z"/>
	<path fill="#FFFFFF" d="M274.9336,222.5786h0.2333c-0.8344-2.0192-1.6742-4.0132-2.4833-5.8823v3.6323
		C272.6836,221.5693,273.6934,222.5786,274.9336,222.5786z"/>
	<path fill="#FFFFFF" d="M325.1697,159.2659c0.2456,0.1071,0.5765,0.2181,0.9973,0.3334v-12.6974c0-1.2407-1.0098-2.25-2.25-2.25
		h-17.9795c-1.2402,0-2.25,1.0093-2.25,2.25v6.2609c1.0652,0.1625,2.5732,0.3437,3.8848,0.5008
		c3.9707,0.4756,8.9121,1.0679,11.5986,2.0381C320.6312,156.2289,322.8066,157.59,325.1697,159.2659z"/>
	<path fill="#FFFFFF" d="M18.8594,79.3306h19.0791c1.2402,0,2.25-1.0093,2.25-2.25v-8.3311c0-1.2407-1.0098-2.25-2.25-2.25H18.8594
		c-1.2402,0-2.25,1.0093-2.25,2.25v8.3311C16.6094,78.3213,17.6191,79.3306,18.8594,79.3306z"/>
	<path fill="#FFFFFF" d="M18.8594,222.5786h17.9795c1.2402,0,2.25-1.0093,2.25-2.25v-17.9795c0-1.2407-1.0098-2.25-2.25-2.25
		H18.8594c-1.2402,0-2.25,1.0093-2.25,2.25v17.9795C16.6094,221.5693,17.6191,222.5786,18.8594,222.5786z"/>
	<path fill="#FFFFFF" d="M13.5596,236.3042h23.2959c0.2058-4.1122,0.7061-7.0134,1.5029-8.7739
		c0.9541-2.5732,2.1116-5.7094,3.3389-9.0541v-16.127c0-2.0679,1.6826-3.75,3.75-3.75h3.4318
		c0.2865-0.8144,0.5569-1.5876,0.8068-2.3091H18.4287c-1.8301,0-3.3193-1.4888-3.3193-3.3188v-18.8413
		c0-1.8301,1.4893-3.3188,3.3193-3.3188H65.573c0.4897-0.5082,0.9486-0.9878,1.3499-1.4077
		c0.2603-0.2724,0.5068-0.5303,0.7385-0.772h-1.0159c-2.0674,0-3.75-1.6821-3.75-3.75v-17.9795c0-2.0679,1.6826-3.75,3.75-3.75
		H84.625c2.0674,0,3.75,1.6821,3.75,3.75v13.2659c0.3953-0.0729,0.7697-0.1447,1.1084-0.215v-13.0509
		c0-2.0679,1.6826-3.75,3.75-3.75h17.9795c2.0674,0,3.75,1.6821,3.75,3.75v5.9261c0.3433-0.1244,0.714-0.1857,1.1084-0.1859v-5.7402
		c0-2.0679,1.6826-3.75,3.75-3.75h17.9795c2.0674,0,3.75,1.6821,3.75,3.75v7.6444c0.0138,0.0042,0.0293,0.0087,0.043,0.0128
		c0.2961,0.0896,0.6637,0.2609,1.0654,0.4896v-8.1468c0-2.0679,1.6826-3.75,3.75-3.75h17.9795c2.0674,0,3.75,1.6821,3.75,3.75
		v17.9795c0,1.9238-1.4617,3.4952-3.3291,3.7075c-0.1304,0.7064-0.2922,1.4489-0.4834,2.2222h13.3564
		c2.0674,0,3.75,1.6821,3.75,3.75v17.979c0,2.0679-1.6826,3.75-3.75,3.75h-1.5251c0.3376,0.2126,0.6246,0.5038,0.8142,0.8677
		c0.2075,0.3981,0.3811,0.8942,0.5337,1.4414h62.1396c0.1526-0.5472,0.3262-1.0433,0.5337-1.4414
		c0.1896-0.3639,0.4766-0.655,0.8142-0.8677h-1.5251c-2.0674,0-3.75-1.6821-3.75-3.75v-17.979c0-2.0679,1.6826-3.75,3.75-3.75
		h13.3564c-0.1912-0.7734-0.353-1.5158-0.4834-2.2222c-1.8674-0.2123-3.3291-1.7837-3.3291-3.7075v-17.9795
		c0-2.0679,1.6826-3.75,3.75-3.75h17.9795c2.0674,0,3.75,1.6821,3.75,3.75v8.1471c0.4021-0.2288,0.7699-0.4002,1.0664-0.4899
		c0.0134-0.004,0.0286-0.0084,0.042-0.0125v-7.6447c0-2.0679,1.6826-3.75,3.75-3.75h17.9795c2.0674,0,3.75,1.6821,3.75,3.75v5.7401
		c0.3943,0.0004,0.7651,0.0618,1.1084,0.1862v-5.9262c0-2.0679,1.6826-3.75,3.75-3.75h17.9795c2.0674,0,3.75,1.6821,3.75,3.75
		v13.0509c0.3387,0.0703,0.7131,0.1422,1.1084,0.215v-13.2659c0-2.0679,1.6826-3.75,3.75-3.75h17.9795
		c2.0674,0,3.75,1.6821,3.75,3.75v17.9795c0,2.0679-1.6826,3.75-3.75,3.75h-1.0159c0.2317,0.2416,0.4783,0.4996,0.7385,0.772
		c0.4012,0.4199,0.8601,0.8995,1.3499,1.4077h47.1443c1.8301,0,3.3193,1.4888,3.3193,3.3188v18.8413
		c0,1.8301-1.4893,3.3188-3.3193,3.3188h-31.2571c0.2231,0.6441,0.463,1.3309,0.7156,2.0498h4.0415c2.0674,0,3.75,1.6821,3.75,3.75
		v5.1255c0,1.9067-1.4358,3.468-3.2794,3.7025c0.0734,0.2017,0.1466,0.4033,0.2201,0.6052
		c1.7378,0.3257,3.0593,1.8488,3.0593,3.6802v4.6852c1.0333,2.8118,2.0017,5.4345,2.8203,7.642
		c0.7969,1.7606,1.2971,4.6617,1.5029,8.7739h23.2959c5.2715,0,9.5596-4.2886,9.5596-9.5596V62.3335
		c0-5.271-4.2881-9.5596-9.5596-9.5596H13.5596C8.2881,52.7739,4,57.0625,4,62.3335v164.4111
		C4,232.0156,8.2881,236.3042,13.5596,236.3042z M402.041,220.3286c0,2.0679-1.6826,3.75-3.75,3.75h-17.9795
		c-2.0674,0-3.75-1.6821-3.75-3.75v-5.1255c0-2.0679,1.6826-3.75,3.75-3.75h17.9795c2.0674,0,3.75,1.6821,3.75,3.75V220.3286z
		 M82.9854,137.2227c0,2.0679-1.6826,3.75-3.75,3.75H61.2559c-2.0674,0-3.75-1.6821-3.75-3.75v-17.9795
		c0-2.0679,1.6826-3.75,3.75-3.75h17.9795c2.0674,0,3.75,1.6821,3.75,3.75V137.2227z M68.2852,109.5635V91.584
		c0-2.0679,1.6826-3.75,3.75-3.75h17.9795c2.0674,0,3.75,1.6821,3.75,3.75v17.9795c0,2.0679-1.6826,3.75-3.75,3.75H72.0352
		C69.9678,113.3135,68.2852,111.6313,68.2852,109.5635z M109.5732,137.2227c0,2.0679-1.6826,3.75-3.75,3.75H87.8438
		c-2.0674,0-3.75-1.6821-3.75-3.75v-17.9795c0-2.0679,1.6826-3.75,3.75-3.75h17.9795c2.0674,0,3.75,1.6821,3.75,3.75V137.2227z
		 M94.873,109.5635V91.584c0-2.0679,1.6826-3.75,3.75-3.75h17.9795c2.0674,0,3.75,1.6821,3.75,3.75v17.9795
		c0,2.0679-1.6826,3.75-3.75,3.75H98.623C96.5557,113.3135,94.873,111.6313,94.873,109.5635z M136.1611,137.2227
		c0,2.0679-1.6826,3.75-3.75,3.75h-17.9795c-2.0674,0-3.75-1.6821-3.75-3.75v-17.9795c0-2.0679,1.6826-3.75,3.75-3.75h17.9795
		c2.0674,0,3.75,1.6821,3.75,3.75V137.2227z M162.749,137.2227c0,2.0679-1.6826,3.75-3.75,3.75h-17.9795
		c-2.0674,0-3.75-1.6821-3.75-3.75v-17.9795c0-2.0679,1.6826-3.75,3.75-3.75h17.9795c2.0674,0,3.75,1.6821,3.75,3.75V137.2227z
		 M148.0498,109.5635V91.584c0-2.0679,1.6826-3.75,3.75-3.75h17.9795c2.0674,0,3.75,1.6821,3.75,3.75v17.9795
		c0,2.0679-1.6826,3.75-3.75,3.75h-17.9795C149.7324,113.3135,148.0498,111.6313,148.0498,109.5635z M167.6074,140.9727
		c-2.0674,0-3.75-1.6821-3.75-3.75v-17.9795c0-2.0679,1.6826-3.75,3.75-3.75h17.9795c2.0674,0,3.75,1.6821,3.75,3.75v17.9795
		c0,2.0679-1.6826,3.75-3.75,3.75H167.6074z M238.7627,115.4932c2.0674,0,3.75,1.6821,3.75,3.75v17.9795
		c0,2.0679-1.6826,3.75-3.75,3.75h-17.9795c-2.0674,0-3.75-1.6821-3.75-3.75v-17.9795c0-2.0679,1.6826-3.75,3.75-3.75H238.7627z
		 M227.8135,109.5635V91.584c0-2.0679,1.6826-3.75,3.75-3.75h17.9795c2.0674,0,3.75,1.6821,3.75,3.75v17.9795
		c0,2.0679-1.6826,3.75-3.75,3.75h-17.9795C229.4961,113.3135,227.8135,111.6313,227.8135,109.5635z M221.3154,146.9019v17.9795
		c0,2.0679-1.6826,3.75-3.75,3.75h-17.9795c-2.0674,0-3.75-1.6821-3.75-3.75v-17.9795c0-2.0679,1.6826-3.75,3.75-3.75h17.9795
		C219.6328,143.1519,221.3154,144.834,221.3154,146.9019z M226.7051,109.5635c0,2.0679-1.6826,3.75-3.75,3.75h-17.9795
		c-2.0674,0-3.75-1.6821-3.75-3.75V91.584c0-2.0679,1.6826-3.75,3.75-3.75h17.9795c2.0674,0,3.75,1.6821,3.75,3.75V109.5635z
		 M212.1748,115.4932c2.0674,0,3.75,1.6821,3.75,3.75v17.9795c0,2.0679-1.6826,3.75-3.75,3.75h-17.9795
		c-2.0674,0-3.75-1.6821-3.75-3.75v-17.9795c0-2.0679,1.6826-3.75,3.75-3.75H212.1748z M200.1172,109.5635
		c0,2.0679-1.6826,3.75-3.75,3.75h-17.9795c-2.0674,0-3.75-1.6821-3.75-3.75V91.584c0-2.0679,1.6826-3.75,3.75-3.75h17.9795
		c2.0674,0,3.75,1.6821,3.75,3.75V109.5635z M172.9971,168.6313c-2.0674,0-3.75-1.6821-3.75-3.75v-17.9795
		c0-2.0679,1.6826-3.75,3.75-3.75h17.9795c2.0674,0,3.75,1.6821,3.75,3.75v17.9795c0,2.0679-1.6826,3.75-3.75,3.75H172.9971z
		 M208.0205,192.54c0,2.0679-1.6826,3.75-3.75,3.75H186.292c-2.0674,0-3.75-1.6821-3.75-3.75v-17.979
		c0-2.0679,1.6826-3.75,3.75-3.75h17.9785c2.0674,0,3.75,1.6821,3.75,3.75V192.54z M234.6094,192.54c0,2.0679-1.6826,3.75-3.75,3.75
		h-17.9795c-2.0674,0-3.75-1.6821-3.75-3.75v-17.979c0-2.0679,1.6826-3.75,3.75-3.75h17.9795c2.0674,0,3.75,1.6821,3.75,3.75V192.54
		z M247.9033,164.8813c0,2.0679-1.6826,3.75-3.75,3.75h-17.9795c-2.0674,0-3.75-1.6821-3.75-3.75v-17.9795
		c0-2.0679,1.6826-3.75,3.75-3.75h17.9795c2.0674,0,3.75,1.6821,3.75,3.75V164.8813z M269.1006,137.2227
		c0,2.0679-1.6826,3.75-3.75,3.75h-17.9785c-2.0674,0-3.75-1.6821-3.75-3.75v-17.9795c0-2.0679,1.6826-3.75,3.75-3.75h17.9785
		c2.0674,0,3.75,1.6821,3.75,3.75V137.2227z M254.4014,109.5635V91.584c0-2.0679,1.6826-3.75,3.75-3.75h17.9795
		c2.0674,0,3.75,1.6821,3.75,3.75v17.9795c0,2.0679-1.6826,3.75-3.75,3.75h-17.9795
		C256.084,113.3135,254.4014,111.6313,254.4014,109.5635z M295.6895,137.2227c0,2.0679-1.6826,3.75-3.75,3.75H273.96
		c-2.0674,0-3.75-1.6821-3.75-3.75v-17.9795c0-2.0679,1.6826-3.75,3.75-3.75h17.9795c2.0674,0,3.75,1.6821,3.75,3.75V137.2227z
		 M280.9893,109.5635V91.584c0-2.0679,1.6826-3.75,3.75-3.75h17.9795c2.0674,0,3.75,1.6821,3.75,3.75v17.9795
		c0,2.0679-1.6826,3.75-3.75,3.75h-17.9795C282.6719,113.3135,280.9893,111.6313,280.9893,109.5635z M322.2773,137.2227
		c0,2.0679-1.6826,3.75-3.75,3.75h-17.9795c-2.0674,0-3.75-1.6821-3.75-3.75v-17.9795c0-2.0679,1.6826-3.75,3.75-3.75h17.9795
		c2.0674,0,3.75,1.6821,3.75,3.75V137.2227z M307.5771,109.5635V91.584c0-2.0679,1.6826-3.75,3.75-3.75h17.9795
		c2.0674,0,3.75,1.6821,3.75,3.75v17.9795c0,2.0679-1.6826,3.75-3.75,3.75h-17.9795
		C309.2598,113.3135,307.5771,111.6313,307.5771,109.5635z M348.8652,137.2227c0,2.0679-1.6826,3.75-3.75,3.75h-17.9795
		c-2.0674,0-3.75-1.6821-3.75-3.75v-17.9795c0-2.0679,1.6826-3.75,3.75-3.75h17.9795c2.0674,0,3.75,1.6821,3.75,3.75V137.2227z
		 M334.165,109.5635V91.584c0-2.0679,1.6826-3.75,3.75-3.75h17.9795c2.0674,0,3.75,1.6821,3.75,3.75v17.9795
		c0,2.0679-1.6826,3.75-3.75,3.75H337.915C335.8477,113.3135,334.165,111.6313,334.165,109.5635z M353.7236,140.9727
		c-2.0674,0-3.75-1.6821-3.75-3.75v-17.9795c0-2.0679,1.6826-3.75,3.75-3.75h17.9795c2.0674,0,3.75,1.6821,3.75,3.75v17.9795
		c0,2.0679-1.6826,3.75-3.75,3.75H353.7236z M402.041,165.312c0,1.8301-1.4893,3.3193-3.3193,3.3193h-39.918
		c-1.8301,0-3.3193-1.4893-3.3193-3.3193v-18.8408c0-1.8301,1.4893-3.3193,3.3193-3.3193h39.918
		c1.8301,0,3.3193,1.4893,3.3193,3.3193V165.312z M402.041,137.2227c0,2.0679-1.6826,3.75-3.75,3.75h-17.9795
		c-2.0674,0-3.75-1.6821-3.75-3.75v-17.9795c0-2.0679,1.6826-3.75,3.75-3.75h17.9795c2.0674,0,3.75,1.6821,3.75,3.75V137.2227z
		 M402.041,109.9941c0,1.8301-1.4893,3.3193-3.3193,3.3193h-34.6494c-1.8301,0-3.3193-1.4893-3.3193-3.3193V91.1533
		c0-1.8301,1.4893-3.3193,3.3193-3.3193h34.6494c1.8301,0,3.3193,1.4893,3.3193,3.3193V109.9941z M375.4619,68.7495
		c0-2.0679,1.6826-3.75,3.75-3.75h19.0791c2.0674,0,3.75,1.6821,3.75,3.75v8.3311c0,2.0679-1.6826,3.75-3.75,3.75h-19.0791
		c-2.0674,0-3.75-1.6821-3.75-3.75V68.7495z M347.7422,68.7495c0-2.0679,1.6826-3.75,3.75-3.75h19.0791
		c2.0674,0,3.75,1.6821,3.75,3.75v8.3311c0,2.0679-1.6826,3.75-3.75,3.75h-19.0791c-2.0674,0-3.75-1.6821-3.75-3.75V68.7495z
		 M320.0225,68.7495c0-2.0679,1.6826-3.75,3.75-3.75h19.0801c2.0674,0,3.75,1.6821,3.75,3.75v8.3311c0,2.0679-1.6826,3.75-3.75,3.75
		h-19.0801c-2.0674,0-3.75-1.6821-3.75-3.75V68.7495z M292.3037,68.7495c0-2.0679,1.6826-3.75,3.75-3.75h19.0791
		c2.0674,0,3.75,1.6821,3.75,3.75v8.3311c0,2.0679-1.6826,3.75-3.75,3.75h-19.0791c-2.0674,0-3.75-1.6821-3.75-3.75V68.7495z
		 M264.584,68.7495c0-2.0679,1.6826-3.75,3.75-3.75h19.0791c2.0674,0,3.75,1.6821,3.75,3.75v8.3311c0,2.0679-1.6826,3.75-3.75,3.75
		H268.334c-2.0674,0-3.75-1.6821-3.75-3.75V68.7495z M236.8643,68.7495c0-2.0679,1.6826-3.75,3.75-3.75h19.0801
		c2.0674,0,3.75,1.6821,3.75,3.75v8.3311c0,2.0679-1.6826,3.75-3.75,3.75h-19.0801c-2.0674,0-3.75-1.6821-3.75-3.75V68.7495z
		 M209.1455,68.7495c0-2.0679,1.6826-3.75,3.75-3.75h19.0791c2.0674,0,3.75,1.6821,3.75,3.75v8.3311c0,2.0679-1.6826,3.75-3.75,3.75
		h-19.0791c-2.0674,0-3.75-1.6821-3.75-3.75V68.7495z M181.4258,68.7495c0-2.0679,1.6826-3.75,3.75-3.75h19.0791
		c2.0674,0,3.75,1.6821,3.75,3.75v8.3311c0,2.0679-1.6826,3.75-3.75,3.75h-19.0791c-2.0674,0-3.75-1.6821-3.75-3.75V68.7495z
		 M153.7061,68.7495c0-2.0679,1.6826-3.75,3.75-3.75h19.0801c2.0674,0,3.75,1.6821,3.75,3.75v8.3311c0,2.0679-1.6826,3.75-3.75,3.75
		h-19.0801c-2.0674,0-3.75-1.6821-3.75-3.75V68.7495z M125.9873,68.7495c0-2.0679,1.6826-3.75,3.75-3.75h19.0791
		c2.0674,0,3.75,1.6821,3.75,3.75v8.3311c0,2.0679-1.6826,3.75-3.75,3.75h-19.0791c-2.0674,0-3.75-1.6821-3.75-3.75V68.7495z
		 M143.1904,87.834c2.0674,0,3.75,1.6821,3.75,3.75v17.9795c0,2.0679-1.6826,3.75-3.75,3.75h-17.9795
		c-2.0674,0-3.75-1.6821-3.75-3.75V91.584c0-2.0679,1.6826-3.75,3.75-3.75H143.1904z M98.2676,68.7495
		c0-2.0679,1.6826-3.75,3.75-3.75h19.0791c2.0674,0,3.75,1.6821,3.75,3.75v8.3311c0,2.0679-1.6826,3.75-3.75,3.75h-19.0791
		c-2.0674,0-3.75-1.6821-3.75-3.75V68.7495z M70.5479,68.7495c0-2.0679,1.6826-3.75,3.75-3.75h19.0801
		c2.0674,0,3.75,1.6821,3.75,3.75v8.3311c0,2.0679-1.6826,3.75-3.75,3.75H74.2979c-2.0674,0-3.75-1.6821-3.75-3.75V68.7495z
		 M42.8291,68.7495c0-2.0679,1.6826-3.75,3.75-3.75h19.0791c2.0674,0,3.75,1.6821,3.75,3.75v8.3311c0,2.0679-1.6826,3.75-3.75,3.75
		H46.5791c-2.0674,0-3.75-1.6821-3.75-3.75V68.7495z M41.6973,91.584c0-2.0679,1.6826-3.75,3.75-3.75h17.9795
		c2.0674,0,3.75,1.6821,3.75,3.75v17.9795c0,2.0679-1.6826,3.75-3.75,3.75H45.4473c-2.0674,0-3.75-1.6821-3.75-3.75V91.584z
		 M15.1094,68.7495c0-2.0679,1.6826-3.75,3.75-3.75h19.0791c2.0674,0,3.75,1.6821,3.75,3.75v8.3311c0,2.0679-1.6826,3.75-3.75,3.75
		H18.8594c-2.0674,0-3.75-1.6821-3.75-3.75V68.7495z M15.1094,91.584c0-2.0679,1.6826-3.75,3.75-3.75h17.9795
		c2.0674,0,3.75,1.6821,3.75,3.75v17.9795c0,2.0679-1.6826,3.75-3.75,3.75H18.8594c-2.0674,0-3.75-1.6821-3.75-3.75V91.584z
		 M15.1094,118.812c0-1.8301,1.4893-3.3188,3.3193-3.3188h34.6494c1.8301,0,3.3193,1.4888,3.3193,3.3188v18.8413
		c0,1.8301-1.4893,3.3193-3.3193,3.3193H18.4287c-1.8301,0-3.3193-1.4893-3.3193-3.3193V118.812z M15.1094,146.4712
		c0-1.8301,1.4893-3.3193,3.3193-3.3193h39.918c1.8301,0,3.3193,1.4893,3.3193,3.3193v18.8408c0,1.8301-1.4893,3.3193-3.3193,3.3193
		h-39.918c-1.8301,0-3.3193-1.4893-3.3193-3.3193V146.4712z M15.1094,202.3491c0-2.0679,1.6826-3.75,3.75-3.75h17.9795
		c2.0674,0,3.75,1.6821,3.75,3.75v17.9795c0,2.0679-1.6826,3.75-3.75,3.75H18.8594c-2.0674,0-3.75-1.6821-3.75-3.75V202.3491z"/>
	<path fill="#FFFFFF" d="M266.5596,222.5786c1.0029,0,1.8193-0.8159,1.8193-1.8188v-13.169
		c-1.3577-2.5693-2.5952-5.1819-3.629-7.4916h-9.6969c5.5447,6.4228,6.6278,15.4513,6.425,22.4795H266.5596z"/>
	<path fill="#FFFFFF" d="M18.4287,167.1313h39.918c1.0029,0,1.8193-0.8159,1.8193-1.8193v-18.8408
		c0-1.0034-0.8164-1.8193-1.8193-1.8193h-39.918c-1.0029,0-1.8193,0.8159-1.8193,1.8193v18.8408
		C16.6094,166.3154,17.4258,167.1313,18.4287,167.1313z"/>
	<path fill="#FFFFFF" d="M18.8594,111.8135h17.9795c1.2402,0,2.25-1.0093,2.25-2.25V91.584c0-1.2407-1.0098-2.25-2.25-2.25H18.8594
		c-1.2402,0-2.25,1.0093-2.25,2.25v17.9795C16.6094,110.8042,17.6191,111.8135,18.8594,111.8135z"/>
	<path fill="#FFFFFF" d="M400.541,192.9712v-18.8413c0-1.0029-0.8164-1.8188-1.8193-1.8188h-45.6846
		c2.4583,2.4978,5.2954,5.2178,6.8252,5.9819c3.543,1.772,4.4482,6.124,5.2471,9.9639c0.1787,0.8569,0.3555,1.7119,0.5605,2.5308
		c0.1646,0.6587,0.623,2.0776,1.2792,4.0024h31.7726C399.7246,194.79,400.541,193.9741,400.541,192.9712z"/>
	<path fill="#FFFFFF" d="M352.7549,164.8813v-17.9795c0-1.2407-1.0098-2.25-2.25-2.25h-17.9795c-1.2402,0-2.25,1.0093-2.25,2.25
		v13.5262c1.8494,0.3039,4.1421,0.6273,6.8867,0.9694l0.2676,0.0337c3.3965,0.4248,8.2256,3.4814,10.4053,5.5249
		c0.0526,0.0493,0.1216,0.1185,0.1802,0.1753h2.4897C351.7451,167.1313,352.7549,166.1221,352.7549,164.8813z"/>
	<path fill="#FFFFFF" d="M374.4717,207.2153v-5.1255c0-1.2407-1.0098-2.25-2.25-2.25h-3.5125
		c1.0229,2.8903,2.2172,6.2108,3.4556,9.6255h0.0569C373.4619,209.4653,374.4717,208.4561,374.4717,207.2153z"/>
	<path fill="#FFFFFF" d="M299.2715,202.3491v2.4897c1.5198,2.4849,3.5959,5.862,5.7377,9.3393
		c0.4871-0.2991,1.014-0.6021,1.5387-0.8915c-0.6146-2.8073-3.1101-8.6932-5.2142-13.1685
		C300.1824,200.2154,299.2715,201.1727,299.2715,202.3491z"/>
	<path fill="#FFFFFF" d="M373.6141,213.4497c0.2867,0.7861,0.573,1.5696,0.8575,2.3475v-0.5941
		C374.4717,214.4907,374.1323,213.8622,373.6141,213.4497z"/>
	<path fill="#FFFFFF" d="M135.0029,154.0459c0.9443-0.6752,2.4028-0.5625,3.911-0.133c0.3987,0.056,0.7745,0.1349,1.1368,0.2208
		v-7.2318c0-1.2407-1.0098-2.25-2.25-2.25h-17.9795c-1.2402,0-2.25,1.0093-2.25,2.25v5.6132
		c2.1641-0.0417,4.6423,1.6344,6.0662,2.8074c1.4124-0.3829,2.7904-0.6239,3.8254-0.6887c0.5947-0.0371,1.3164-0.062,2.0898-0.0884
		C131.0732,154.4941,134.2139,154.3877,135.0029,154.0459z"/>
	<path fill="#FFFFFF" d="M118.6982,194.5449c-0.0471,0.0666-0.1018,0.1512-0.1605,0.2451h5.2587
		c1.0189-1.7302,2.0238-3.3928,2.9604-4.8601v-7.4979c-1.5457,1.7695-2.7178,3.2628-3.043,4.0279
		C122.4307,189.48,120.0576,193.2886,118.6982,194.5449z"/>
	<path fill="#FFFFFF" d="M166.6387,164.8813v-17.9795c0-1.2407-1.0098-2.25-2.25-2.25h-17.9795c-1.2402,0-2.25,1.0093-2.25,2.25
		v9.1594c0.7141,0.5511,1.4045,1.1863,1.9199,1.8125c1.1011,1.0701,1.9209,2.3586,1.9209,3.8357
		c0,0.141-0.0249,0.2877-0.0378,0.4316c1.7266-1.5145,3.5251-2.8337,4.8542-3.166c0.5039-0.1254,1.1401-0.2285,1.8506-0.2921
		c0.9141-0.234,1.8126-0.3716,2.6357-0.3973c2.4454-0.0873,5.0986,1.0911,6.2411,2.7295c0.4843,0.4709,0.9025,1.0155,1.2091,1.666
		c0.4574,0.9695,0.5259,2.4758,0.3005,4.3385C165.968,166.7341,166.6387,165.8891,166.6387,164.8813z"/>
	<path fill="#FFFFFF" d="M79.9883,161.3975c2.7446-0.3422,5.0374-0.6655,6.8867-0.9694v-13.5262c0-1.2407-1.0098-2.25-2.25-2.25
		H66.6455c-1.2402,0-2.25,1.0093-2.25,2.25v17.9795c0,1.2407,1.0098,2.25,2.25,2.25h2.4893
		c0.0586-0.0566,0.1273-0.1257,0.1797-0.1748c2.1807-2.0439,7.0098-5.1006,10.4062-5.5254L79.9883,161.3975z"/>
	<path fill="#FFFFFF" d="M109.5781,153.6636c1.3115-0.1571,2.8196-0.3383,3.8848-0.5008v-6.2609c0-1.2407-1.0098-2.25-2.25-2.25
		H93.2334c-1.2402,0-2.25,1.0093-2.25,2.25v12.6974c0.4209-0.1152,0.752-0.2263,0.9976-0.3334
		c2.3633-1.676,4.5388-3.0373,5.9995-3.5647C100.666,154.7314,105.6074,154.1392,109.5781,153.6636z"/>
	<path fill="#FFFFFF" d="M129.3652,179.5545c-0.3781,0.4045-0.7471,0.8046-1.1084,1.2003v6.918
		c0.3943-0.5637,0.7651-1.0651,1.1084-1.4934V179.5545z"/>
	<path fill="#FFFFFF" d="M102.0176,79.3306h19.0791c1.2402,0,2.25-1.0093,2.25-2.25v-8.3311c0-1.2407-1.0098-2.25-2.25-2.25
		h-19.0791c-1.2402,0-2.25,1.0093-2.25,2.25v8.3311C99.7676,78.3213,100.7773,79.3306,102.0176,79.3306z"/>
	<path fill="#FFFFFF" d="M43.1973,202.3491v12.0294c1.811-4.9593,3.6565-10.0587,5.1519-14.2794h-2.9019
		C44.207,200.0991,43.1973,201.1084,43.1973,202.3491z"/>
	<path fill="#FFFFFF" d="M64.1133,172.311H18.4287c-1.0029,0-1.8193,0.8159-1.8193,1.8188v18.8413
		c0,1.0029,0.8164,1.8188,1.8193,1.8188h31.7726c0.6561-1.9249,1.1146-3.3438,1.2792-4.0024
		c0.2051-0.8188,0.3818-1.6738,0.5605-2.5308c0.7988-3.8398,1.7041-8.1919,5.2471-9.9634
		C58.8179,177.5289,61.6552,174.8089,64.1133,172.311z"/>
	<path fill="#FFFFFF" d="M74.2979,79.3306h19.0801c1.2402,0,2.25-1.0093,2.25-2.25v-8.3311c0-1.2407-1.0098-2.25-2.25-2.25H74.2979
		c-1.2402,0-2.25,1.0093-2.25,2.25v8.3311C72.0479,78.3213,73.0576,79.3306,74.2979,79.3306z"/>
	<path fill="#FFFFFF" d="M139.2979,172.311h-0.2227c-1.4546,0.8087-2.9978,1.4915-4.5723,1.9717
		c-1.1287,1.1102-2.3875,2.3851-3.6377,3.6886v6.4053c2.0291-2.5961,5.3951-7.5731,7.9609-11.3683
		C138.9939,172.7603,139.142,172.5415,139.2979,172.311z"/>
	<path fill="#FFFFFF" d="M239.4678,172.311c-1.2402,0-2.25,1.0093-2.25,2.25v17.979c0,1.2407,1.0098,2.25,2.25,2.25h3.2375
		c0.0383-0.0211,0.0701-0.0502,0.1091-0.0703c1.5063-0.7758,3.2369-0.7452,5.2209,0.0703h9.4119c1.2402,0,2.25-1.0093,2.25-2.25
		v-3.6497c-2.5549-5.2841-5.042-11.4391-6.4771-16.5793H239.4678z"/>
	<path fill="#FFFFFF" d="M159.7031,196.29c-2.0674,0-3.75-1.6821-3.75-3.75v-0.6623c-0.1777,0.3405-0.355,0.6759-0.5312,1.0036
		c-0.2139,0.5567-1.0762,2.7729-2.3583,5.7178h10.4608c0.4155-0.3948,0.845-0.781,1.3027-1.1484
		c0.5397-0.433,1.0608-0.8131,1.5708-1.1606H159.7031z"/>
	<path fill="#FFFFFF" d="M116.6025,200.0991h-0.7771c-2.106,4.4776-4.6074,10.3763-5.2229,13.1875
		c0.5247,0.2894,1.0518,0.5925,1.5388,0.8915c2.6469-4.2976,5.1919-8.439,6.7112-10.9343v-0.8948
		C118.8525,201.1084,117.8428,200.0991,116.6025,200.0991z"/>
	<path fill="#FFFFFF" d="M46.5791,79.3306h19.0791c1.2402,0,2.25-1.0093,2.25-2.25v-8.3311c0-1.2407-1.0098-2.25-2.25-2.25H46.5791
		c-1.2402,0-2.25,1.0093-2.25,2.25v8.3311C44.3291,78.3213,45.3389,79.3306,46.5791,79.3306z"/>
	<path fill="#FFFFFF" d="M182.1777,224.0786c1.3597,3.0627,2.0415,8.2929,1.1393,12.2256h50.5171
		c-0.903-3.9329-0.2211-9.163,1.1385-12.2256H182.1777z"/>
	<path fill="#FFFFFF" d="M239.002,210.6431c-0.1367-2.3774-0.3312-5.7819,0.0881-8.8835c0.0591-0.5766,0.1318-1.1342,0.2223-1.6605
		H177.838c0.0905,0.5262,0.1632,1.0838,0.2223,1.6605c0.4193,3.1016,0.2249,6.506,0.0881,8.8835
		c-0.04,0.7051-0.0781,1.3711-0.0703,1.6411c0.0732,2.3984,2.0752,8.7388,3.2451,10.2783c0.0037,0.0049,0.0071,0.0112,0.0107,0.0161
		h54.4824c0.0037-0.0049,0.0071-0.0112,0.0107-0.0161c1.1699-1.5396,3.1719-7.8799,3.2451-10.2793
		C239.0801,212.0142,239.042,211.3481,239.002,210.6431z"/>
	<path fill="#FFFFFF" d="M152.4005,200.0991c-1.1444,2.5569-2.5367,5.4878-4.0665,8.3154
		c-1.5863,2.9334-3.9956,8.465-6.3505,14.1641h13.6888c-0.2028-7.0282,0.8804-16.0567,6.425-22.4795H152.4005z"/>
	<path fill="#FFFFFF" d="M261.1973,192.54c0,2.0679-1.6826,3.75-3.75,3.75h-6.6948c0.51,0.3475,1.0311,0.7276,1.5708,1.1606
		c0.4578,0.3674,0.8872,0.7536,1.3027,1.1484h10.4608c-1.2821-2.9448-2.1444-5.1611-2.3583-5.7178
		c-0.1763-0.3277-0.3535-0.6631-0.5312-1.0036V192.54z"/>
	<path fill="#FFFFFF" d="M136.5125,236.3042h17.0811c1.094-1.7025,2.1842-3.1943,3.1428-4.1929
		c-0.3088-1.5481-0.8011-4.4606-0.9993-8.0327h-14.3704C139.5225,228.5813,137.7627,233.0492,136.5125,236.3042z"/>
	<path fill="#FFFFFF" d="M117.7009,196.29c-0.3413,0.6516-0.7344,1.4347-1.1588,2.3091h0.0604c1.6365,0,3.017,1.0605,3.5276,2.5256
		c0.0042-0.0072,0.0114-0.0191,0.0154-0.0261c0.249-0.4268,0.5801-1.0049,0.9727-1.689c0.5903-1.0297,1.1943-2.079,1.7998-3.1196
		H117.7009z"/>
	<path fill="#FFFFFF" d="M179.9326,192.54v-17.979c0-1.2407-1.0098-2.25-2.25-2.25h-13.7524
		c-1.4351,5.1402-3.9221,11.2952-6.4771,16.5794v3.6496c0,1.2407,1.0098,2.25,2.25,2.25h9.4111
		c1.9844-0.816,3.7151-0.8468,5.2217-0.0703c0.0391,0.0201,0.0708,0.0493,0.1091,0.0703h3.2375
		C178.9229,194.79,179.9326,193.7808,179.9326,192.54z"/>
	<path fill="#FFFFFF" d="M18.4287,139.4727h34.6494c1.0029,0,1.8193-0.8159,1.8193-1.8193V118.812
		c0-1.0029-0.8164-1.8188-1.8193-1.8188H18.4287c-1.0029,0-1.8193,0.8159-1.8193,1.8188v18.8413
		C16.6094,138.6567,17.4258,139.4727,18.4287,139.4727z"/>
	<path fill="#FFFFFF" d="M105.8232,116.9932H87.8438c-1.2402,0-2.25,1.0093-2.25,2.25v17.9795c0,1.2407,1.0098,2.25,2.25,2.25
		h17.9795c1.2402,0,2.25-1.0093,2.25-2.25v-17.9795C108.0732,118.0024,107.0635,116.9932,105.8232,116.9932z"/>
	<path fill="#FFFFFF" d="M79.2354,116.9932H61.2559c-1.2402,0-2.25,1.0093-2.25,2.25v17.9795c0,1.2407,1.0098,2.25,2.25,2.25
		h17.9795c1.2402,0,2.25-1.0093,2.25-2.25v-17.9795C81.4854,118.0024,80.4756,116.9932,79.2354,116.9932z"/>
	<path fill="#FFFFFF" d="M116.6025,111.8135c1.2402,0,2.25-1.0093,2.25-2.25V91.584c0-1.2407-1.0098-2.25-2.25-2.25H98.623
		c-1.2402,0-2.25,1.0093-2.25,2.25v17.9795c0,1.2407,1.0098,2.25,2.25,2.25H116.6025z"/>
	<path fill="#FFFFFF" d="M398.291,212.9531h-17.9795c-1.2402,0-2.25,1.0093-2.25,2.25v5.1255c0,1.2407,1.0098,2.25,2.25,2.25
		h17.9795c1.2402,0,2.25-1.0093,2.25-2.25v-5.1255C400.541,213.9624,399.5312,212.9531,398.291,212.9531z"/>
	<path fill="#FFFFFF" d="M132.4111,116.9932h-17.9795c-1.2402,0-2.25,1.0093-2.25,2.25v17.9795c0,1.2407,1.0098,2.25,2.25,2.25
		h17.9795c1.2402,0,2.25-1.0093,2.25-2.25v-17.9795C134.6611,118.0024,133.6514,116.9932,132.4111,116.9932z"/>
	<path fill="#FFFFFF" d="M90.0146,111.8135c1.2402,0,2.25-1.0093,2.25-2.25V91.584c0-1.2407-1.0098-2.25-2.25-2.25H72.0352
		c-1.2402,0-2.25,1.0093-2.25,2.25v17.9795c0,1.2407,1.0098,2.25,2.25,2.25H90.0146z"/>
	<path fill="#FFFFFF" d="M158.999,116.9932h-17.9795c-1.2402,0-2.25,1.0093-2.25,2.25v17.9795c0,1.2407,1.0098,2.25,2.25,2.25
		h17.9795c1.2402,0,2.25-1.0093,2.25-2.25v-17.9795C161.249,118.0024,160.2393,116.9932,158.999,116.9932z"/>
	<path d="M13.5596,240.3042h23.1899c-0.0493,8.1945,0.7488,19.9396,2.4019,35.646l0.0186,0.1748
		c0.9199,8.7407-4.0361,26.4795-5.0947,29.021c-0.8457,2.0278-14.792,27.9844-23.96,44.9365l3.5176,1.9033
		c0.1489-0.2755,0.373-0.6899,0.6597-1.2202c4.0015-7.4025,20.4612-37.8874,23.1453-43.3804
		c3.5647,2.5652,12.4252,8.7722,16.4705,10.0767l0.6133-1.9033c-3.8914-1.2549-13.1476-7.7997-16.3184-10.0893
		c0.1842-0.5574,0.3997-1.2521,0.6348-2.0519c5.174,3.3234,19.7831,12.2419,30.0938,13.9605l0.3281-1.9727
		c-10.1649-1.6948-25.3022-11.0707-29.8512-14.0043c1.9019-6.9563,4.474-18.7164,3.7399-25.6949l-0.0186-0.1748
		c-3.4619-32.8901-2.5146-43.3804-1.1104-46.3892c0.0225-0.0488,0.0439-0.0991,0.0625-0.1504
		c0.4971-1.3408,12.1934-32.8911,13.2793-37.2344c0.2168-0.8691,0.4062-1.7764,0.5957-2.686
		c0.6436-3.0947,1.3096-6.2949,3.1201-7.2002c2.5898-1.2949,6.5566-5.3291,10.7373-9.7046
		c0.9639-1.0083,1.7959-1.8794,2.2354-2.2915c1.7129-1.605,5.8965-4.1909,8.167-4.4751l0.2666-0.0332
		c1.4224-0.1773,2.8723-0.3659,4.2783-0.5662c-2.9988,2.4324-5.3688,4.4907-5.7959,4.8875
		c-0.3857,0.3574-1.0498,0.8481-1.8184,1.4165c-2.2451,1.6582-5.3193,3.9297-7.3184,7.0708
		c-1.5918,2.502-3.8818,10.2109-6.9434,20.8281c-1.3896,4.8208-2.7021,9.3745-3.4805,11.4482
		c-1.7256,4.604-4.9775,5.644-5.1143,5.686l1.0938,3.8477c0.2148-0.0601,5.2949-1.5386,7.7666-8.1294
		c0.832-2.2197,2.1045-6.6338,3.5781-11.7446c2.1387-7.4185,5.0684-17.5791,6.4746-19.7886
		c1.5996-2.5137,4.3281-4.5293,6.3203-6.0015c0.8652-0.6392,1.6133-1.1919,2.1631-1.7021
		c1.9434-1.8057,13.9277-11.8115,17.6514-13.1558c2.2559-0.8149,7.1455-1.4004,10.7148-1.8281
		c0.465-0.0557,0.895-0.1076,1.2952-0.1566c0.8097,0.8468,1.9395,1.8716,2.9617,2.2323l1.1589,0.4091
		c-4.3171,3.4518-12.7551,9.8505-14.4285,10.5299c-3.335,1.355-7.1074,7.4595-8.1113,10.2173
		c-0.9033,2.4858-12.6562,27.6406-14.2139,30.9399c-0.9316,1.9722-3.5557,4.2651-4.4883,4.9824l2.4346,3.1738
		c0.4209-0.3223,4.1572-3.2446,5.6709-6.4482c1.0527-2.229,13.335-28.4731,14.3555-31.2808
		c0.9492-2.6069,4.1973-7.2041,5.8584-7.8784c2.9219-1.187,16.5986-11.8525,18.2021-13.4551c0.916-0.917,4.626-2.1289,6.9639-2.2749
		c0.5615-0.0352,1.2441-0.0581,1.9746-0.0825c2.2883-0.0776,4.0775-0.1652,5.4332-0.4191c3.3401,3.0823,4.4518,3.4089,4.8275,3.5177
		c0.4863,0.1406,1.0498,0.1963,1.6318,0.1963c0.8126,0,1.6553-0.1093,2.3867-0.2422c0.0103,0.0375,0.0303,0.0778,0.0332,0.1133
		c0,1.9336-4.7871,7.1245-11.0732,8.8662c-0.3252,0.0898-0.6221,0.2607-0.8633,0.4966
		c-1.7578,1.7163-10.5977,10.4507-12.0312,13.8232c-1.3076,3.0791-3.4717,6.2051-4.0283,6.6943
		c-1.5303,1.252-9.6328,18.4048-9.543,22.8584c0.0146,0.7295,0.4268,1.3936,1.0732,1.7319
		c0.8973,0.4692,1.8177,0.9894,2.5078,1.4045c-3.9933,6.4774-7.6497,12.3926-7.7266,12.5168l3.4023,2.1035
		c0.6621-1.0703,16.2227-26.2451,17.8828-29.0913c0.252-0.4326,0.5889-1.0195,0.9873-1.7144
		c2.0508-3.5757,6.3164-11.0161,8.29-13.186c1.9414-2.1367,6.001-8.1406,9.2617-12.9648c1.5713-2.3247,3.3525-4.959,3.7168-5.3721
		c0.8083-0.8936,1.6448-1.7664,2.4612-2.5771c1.4509,1.0237,6.939,2.0209,8.4011,2.0209c0.0791,0,0.1465-0.0029,0.2012-0.0093
		c0.9321-0.1036,2.6609-1.1707,4.1821-2.4149c-0.7462,4.7651-4.1964,14.8128-9.2622,24.2005
		c-0.042,0.0771-0.0791,0.1577-0.1104,0.2397c-0.0303,0.0806-3.0967,8.1206-6.9131,15.1748
		c-4.04,7.4702-12.8008,30.0933-13.8291,33.1768c-0.9678,2.9038-1.626,7.8506,0.5293,9.5752
		c0.7295,0.5835,1.6846,0.666,3.5869,0.8315c2.9346,0.2549,7.8447,0.6812,9.8145,3.0513c0.3535,0.4248,0.8662,0.6851,1.418,0.7183
		c0.3857,0.0239,2.3555,0.0747,3.6738-1.1665c0.71-0.6689,1.0859-1.5596,1.0811-2.478c0.2783-1.9922,6.4014-13.9907,8.9736-15.748
		c0.0857-0.0585,0.1479-0.1382,0.2219-0.2076c0.5259,0.1964,1.073,0.3696,1.4871,0.4215l0.1992-1.5879
		c-0.2507-0.0313-0.6383-0.1528-1.0552-0.3066c-0.0022-0.1472-0.002-0.2948-0.0376-0.442
		c-0.0537-0.2231-5.252-22.3872,6.4512-31.7783c2.5398-2.0379,3.9418-2.4135,4.6473-2.4026
		c-1.4379,1.7685-2.9921,4.1743-3.1493,6.4539c-0.2578,3.7451,1.085,7.3936,2.1592,8.3604
		c0.6313,0.5681,2.0398,1.0437,3.2965,1.1823c0.5924,3.4568,2.3668,8.8625,3.8529,10.8177
		c1.0967,1.4434,2.2803,7.3389,1.1143,11.0469c-0.5391,1.71-2.5371,6.7915-4.6523,12.1714
		c-3.2568,8.2822-6.624,16.8467-7.2158,19.4077c-1.2305,5.3354-3.4229,9.1104-6.7021,11.5415
		c-2.4092,1.7861-12.2979,8.6758-21.0225,14.7539c-9.4365,6.5742-15.2578,10.6343-16.0039,11.231
		c-0.1201,0.0869-0.3066,0.1885-0.5576,0.333c-11.5674,6.687-26.3076,24.7539-43.8096,53.6982l1.2493,0.7551l2.1746,1.3143
		c11.79-19.498,28.7139-44.3999,42.3877-52.3047c0.4463-0.2573,0.7676-0.4434,1.0381-0.6597
		c0.6973-0.5576,8.3789-5.9092,15.8076-11.085c9.1748-6.3921,18.6621-13.0015,21.1191-14.8232
		c4.0752-3.021,6.7637-7.5532,8.2168-13.8545c0.5254-2.2725,4.1377-11.4609,7.041-18.8438
		c1.4312-3.6403,2.7354-6.9578,3.6421-9.3604h53.2219c0.9065,2.4025,2.2106,5.7199,3.6418,9.3604
		c2.9033,7.3828,6.5156,16.5713,7.04,18.8433c1.4541,6.3018,4.1426,10.834,8.2178,13.855
		c2.457,1.8218,11.9443,8.4312,21.1191,14.8232c7.4287,5.1758,15.1104,10.5273,15.8076,11.0845
		c0.2705,0.2168,0.5918,0.4028,1.0381,0.6606c13.6748,7.9043,30.5986,32.8062,42.3877,52.3042l2.1746-1.3143l1.2493-0.7551
		c-17.502-28.9443-32.2412-47.0107-43.8096-53.6982c-0.251-0.1445-0.4375-0.2461-0.542-0.3208
		c-0.7617-0.6089-6.583-4.6689-16.0195-11.2432c-8.7246-6.0781-18.6133-12.9678-21.0225-14.7544
		c-3.2793-2.4307-5.4717-6.2056-6.7031-11.5415c-0.5908-2.5605-3.958-11.125-7.2148-19.4072
		c-2.1152-5.3799-4.1133-10.4614-4.6514-12.1709c-1.167-3.7085,0.0166-9.604,1.1133-11.0474
		c1.4861-1.955,3.2604-7.3602,3.8528-10.8176c1.2581-0.1385,2.6667-0.6145,3.2957-1.1819c1.0762-0.9678,2.4189-4.6167,2.1602-8.3613
		c-0.1573-2.2794-1.7117-4.6852-3.1499-6.4539c0.7053-0.0113,2.1074,0.3643,4.6479,2.4031
		c11.7031,9.3911,6.5049,31.5552,6.4512,31.7783c-0.0356,0.1472-0.0354,0.2949-0.0376,0.4421
		c-0.4166,0.1537-0.8042,0.2751-1.0552,0.3064l0.1992,1.5879c0.4141-0.0519,0.9612-0.2252,1.4871-0.4215
		c0.074,0.0695,0.1362,0.1491,0.2219,0.2076c2.5723,1.7573,8.6953,13.7559,8.9688,15.6499c0,1.0166,0.376,1.9072,1.0859,2.5762
		c1.3184,1.2417,3.293,1.1904,3.6738,1.1665c0.5518-0.0332,1.0645-0.2935,1.418-0.7183c1.9697-2.3701,6.8799-2.7964,9.8145-3.0513
		c1.9023-0.1655,2.8574-0.248,3.5879-0.832c2.1543-1.7241,1.4961-6.6709,0.5283-9.5752
		c-1.0283-3.083-9.7891-25.7061-13.8291-33.1763c-3.8164-7.0542-6.8828-15.0942-6.9131-15.1748
		c-0.0312-0.082-0.0684-0.1626-0.1104-0.2397c-5.0675-9.3908-8.5183-19.4422-9.2645-24.2023
		c1.5219,1.2449,3.2518,2.313,4.1844,2.4166c0.0547,0.0063,0.1221,0.0093,0.2012,0.0093c1.4622,0,6.9503-0.9972,8.4011-2.0209
		c0.816,0.8102,1.6516,1.6824,2.4592,2.5751c0.3662,0.415,2.1475,3.0493,3.7188,5.374c3.2607,4.8242,7.3203,10.8281,9.2627,12.9653
		c1.9727,2.1694,6.2383,9.6099,8.2891,13.1855c0.3984,0.6948,0.7354,1.2817,0.9873,1.7139
		c1.6602,2.8467,17.2207,28.0215,17.8828,29.0918l3.4023-2.1035c-0.0769-0.1243-3.7324-6.038-7.7251-12.5144
		c0.6962-0.4217,1.6128-0.9398,2.5063-1.407c0.6465-0.3384,1.0576-1.0024,1.0732-1.7319
		c0.0898-4.4536-8.0127-21.6064-9.5361-22.8525c-0.5635-0.4951-2.7275-3.6211-4.0352-6.7012
		c-1.4336-3.3716-10.2734-12.106-12.0312-13.8223c-0.2412-0.2358-0.5381-0.4067-0.8633-0.4966
		c-6.2861-1.7417-11.0732-6.9326-11.0732-8.8623c0.0031-0.0366,0.0234-0.0782,0.0342-0.117c0.7312,0.1329,1.5735,0.242,2.3857,0.242
		c0.582,0,1.1455-0.0557,1.6318-0.1963c0.3757-0.1088,1.4873-0.4354,4.8279-3.5176c1.3556,0.2538,3.1448,0.3414,5.4329,0.419
		c0.7305,0.0244,1.4131,0.0474,1.9746,0.0825c2.3379,0.146,6.0479,1.3579,6.9648,2.2759
		c1.6025,1.6016,15.2793,12.2671,18.2012,13.4541c1.6611,0.6743,4.9092,5.2715,5.8574,7.8774
		c1.0215,2.8086,13.3047,29.0527,14.3564,31.2827c1.5137,3.2026,5.251,6.125,5.6729,6.4478l2.4336-3.1748
		c-0.9326-0.7168-3.5576-3.0098-4.4893-4.981c-1.5576-3.3003-13.3105-28.4551-14.2148-30.9419
		c-1.0029-2.7568-4.7754-8.8613-8.1104-10.2163c-1.6733-0.6795-10.1121-7.0786-14.4287-10.5298l1.1592-0.4091
		c1.0222-0.3607,2.152-1.3855,2.9617-2.2323c0.4001,0.049,0.8302,0.1009,1.2952,0.1566c3.5693,0.4277,8.459,1.0132,10.7158,1.8286
		c3.7227,1.3438,15.707,11.3496,17.6514,13.1558c0.5488,0.5098,1.2969,1.0625,2.1621,1.7017
		c1.9922,1.4722,4.7207,3.4878,6.3203,6.0015c1.4062,2.2095,4.3359,12.3701,6.4746,19.7886
		c1.4736,5.1108,2.7461,9.5249,3.5781,11.7446c2.4717,6.5908,7.5518,8.0693,7.7666,8.1294l1.0938-3.8477
		c-0.1367-0.042-3.3887-1.082-5.1143-5.686c-0.7783-2.0737-2.0908-6.6274-3.4805-11.4482
		c-3.0615-10.6172-5.3516-18.3262-6.9434-20.8281c-1.999-3.1411-5.0732-5.4126-7.3184-7.0708
		c-0.7686-0.5684-1.4326-1.0591-1.8174-1.416c-0.4275-0.397-2.7977-2.4555-5.7966-4.888c1.4058,0.2003,2.8558,0.3889,4.2781,0.5662
		l0.2666,0.0332c2.2705,0.2842,6.4541,2.8701,8.166,4.4746c0.4404,0.4126,1.2725,1.2837,2.2363,2.292
		c4.1807,4.3755,8.1475,8.4097,10.7373,9.7041c1.8105,0.9058,2.4766,4.106,3.1201,7.2007c0.1895,0.9097,0.3789,1.8169,0.5957,2.686
		c1.0859,4.3433,12.7822,35.8936,13.2793,37.2344c0.0186,0.0513,0.04,0.1016,0.0625,0.1504
		c1.4043,3.0088,2.3516,13.499-1.1104,46.3892l-0.0186,0.1748c-0.7341,6.9786,1.8381,18.7388,3.7395,25.6951
		c-4.5493,2.934-19.6862,12.3093-29.8508,14.0042l0.3281,1.9727c10.3103-1.7185,24.9189-10.6367,30.0934-13.9602
		c0.235,0.7999,0.4503,1.4946,0.6344,2.052c-3.1711,2.29-12.4265,8.8341-16.3176,10.0889l0.6133,1.9033
		c4.045-1.3044,12.9048-7.5106,16.4698-10.0762c2.6855,5.4943,19.1447,35.9777,23.1459,43.3799
		c0.2866,0.5303,0.5107,0.9448,0.6597,1.2202l3.5176-1.9033c-9.168-16.9521-23.1143-42.9087-23.96-44.9365
		c-1.0586-2.5415-6.0146-20.2803-5.0947-29.021l0.0186-0.1748c1.6531-15.7064,2.4512-27.4515,2.4019-35.646h23.1899
		c7.4766,0,13.5596-6.083,13.5596-13.5596V62.3335c0-7.4766-6.083-13.5596-13.5596-13.5596H13.5596
		C6.083,48.7739,0,54.8569,0,62.3335v164.4111C0,234.2212,6.083,240.3042,13.5596,240.3042z M4,62.3335
		c0-5.271,4.2881-9.5596,9.5596-9.5596h390.0312c5.2715,0,9.5596,4.2886,9.5596,9.5596v164.4111
		c0,5.271-4.2881,9.5596-9.5596,9.5596h-23.2959c-0.2058-4.1122-0.7061-7.0134-1.5029-8.7739
		c-0.8186-2.2075-1.787-4.8301-2.8203-7.642v-4.6852c0-1.8314-1.3215-3.3544-3.0593-3.6802
		c-0.0735-0.2019-0.1467-0.4035-0.2201-0.6052c1.8436-0.2345,3.2794-1.7958,3.2794-3.7025v-5.1255c0-2.0679-1.6826-3.75-3.75-3.75
		h-4.0415c-0.2526-0.7189-0.4924-1.4057-0.7156-2.0498h31.2571c1.8301,0,3.3193-1.4888,3.3193-3.3188v-18.8413
		c0-1.8301-1.4893-3.3188-3.3193-3.3188h-47.1443c-0.4897-0.5082-0.9486-0.9878-1.3499-1.4077
		c-0.2603-0.2724-0.5068-0.5303-0.7385-0.772h1.0159c2.0674,0,3.75-1.6821,3.75-3.75v-17.9795c0-2.0679-1.6826-3.75-3.75-3.75
		h-17.9795c-2.0674,0-3.75,1.6821-3.75,3.75v13.2659c-0.3953-0.0729-0.7697-0.1447-1.1084-0.215v-13.0509
		c0-2.0679-1.6826-3.75-3.75-3.75h-17.9795c-2.0674,0-3.75,1.6821-3.75,3.75v5.9262c-0.3433-0.1244-0.7141-0.1858-1.1084-0.1862
		v-5.7401c0-2.0679-1.6826-3.75-3.75-3.75h-17.9795c-2.0674,0-3.75,1.6821-3.75,3.75v7.6447
		c-0.0134,0.0041-0.0286,0.0085-0.042,0.0125c-0.2965,0.0897-0.6643,0.261-1.0664,0.4899v-8.1471c0-2.0679-1.6826-3.75-3.75-3.75
		h-17.9795c-2.0674,0-3.75,1.6821-3.75,3.75v17.9795c0,1.9238,1.4617,3.4952,3.3291,3.7075
		c0.1304,0.7064,0.2922,1.4489,0.4834,2.2222h-13.3564c-2.0674,0-3.75,1.6821-3.75,3.75v17.979c0,2.0679,1.6826,3.75,3.75,3.75
		h1.5251c-0.3376,0.2126-0.6246,0.5038-0.8142,0.8677c-0.2075,0.3981-0.3811,0.8942-0.5337,1.4414h-62.1396
		c-0.1526-0.5472-0.3262-1.0433-0.5337-1.4414c-0.1896-0.3639-0.4766-0.655-0.8142-0.8677h1.5251c2.0674,0,3.75-1.6821,3.75-3.75
		v-17.979c0-2.0679-1.6826-3.75-3.75-3.75h-13.3564c0.1912-0.7734,0.353-1.5158,0.4834-2.2222
		c1.8674-0.2123,3.3291-1.7837,3.3291-3.7075v-17.9795c0-2.0679-1.6826-3.75-3.75-3.75h-17.9795c-2.0674,0-3.75,1.6821-3.75,3.75
		v8.1468c-0.4017-0.2286-0.7693-0.4-1.0654-0.4896c-0.0137-0.0042-0.0292-0.0087-0.043-0.0128v-7.6444
		c0-2.0679-1.6826-3.75-3.75-3.75h-17.9795c-2.0674,0-3.75,1.6821-3.75,3.75v5.7402c-0.3944,0.0001-0.7651,0.0615-1.1084,0.1859
		v-5.9261c0-2.0679-1.6826-3.75-3.75-3.75H93.2334c-2.0674,0-3.75,1.6821-3.75,3.75v13.0509
		c-0.3387,0.0703-0.7131,0.1422-1.1084,0.215v-13.2659c0-2.0679-1.6826-3.75-3.75-3.75H66.6455c-2.0674,0-3.75,1.6821-3.75,3.75
		v17.9795c0,2.0679,1.6826,3.75,3.75,3.75h1.0159c-0.2317,0.2416-0.4783,0.4996-0.7385,0.772
		c-0.4012,0.4199-0.8601,0.8995-1.3499,1.4077H18.4287c-1.8301,0-3.3193,1.4888-3.3193,3.3188v18.8413
		c0,1.8301,1.4893,3.3188,3.3193,3.3188h31.2571c-0.2499,0.7215-0.5203,1.4947-0.8068,2.3091h-3.4318
		c-2.0674,0-3.75,1.6821-3.75,3.75v16.127c-1.2273,3.3448-2.3848,6.4809-3.3389,9.0541c-0.7969,1.7606-1.2971,4.6617-1.5029,8.7739
		H13.5596c-5.2715,0-9.5596-4.2886-9.5596-9.5596V62.3335z M372.1648,209.4653c-1.2384-3.4147-2.4326-6.7352-3.4556-9.6255h3.5125
		c1.2402,0,2.25,1.0093,2.25,2.25v5.1255c0,1.2407-1.0098,2.25-2.25,2.25H372.1648z M374.4717,215.7972
		c-0.2845-0.778-0.5708-1.5614-0.8575-2.3475c0.5182,0.4125,0.8575,1.041,0.8575,1.7534V215.7972z M365.6699,190.7876
		c-0.2051-0.8188-0.3818-1.6738-0.5605-2.5308c-0.7988-3.8398-1.7041-8.1919-5.2471-9.9639
		c-1.5298-0.7642-4.3669-3.4841-6.8252-5.9819h45.6846c1.0029,0,1.8193,0.8159,1.8193,1.8188v18.8413
		c0,1.0029-0.8164,1.8188-1.8193,1.8188h-31.7726C366.293,192.8652,365.8345,191.4463,365.6699,190.7876z M347.835,166.9561
		c-2.1797-2.0435-7.0088-5.1001-10.4053-5.5249l-0.2676-0.0337c-2.7446-0.3422-5.0374-0.6655-6.8867-0.9694v-13.5262
		c0-1.2407,1.0098-2.25,2.25-2.25h17.9795c1.2402,0,2.25,1.0093,2.25,2.25v17.9795c0,1.2407-1.0098,2.25-2.25,2.25h-2.4897
		C347.9565,167.0746,347.8876,167.0053,347.835,166.9561z M306.5479,213.2866c-0.5247,0.2894-1.0516,0.5925-1.5387,0.8915
		c-2.1417-3.4773-4.2179-6.8544-5.7377-9.3393v-2.4897c0-1.1764,0.9109-2.1337,2.0621-2.231
		C303.4377,204.5934,305.9332,210.4793,306.5479,213.2866z M300.6611,198.7083c-1.6526,0.3912-2.8896,1.8702-2.8896,3.6408v0.028
		c-0.355-0.5859-0.6204-1.0283-0.7666-1.2789c-0.249-0.4263-0.5801-1.0044-0.9727-1.6885c-0.5903-1.0297-1.1943-2.079-1.7998-3.1196
		h5.2168C299.8048,196.969,300.2163,197.7896,300.6611,198.7083z M272.9912,156.0615c-0.7141,0.5511-1.4044,1.1861-1.9197,1.8121
		c-1.1013,1.0701-1.9211,2.3586-1.9211,3.8359c0,0.141,0.0249,0.2877,0.0378,0.4316c-1.7266-1.5145-3.5251-2.8337-4.8542-3.166
		c-0.5046-0.1262-1.1426-0.2297-1.855-0.2934c-0.9126-0.2333-1.8096-0.3704-2.6313-0.3961c-2.4761-0.0879-5.1038,1.092-6.243,2.7316
		c-0.4833,0.4705-0.9008,1.0145-1.2072,1.6639c-0.4574,0.9695-0.5259,2.4758-0.3005,4.3385
		c-0.9146-0.2856-1.5852-1.1306-1.5852-2.1383v-17.9795c0-1.2407,1.0098-2.25,2.25-2.25h17.9795c1.2402,0,2.25,1.0093,2.25,2.25
		V156.0615z M276.4258,157.4307c0.8203-0.248,1.6582-0.5015,2.541-0.5869c-1.5303,1.332-2.3506,1.8398-2.5986,1.9165
		c-0.4346,0.126-1.1904,0.0908-1.9473-0.0068C275.1094,158.1611,275.9072,157.5874,276.4258,157.4307z M256.0518,162.7227
		c0.3389-0.5259,1.9971-1.4893,3.7021-1.439c2.1514,0.0674,5.1455,1.0991,6.7471,3.2041c0.0605,0.1846,0.1172,0.4028,0.1504,0.5864
		c-1.4043,0.4927-5.1963,1.2686-5.9775,1.2686c-0.0137,0-0.0264-0.0005-0.0391-0.001
		C259.8174,166.1182,256.7695,163.8467,256.0518,162.7227z M278.0752,172.311c1.4546,0.8087,2.9978,1.4915,4.5723,1.9717
		c1.1287,1.1102,2.3875,2.3851,3.6377,3.6886v6.4045c-2.0295-2.5963-5.3954-7.5728-7.9609-11.3676
		c-0.1677-0.248-0.3158-0.4668-0.4717-0.6973H278.0752z M293.354,194.79c-1.0189-1.7303-2.0239-3.393-2.9604-4.8604v-7.4978
		c1.5457,1.7693,2.7178,3.2624,3.043,4.0272c1.2832,3.021,3.6562,6.8296,5.0156,8.0859c0.0471,0.0667,0.1018,0.1513,0.1604,0.2451
		H293.354z M288.8936,187.6722c-0.3943-0.564-0.7653-1.0654-1.1084-1.4938v-6.624c0.3781,0.4045,0.7471,0.8046,1.1084,1.2004
		V187.6722z M282.1475,154.0459c-0.9431-0.6743-2.3989-0.5624-3.9048-0.1344c-0.4011,0.0562-0.7789,0.1356-1.1431,0.2219v-7.2316
		c0-1.2407,1.0098-2.25,2.25-2.25h17.9795c1.2402,0,2.25,1.0093,2.25,2.25v5.613c-2.1772-0.0447-4.6497,1.6328-6.0691,2.8068
		c-1.4114-0.3824-2.7882-0.6232-3.8225-0.6879c-0.5947-0.0371-1.3164-0.062-2.0898-0.0884
		C286.0771,154.4941,282.9365,154.3877,282.1475,154.0459z M299.0151,157.8796c-0.5479-0.487-1.2734-0.9316-2.0984-1.3253
		c0.98-0.6118,2.0088-1.0902,2.6389-1.046c0.8428,0.0483,2.1455,0.3306,3.3262,0.6294c-0.418,0.376-0.7959,0.6577-1.04,0.7441
		L299.0151,157.8796z M303.6875,153.1628v-6.2609c0-1.2407,1.0098-2.25,2.25-2.25h17.9795c1.2402,0,2.25,1.0093,2.25,2.25v12.6974
		c-0.4208-0.1152-0.7517-0.2263-0.9973-0.3334c-2.363-1.6759-4.5385-3.037-5.9988-3.5643
		c-2.6865-0.9702-7.6279-1.5625-11.5986-2.0381C306.2607,153.5065,304.7527,153.3253,303.6875,153.1628z M272.6836,216.6963
		c0.8091,1.8691,1.6489,3.8631,2.4833,5.8823h-0.2333c-1.2402,0-2.25-1.0093-2.25-2.25V216.6963z M274.9336,224.0786h0.8502
		c1.8441,4.5027,3.6041,8.9707,4.8541,12.2256h-17.0813c-1.094-1.7025-2.1841-3.1942-3.1426-4.1929
		c0.3088-1.5481,0.8011-4.4606,0.9993-8.0327h5.1462c1.8301,0,3.3193-1.4888,3.3193-3.3188V210.509
		c0.4078,0.8414,0.8453,1.7802,1.3047,2.7941v7.0255C271.1836,222.3965,272.8662,224.0786,274.9336,224.0786z M282.3682,240.9526
		c0.7383,2.2139,0.7646,4.1499,0.6318,5.0337c-0.3789,0.0435-0.8711,0.0859-1.2998,0.1235
		c-3.2451,0.2817-8.4863,0.7363-11.6846,3.5918c-0.2789-1.7077-2.001-5.5907-4.0913-9.3975h16.2163
		C282.2362,240.5698,282.3154,240.7947,282.3682,240.9526z M255.053,200.0991h9.6969c1.0338,2.3097,2.2714,4.9223,3.629,7.4916
		v13.169c0,1.0029-0.8164,1.8188-1.8193,1.8188h-5.0815C261.6808,215.5504,260.5977,206.5219,255.053,200.0991z M264.0868,198.5991
		H253.626c-0.4155-0.3948-0.845-0.781-1.3027-1.1484c-0.5397-0.433-1.0608-0.8131-1.5708-1.1606h6.6948
		c2.0674,0,3.75-1.6821,3.75-3.75v-0.6623c0.1777,0.3405,0.355,0.6759,0.5312,1.0036
		C261.9424,193.438,262.8047,195.6543,264.0868,198.5991z M244.1436,210.749c-0.3721,0.2041-1.2891,0.436-1.8496,0.4644
		c-0.3584-1.978-0.6953-8.4189,0.1592-11.6221c1.7275,2.0059,2.7842,3.916,2.876,5.2373
		C245.5303,207.7495,244.5,210.2173,244.1436,210.749z M235.8164,222.5786H181.334c-0.0037-0.0049-0.0071-0.0112-0.0107-0.0161
		c-1.1699-1.5396-3.1719-7.8799-3.2451-10.2783c-0.0078-0.27,0.0303-0.936,0.0703-1.6411c0.1367-2.3774,0.3312-5.7819-0.0881-8.8835
		c-0.0591-0.5767-0.1318-1.1342-0.2223-1.6605h61.4744c-0.0905,0.5262-0.1632,1.0839-0.2223,1.6605
		c-0.4193,3.1016-0.2249,6.506-0.0881,8.8835c0.04,0.7051,0.0781,1.3711,0.0703,1.6401c-0.0732,2.3994-2.0752,8.7397-3.2451,10.2793
		C235.8235,222.5674,235.8201,222.5737,235.8164,222.5786z M233.8341,236.3042H183.317c0.9022-3.9327,0.2205-9.1628-1.1393-12.2256
		h52.7949C233.613,227.1412,232.9312,232.3713,233.8341,236.3042z M173.0068,210.7485c-0.3564-0.5317-1.3857-2.999-1.1855-5.9199
		c0.0918-1.3213,1.1494-3.2314,2.875-5.2373c0.8555,3.2031,0.5186,9.644,0.1602,11.6221
		C174.2959,211.1851,173.3789,210.9531,173.0068,210.7485z M163.5244,198.5991h-10.4608c1.2821-2.9448,2.1444-5.1611,2.3583-5.7178
		c0.1763-0.3277,0.3535-0.6631,0.5312-1.0036v0.6623c0,2.0679,1.6826,3.75,3.75,3.75h6.6948
		c-0.51,0.3475-1.0311,0.7277-1.5708,1.1606C164.3694,197.8181,163.9399,198.2043,163.5244,198.5991z M155.6724,222.5786h-13.6888
		c2.3549-5.6991,4.7642-11.2307,6.3505-14.1641c1.5298-2.8276,2.9221-5.7585,4.0665-8.3154h9.6969
		C156.5527,206.5219,155.4696,215.5504,155.6724,222.5786z M156.7363,232.1113c-0.9586,0.9986-2.0488,2.4904-3.1428,4.1929h-17.0811
		c1.2502-3.255,3.01-7.7229,4.8542-12.2256h14.3704C155.9352,227.6507,156.4275,230.5632,156.7363,232.1113z M134.1504,245.9863
		c-0.1328-0.8838-0.1064-2.8198,0.6318-5.0332c0.0527-0.158,0.1321-0.3831,0.2275-0.6489h16.2161
		c-2.0901,3.8065-3.8118,7.6893-4.0901,9.3975c-3.1992-2.8555-8.4404-3.3101-11.6855-3.5918
		C135.0215,246.0723,134.5293,246.0298,134.1504,245.9863z M174.4451,194.79c-0.0383-0.0211-0.0701-0.0502-0.1091-0.0703
		c-1.5066-0.7765-3.2373-0.7457-5.2217,0.0703h-9.4111c-1.2402,0-2.25-1.0093-2.25-2.25v-3.6496
		c2.5549-5.2842,5.042-11.4392,6.4771-16.5794h13.7524c1.2402,0,2.25,1.0093,2.25,2.25v17.979c0,1.2407-1.0098,2.25-2.25,2.25
		H174.4451z M259.6973,192.54c0,1.2407-1.0098,2.25-2.25,2.25h-9.4119c-1.984-0.8155-3.7146-0.8461-5.2209-0.0703
		c-0.0391,0.0201-0.0708,0.0493-0.1091,0.0703h-3.2375c-1.2402,0-2.25-1.0093-2.25-2.25v-17.979c0-1.2407,1.0098-2.25,2.25-2.25
		h13.7524c1.4351,5.1402,3.9221,11.2952,6.4771,16.5793V192.54z M120.1455,201.0986c-0.004,0.007-0.0112,0.0189-0.0154,0.0261
		c-0.5106-1.465-1.8911-2.5256-3.5276-2.5256h-0.0604c0.4244-0.8744,0.8175-1.6575,1.1588-2.3091h5.217
		c-0.6055,1.0406-1.2095,2.0899-1.7998,3.1196C120.7256,200.0938,120.3945,200.6719,120.1455,201.0986z M118.8525,203.2439
		c-1.5193,2.4952-4.0643,6.6367-6.7112,10.9343c-0.4871-0.2991-1.0142-0.6021-1.5388-0.8915
		c0.6155-2.8112,3.1169-8.7099,5.2229-13.1875h0.7771c1.2402,0,2.25,1.0093,2.25,2.25V203.2439z M69.1348,167.1313h-2.4893
		c-1.2402,0-2.25-1.0093-2.25-2.25v-17.9795c0-1.2407,1.0098-2.25,2.25-2.25H84.625c1.2402,0,2.25,1.0093,2.25,2.25v13.5262
		c-1.8494,0.3039-4.1421,0.6273-6.8867,0.9694l-0.2676,0.0337c-3.3965,0.4248-8.2256,3.4814-10.4062,5.5254
		C69.2621,167.0056,69.1934,167.0748,69.1348,167.1313z M91.981,159.2659c-0.2456,0.1071-0.5767,0.2182-0.9976,0.3334v-12.6974
		c0-1.2407,1.0098-2.25,2.25-2.25h17.9795c1.2402,0,2.25,1.0093,2.25,2.25v6.2609c-1.0652,0.1625-2.5732,0.3437-3.8848,0.5008
		c-3.9707,0.4756-8.9121,1.0679-11.5977,2.0376C96.5198,156.2286,94.3442,157.5898,91.981,159.2659z M115.3086,156.8818
		c-0.2441-0.0864-0.6221-0.3682-1.04-0.7441c1.1807-0.2988,2.4834-0.5811,3.3262-0.6294c0.0234-0.0015,0.0488-0.002,0.0742-0.002
		c0.6523,0,1.6365,0.4603,2.5714,1.0446c-0.828,0.3947-1.556,0.8403-2.1051,1.3286L115.3086,156.8818z M123.6375,155.3224
		c-1.4238-1.173-3.9021-2.8491-6.0662-2.8074v-5.6132c0-1.2407,1.0098-2.25,2.25-2.25h17.9795c1.2402,0,2.25,1.0093,2.25,2.25
		v7.2318c-0.3623-0.0858-0.7382-0.1648-1.1368-0.2208c-1.5082-0.4295-2.9667-0.5422-3.911,0.133
		c-0.7891,0.3418-3.9297,0.4482-5.4502,0.4995c-0.7734,0.0264-1.4951,0.0513-2.0898,0.0884
		C126.4279,154.6985,125.0498,154.9396,123.6375,155.3224z M164.7529,162.6812c-0.3066-0.6505-0.7249-1.1951-1.2091-1.666
		c-1.1425-1.6384-3.7957-2.8168-6.2411-2.7295c-0.8231,0.0257-1.7217,0.1633-2.6357,0.3973
		c-0.7104,0.0637-1.3467,0.1667-1.8506,0.2921c-1.3291,0.3323-3.1277,1.6516-4.8542,3.166c0.0129-0.144,0.0378-0.2906,0.0378-0.4316
		c0-1.4771-0.8198-2.7656-1.9209-3.8357c-0.5154-0.6262-1.2058-1.2614-1.9199-1.8125v-9.1594c0-1.2407,1.0098-2.25,2.25-2.25
		h17.9795c1.2402,0,2.25,1.0093,2.25,2.25v17.9795c0,1.0078-0.6707,1.8527-1.5852,2.1383
		C165.2788,165.157,165.2103,163.6507,164.7529,162.6812z M140.7256,157.4312c0.5176,0.1562,1.3154,0.73,2.0039,1.3223
		c-0.7559,0.0962-1.5127,0.1323-1.9463,0.0073c-0.249-0.0771-1.0693-0.585-2.6006-1.917
		C139.0664,156.9292,139.9043,157.1826,140.7256,157.4312z M126.7568,189.9299c-0.9366,1.4673-1.9415,3.1299-2.9604,4.8601h-5.2587
		c0.0587-0.0939,0.1134-0.1785,0.1605-0.2451c1.3594-1.2563,3.7324-5.0649,5.0156-8.085c0.3252-0.7651,1.4973-2.2584,3.043-4.0279
		V189.9299z M128.2568,180.7548c0.3613-0.3958,0.7303-0.7958,1.1084-1.2003v6.6249c-0.3433,0.4283-0.7141,0.9297-1.1084,1.4934
		V180.7548z M130.8652,177.9713c1.2502-1.3035,2.509-2.5784,3.6377-3.6886c1.5745-0.4802,3.1177-1.163,4.5723-1.9717h0.2227
		c-0.1559,0.2305-0.304,0.4492-0.4717,0.6973c-2.5658,3.7952-5.9319,8.7722-7.9609,11.3683V177.9713z M150.499,165.0742
		c0.0312-0.1772,0.0859-0.3916,0.1514-0.5874c1.6016-2.104,4.5947-3.1357,6.7461-3.2031c1.7217-0.0469,3.3643,0.9131,3.7021,1.439
		c-0.7188,1.1245-3.7617,3.3945-4.4922,3.605C155.8193,166.377,151.9297,165.5757,150.499,165.0742z M52.041,188.2568
		c-0.1787,0.8569-0.3555,1.7119-0.5605,2.5308c-0.1646,0.6587-0.623,2.0776-1.2792,4.0024H18.4287
		c-1.0029,0-1.8193-0.8159-1.8193-1.8188v-18.8413c0-1.0029,0.8164-1.8188,1.8193-1.8188h45.6846
		c-2.4581,2.4979-5.2954,5.2179-6.8252,5.9824C53.7451,180.0649,52.8398,184.417,52.041,188.2568z M48.3491,200.0991
		c-1.4954,4.2208-3.3408,9.3201-5.1519,14.2794v-12.0294c0-1.2407,1.0098-2.25,2.25-2.25H48.3491z"/>
	<path d="M18.8594,80.8306h19.0791c2.0674,0,3.75-1.6821,3.75-3.75v-8.3311c0-2.0679-1.6826-3.75-3.75-3.75H18.8594
		c-2.0674,0-3.75,1.6821-3.75,3.75v8.3311C15.1094,79.1484,16.792,80.8306,18.8594,80.8306z M16.6094,68.7495
		c0-1.2407,1.0098-2.25,2.25-2.25h19.0791c1.2402,0,2.25,1.0093,2.25,2.25v8.3311c0,1.2407-1.0098,2.25-2.25,2.25H18.8594
		c-1.2402,0-2.25-1.0093-2.25-2.25V68.7495z"/>
	<path d="M46.5791,80.8306h19.0791c2.0674,0,3.75-1.6821,3.75-3.75v-8.3311c0-2.0679-1.6826-3.75-3.75-3.75H46.5791
		c-2.0674,0-3.75,1.6821-3.75,3.75v8.3311C42.8291,79.1484,44.5117,80.8306,46.5791,80.8306z M44.3291,68.7495
		c0-1.2407,1.0098-2.25,2.25-2.25h19.0791c1.2402,0,2.25,1.0093,2.25,2.25v8.3311c0,1.2407-1.0098,2.25-2.25,2.25H46.5791
		c-1.2402,0-2.25-1.0093-2.25-2.25V68.7495z"/>
	<path d="M74.2979,80.8306h19.0801c2.0674,0,3.75-1.6821,3.75-3.75v-8.3311c0-2.0679-1.6826-3.75-3.75-3.75H74.2979
		c-2.0674,0-3.75,1.6821-3.75,3.75v8.3311C70.5479,79.1484,72.2305,80.8306,74.2979,80.8306z M72.0479,68.7495
		c0-1.2407,1.0098-2.25,2.25-2.25h19.0801c1.2402,0,2.25,1.0093,2.25,2.25v8.3311c0,1.2407-1.0098,2.25-2.25,2.25H74.2979
		c-1.2402,0-2.25-1.0093-2.25-2.25V68.7495z"/>
	<path d="M102.0176,80.8306h19.0791c2.0674,0,3.75-1.6821,3.75-3.75v-8.3311c0-2.0679-1.6826-3.75-3.75-3.75h-19.0791
		c-2.0674,0-3.75,1.6821-3.75,3.75v8.3311C98.2676,79.1484,99.9502,80.8306,102.0176,80.8306z M99.7676,68.7495
		c0-1.2407,1.0098-2.25,2.25-2.25h19.0791c1.2402,0,2.25,1.0093,2.25,2.25v8.3311c0,1.2407-1.0098,2.25-2.25,2.25h-19.0791
		c-1.2402,0-2.25-1.0093-2.25-2.25V68.7495z"/>
	<path d="M129.7373,80.8306h19.0791c2.0674,0,3.75-1.6821,3.75-3.75v-8.3311c0-2.0679-1.6826-3.75-3.75-3.75h-19.0791
		c-2.0674,0-3.75,1.6821-3.75,3.75v8.3311C125.9873,79.1484,127.6699,80.8306,129.7373,80.8306z M127.4873,68.7495
		c0-1.2407,1.0098-2.25,2.25-2.25h19.0791c1.2402,0,2.25,1.0093,2.25,2.25v8.3311c0,1.2407-1.0098,2.25-2.25,2.25h-19.0791
		c-1.2402,0-2.25-1.0093-2.25-2.25V68.7495z"/>
	<path d="M157.4561,80.8306h19.0801c2.0674,0,3.75-1.6821,3.75-3.75v-8.3311c0-2.0679-1.6826-3.75-3.75-3.75h-19.0801
		c-2.0674,0-3.75,1.6821-3.75,3.75v8.3311C153.7061,79.1484,155.3887,80.8306,157.4561,80.8306z M155.2061,68.7495
		c0-1.2407,1.0098-2.25,2.25-2.25h19.0801c1.2402,0,2.25,1.0093,2.25,2.25v8.3311c0,1.2407-1.0098,2.25-2.25,2.25h-19.0801
		c-1.2402,0-2.25-1.0093-2.25-2.25V68.7495z"/>
	<path d="M185.1758,80.8306h19.0791c2.0674,0,3.75-1.6821,3.75-3.75v-8.3311c0-2.0679-1.6826-3.75-3.75-3.75h-19.0791
		c-2.0674,0-3.75,1.6821-3.75,3.75v8.3311C181.4258,79.1484,183.1084,80.8306,185.1758,80.8306z M182.9258,68.7495
		c0-1.2407,1.0098-2.25,2.25-2.25h19.0791c1.2402,0,2.25,1.0093,2.25,2.25v8.3311c0,1.2407-1.0098,2.25-2.25,2.25h-19.0791
		c-1.2402,0-2.25-1.0093-2.25-2.25V68.7495z"/>
	<path d="M212.8955,80.8306h19.0791c2.0674,0,3.75-1.6821,3.75-3.75v-8.3311c0-2.0679-1.6826-3.75-3.75-3.75h-19.0791
		c-2.0674,0-3.75,1.6821-3.75,3.75v8.3311C209.1455,79.1484,210.8281,80.8306,212.8955,80.8306z M210.6455,68.7495
		c0-1.2407,1.0098-2.25,2.25-2.25h19.0791c1.2402,0,2.25,1.0093,2.25,2.25v8.3311c0,1.2407-1.0098,2.25-2.25,2.25h-19.0791
		c-1.2402,0-2.25-1.0093-2.25-2.25V68.7495z"/>
	<path d="M240.6143,80.8306h19.0801c2.0674,0,3.75-1.6821,3.75-3.75v-8.3311c0-2.0679-1.6826-3.75-3.75-3.75h-19.0801
		c-2.0674,0-3.75,1.6821-3.75,3.75v8.3311C236.8643,79.1484,238.5469,80.8306,240.6143,80.8306z M238.3643,68.7495
		c0-1.2407,1.0098-2.25,2.25-2.25h19.0801c1.2402,0,2.25,1.0093,2.25,2.25v8.3311c0,1.2407-1.0098,2.25-2.25,2.25h-19.0801
		c-1.2402,0-2.25-1.0093-2.25-2.25V68.7495z"/>
	<path d="M268.334,80.8306h19.0791c2.0674,0,3.75-1.6821,3.75-3.75v-8.3311c0-2.0679-1.6826-3.75-3.75-3.75H268.334
		c-2.0674,0-3.75,1.6821-3.75,3.75v8.3311C264.584,79.1484,266.2666,80.8306,268.334,80.8306z M266.084,68.7495
		c0-1.2407,1.0098-2.25,2.25-2.25h19.0791c1.2402,0,2.25,1.0093,2.25,2.25v8.3311c0,1.2407-1.0098,2.25-2.25,2.25H268.334
		c-1.2402,0-2.25-1.0093-2.25-2.25V68.7495z"/>
	<path d="M296.0537,80.8306h19.0791c2.0674,0,3.75-1.6821,3.75-3.75v-8.3311c0-2.0679-1.6826-3.75-3.75-3.75h-19.0791
		c-2.0674,0-3.75,1.6821-3.75,3.75v8.3311C292.3037,79.1484,293.9863,80.8306,296.0537,80.8306z M293.8037,68.7495
		c0-1.2407,1.0098-2.25,2.25-2.25h19.0791c1.2402,0,2.25,1.0093,2.25,2.25v8.3311c0,1.2407-1.0098,2.25-2.25,2.25h-19.0791
		c-1.2402,0-2.25-1.0093-2.25-2.25V68.7495z"/>
	<path d="M323.7725,80.8306h19.0801c2.0674,0,3.75-1.6821,3.75-3.75v-8.3311c0-2.0679-1.6826-3.75-3.75-3.75h-19.0801
		c-2.0674,0-3.75,1.6821-3.75,3.75v8.3311C320.0225,79.1484,321.7051,80.8306,323.7725,80.8306z M321.5225,68.7495
		c0-1.2407,1.0098-2.25,2.25-2.25h19.0801c1.2402,0,2.25,1.0093,2.25,2.25v8.3311c0,1.2407-1.0098,2.25-2.25,2.25h-19.0801
		c-1.2402,0-2.25-1.0093-2.25-2.25V68.7495z"/>
	<path d="M351.4922,80.8306h19.0791c2.0674,0,3.75-1.6821,3.75-3.75v-8.3311c0-2.0679-1.6826-3.75-3.75-3.75h-19.0791
		c-2.0674,0-3.75,1.6821-3.75,3.75v8.3311C347.7422,79.1484,349.4248,80.8306,351.4922,80.8306z M349.2422,68.7495
		c0-1.2407,1.0098-2.25,2.25-2.25h19.0791c1.2402,0,2.25,1.0093,2.25,2.25v8.3311c0,1.2407-1.0098,2.25-2.25,2.25h-19.0791
		c-1.2402,0-2.25-1.0093-2.25-2.25V68.7495z"/>
	<path d="M379.2119,80.8306h19.0791c2.0674,0,3.75-1.6821,3.75-3.75v-8.3311c0-2.0679-1.6826-3.75-3.75-3.75h-19.0791
		c-2.0674,0-3.75,1.6821-3.75,3.75v8.3311C375.4619,79.1484,377.1445,80.8306,379.2119,80.8306z M376.9619,68.7495
		c0-1.2407,1.0098-2.25,2.25-2.25h19.0791c1.2402,0,2.25,1.0093,2.25,2.25v8.3311c0,1.2407-1.0098,2.25-2.25,2.25h-19.0791
		c-1.2402,0-2.25-1.0093-2.25-2.25V68.7495z"/>
	<path d="M18.8594,113.3135h17.9795c2.0674,0,3.75-1.6821,3.75-3.75V91.584c0-2.0679-1.6826-3.75-3.75-3.75H18.8594
		c-2.0674,0-3.75,1.6821-3.75,3.75v17.9795C15.1094,111.6313,16.792,113.3135,18.8594,113.3135z M16.6094,91.584
		c0-1.2407,1.0098-2.25,2.25-2.25h17.9795c1.2402,0,2.25,1.0093,2.25,2.25v17.9795c0,1.2407-1.0098,2.25-2.25,2.25H18.8594
		c-1.2402,0-2.25-1.0093-2.25-2.25V91.584z"/>
	<path d="M45.4473,113.3135h17.9795c2.0674,0,3.75-1.6821,3.75-3.75V91.584c0-2.0679-1.6826-3.75-3.75-3.75H45.4473
		c-2.0674,0-3.75,1.6821-3.75,3.75v17.9795C41.6973,111.6313,43.3799,113.3135,45.4473,113.3135z M43.1973,91.584
		c0-1.2407,1.0098-2.25,2.25-2.25h17.9795c1.2402,0,2.25,1.0093,2.25,2.25v17.9795c0,1.2407-1.0098,2.25-2.25,2.25H45.4473
		c-1.2402,0-2.25-1.0093-2.25-2.25V91.584z"/>
	<path d="M90.0146,113.3135c2.0674,0,3.75-1.6821,3.75-3.75V91.584c0-2.0679-1.6826-3.75-3.75-3.75H72.0352
		c-2.0674,0-3.75,1.6821-3.75,3.75v17.9795c0,2.0679,1.6826,3.75,3.75,3.75H90.0146z M69.7852,109.5635V91.584
		c0-1.2407,1.0098-2.25,2.25-2.25h17.9795c1.2402,0,2.25,1.0093,2.25,2.25v17.9795c0,1.2407-1.0098,2.25-2.25,2.25H72.0352
		C70.7949,111.8135,69.7852,110.8042,69.7852,109.5635z"/>
	<path d="M116.6025,113.3135c2.0674,0,3.75-1.6821,3.75-3.75V91.584c0-2.0679-1.6826-3.75-3.75-3.75H98.623
		c-2.0674,0-3.75,1.6821-3.75,3.75v17.9795c0,2.0679,1.6826,3.75,3.75,3.75H116.6025z M96.373,109.5635V91.584
		c0-1.2407,1.0098-2.25,2.25-2.25h17.9795c1.2402,0,2.25,1.0093,2.25,2.25v17.9795c0,1.2407-1.0098,2.25-2.25,2.25H98.623
		C97.3828,111.8135,96.373,110.8042,96.373,109.5635z"/>
	<path d="M121.4609,91.584v17.9795c0,2.0679,1.6826,3.75,3.75,3.75h17.9795c2.0674,0,3.75-1.6821,3.75-3.75V91.584
		c0-2.0679-1.6826-3.75-3.75-3.75h-17.9795C123.1436,87.834,121.4609,89.5161,121.4609,91.584z M122.9609,91.584
		c0-1.2407,1.0098-2.25,2.25-2.25h17.9795c1.2402,0,2.25,1.0093,2.25,2.25v17.9795c0,1.2407-1.0098,2.25-2.25,2.25h-17.9795
		c-1.2402,0-2.25-1.0093-2.25-2.25V91.584z"/>
	<path d="M169.7793,113.3135c2.0674,0,3.75-1.6821,3.75-3.75V91.584c0-2.0679-1.6826-3.75-3.75-3.75h-17.9795
		c-2.0674,0-3.75,1.6821-3.75,3.75v17.9795c0,2.0679,1.6826,3.75,3.75,3.75H169.7793z M149.5498,109.5635V91.584
		c0-1.2407,1.0098-2.25,2.25-2.25h17.9795c1.2402,0,2.25,1.0093,2.25,2.25v17.9795c0,1.2407-1.0098,2.25-2.25,2.25h-17.9795
		C150.5596,111.8135,149.5498,110.8042,149.5498,109.5635z"/>
	<path d="M196.3672,87.834h-17.9795c-2.0674,0-3.75,1.6821-3.75,3.75v17.9795c0,2.0679,1.6826,3.75,3.75,3.75h17.9795
		c2.0674,0,3.75-1.6821,3.75-3.75V91.584C200.1172,89.5161,198.4346,87.834,196.3672,87.834z M198.6172,109.5635
		c0,1.2407-1.0098,2.25-2.25,2.25h-17.9795c-1.2402,0-2.25-1.0093-2.25-2.25V91.584c0-1.2407,1.0098-2.25,2.25-2.25h17.9795
		c1.2402,0,2.25,1.0093,2.25,2.25V109.5635z"/>
	<path d="M222.9551,87.834h-17.9795c-2.0674,0-3.75,1.6821-3.75,3.75v17.9795c0,2.0679,1.6826,3.75,3.75,3.75h17.9795
		c2.0674,0,3.75-1.6821,3.75-3.75V91.584C226.7051,89.5161,225.0225,87.834,222.9551,87.834z M225.2051,109.5635
		c0,1.2407-1.0098,2.25-2.25,2.25h-17.9795c-1.2402,0-2.25-1.0093-2.25-2.25V91.584c0-1.2407,1.0098-2.25,2.25-2.25h17.9795
		c1.2402,0,2.25,1.0093,2.25,2.25V109.5635z"/>
	<path d="M249.543,113.3135c2.0674,0,3.75-1.6821,3.75-3.75V91.584c0-2.0679-1.6826-3.75-3.75-3.75h-17.9795
		c-2.0674,0-3.75,1.6821-3.75,3.75v17.9795c0,2.0679,1.6826,3.75,3.75,3.75H249.543z M229.3135,109.5635V91.584
		c0-1.2407,1.0098-2.25,2.25-2.25h17.9795c1.2402,0,2.25,1.0093,2.25,2.25v17.9795c0,1.2407-1.0098,2.25-2.25,2.25h-17.9795
		C230.3232,111.8135,229.3135,110.8042,229.3135,109.5635z"/>
	<path d="M276.1309,113.3135c2.0674,0,3.75-1.6821,3.75-3.75V91.584c0-2.0679-1.6826-3.75-3.75-3.75h-17.9795
		c-2.0674,0-3.75,1.6821-3.75,3.75v17.9795c0,2.0679,1.6826,3.75,3.75,3.75H276.1309z M255.9014,109.5635V91.584
		c0-1.2407,1.0098-2.25,2.25-2.25h17.9795c1.2402,0,2.25,1.0093,2.25,2.25v17.9795c0,1.2407-1.0098,2.25-2.25,2.25h-17.9795
		C256.9111,111.8135,255.9014,110.8042,255.9014,109.5635z"/>
	<path d="M302.7188,113.3135c2.0674,0,3.75-1.6821,3.75-3.75V91.584c0-2.0679-1.6826-3.75-3.75-3.75h-17.9795
		c-2.0674,0-3.75,1.6821-3.75,3.75v17.9795c0,2.0679,1.6826,3.75,3.75,3.75H302.7188z M282.4893,109.5635V91.584
		c0-1.2407,1.0098-2.25,2.25-2.25h17.9795c1.2402,0,2.25,1.0093,2.25,2.25v17.9795c0,1.2407-1.0098,2.25-2.25,2.25h-17.9795
		C283.499,111.8135,282.4893,110.8042,282.4893,109.5635z"/>
	<path d="M329.3066,113.3135c2.0674,0,3.75-1.6821,3.75-3.75V91.584c0-2.0679-1.6826-3.75-3.75-3.75h-17.9795
		c-2.0674,0-3.75,1.6821-3.75,3.75v17.9795c0,2.0679,1.6826,3.75,3.75,3.75H329.3066z M309.0771,109.5635V91.584
		c0-1.2407,1.0098-2.25,2.25-2.25h17.9795c1.2402,0,2.25,1.0093,2.25,2.25v17.9795c0,1.2407-1.0098,2.25-2.25,2.25h-17.9795
		C310.0869,111.8135,309.0771,110.8042,309.0771,109.5635z"/>
	<path d="M355.8945,113.3135c2.0674,0,3.75-1.6821,3.75-3.75V91.584c0-2.0679-1.6826-3.75-3.75-3.75H337.915
		c-2.0674,0-3.75,1.6821-3.75,3.75v17.9795c0,2.0679,1.6826,3.75,3.75,3.75H355.8945z M335.665,109.5635V91.584
		c0-1.2407,1.0098-2.25,2.25-2.25h17.9795c1.2402,0,2.25,1.0093,2.25,2.25v17.9795c0,1.2407-1.0098,2.25-2.25,2.25H337.915
		C336.6748,111.8135,335.665,110.8042,335.665,109.5635z"/>
	<path d="M398.7217,87.834h-34.6494c-1.8301,0-3.3193,1.4893-3.3193,3.3193v18.8408c0,1.8301,1.4893,3.3193,3.3193,3.3193h34.6494
		c1.8301,0,3.3193-1.4893,3.3193-3.3193V91.1533C402.041,89.3232,400.5518,87.834,398.7217,87.834z M400.541,109.9941
		c0,1.0034-0.8164,1.8193-1.8193,1.8193h-34.6494c-1.0029,0-1.8193-0.8159-1.8193-1.8193V91.1533
		c0-1.0034,0.8164-1.8193,1.8193-1.8193h34.6494c1.0029,0,1.8193,0.8159,1.8193,1.8193V109.9941z"/>
	<path d="M398.291,115.4932h-17.9795c-2.0674,0-3.75,1.6821-3.75,3.75v17.9795c0,2.0679,1.6826,3.75,3.75,3.75h17.9795
		c2.0674,0,3.75-1.6821,3.75-3.75v-17.9795C402.041,117.1753,400.3584,115.4932,398.291,115.4932z M400.541,137.2227
		c0,1.2407-1.0098,2.25-2.25,2.25h-17.9795c-1.2402,0-2.25-1.0093-2.25-2.25v-17.9795c0-1.2407,1.0098-2.25,2.25-2.25h17.9795
		c1.2402,0,2.25,1.0093,2.25,2.25V137.2227z"/>
	<path d="M375.4531,137.2227v-17.9795c0-2.0679-1.6826-3.75-3.75-3.75h-17.9795c-2.0674,0-3.75,1.6821-3.75,3.75v17.9795
		c0,2.0679,1.6826,3.75,3.75,3.75h17.9795C373.7705,140.9727,375.4531,139.2905,375.4531,137.2227z M351.4736,137.2227v-17.9795
		c0-1.2407,1.0098-2.25,2.25-2.25h17.9795c1.2402,0,2.25,1.0093,2.25,2.25v17.9795c0,1.2407-1.0098,2.25-2.25,2.25h-17.9795
		C352.4834,139.4727,351.4736,138.4634,351.4736,137.2227z"/>
	<path d="M345.1152,115.4932h-17.9795c-2.0674,0-3.75,1.6821-3.75,3.75v17.9795c0,2.0679,1.6826,3.75,3.75,3.75h17.9795
		c2.0674,0,3.75-1.6821,3.75-3.75v-17.9795C348.8652,117.1753,347.1826,115.4932,345.1152,115.4932z M347.3652,137.2227
		c0,1.2407-1.0098,2.25-2.25,2.25h-17.9795c-1.2402,0-2.25-1.0093-2.25-2.25v-17.9795c0-1.2407,1.0098-2.25,2.25-2.25h17.9795
		c1.2402,0,2.25,1.0093,2.25,2.25V137.2227z"/>
	<path d="M318.5273,115.4932h-17.9795c-2.0674,0-3.75,1.6821-3.75,3.75v17.9795c0,2.0679,1.6826,3.75,3.75,3.75h17.9795
		c2.0674,0,3.75-1.6821,3.75-3.75v-17.9795C322.2773,117.1753,320.5947,115.4932,318.5273,115.4932z M320.7773,137.2227
		c0,1.2407-1.0098,2.25-2.25,2.25h-17.9795c-1.2402,0-2.25-1.0093-2.25-2.25v-17.9795c0-1.2407,1.0098-2.25,2.25-2.25h17.9795
		c1.2402,0,2.25,1.0093,2.25,2.25V137.2227z"/>
	<path d="M291.9395,115.4932H273.96c-2.0674,0-3.75,1.6821-3.75,3.75v17.9795c0,2.0679,1.6826,3.75,3.75,3.75h17.9795
		c2.0674,0,3.75-1.6821,3.75-3.75v-17.9795C295.6895,117.1753,294.0068,115.4932,291.9395,115.4932z M294.1895,137.2227
		c0,1.2407-1.0098,2.25-2.25,2.25H273.96c-1.2402,0-2.25-1.0093-2.25-2.25v-17.9795c0-1.2407,1.0098-2.25,2.25-2.25h17.9795
		c1.2402,0,2.25,1.0093,2.25,2.25V137.2227z"/>
	<path d="M265.3506,115.4932h-17.9785c-2.0674,0-3.75,1.6821-3.75,3.75v17.9795c0,2.0679,1.6826,3.75,3.75,3.75h17.9785
		c2.0674,0,3.75-1.6821,3.75-3.75v-17.9795C269.1006,117.1753,267.418,115.4932,265.3506,115.4932z M267.6006,137.2227
		c0,1.2407-1.0098,2.25-2.25,2.25h-17.9785c-1.2402,0-2.25-1.0093-2.25-2.25v-17.9795c0-1.2407,1.0098-2.25,2.25-2.25h17.9785
		c1.2402,0,2.25,1.0093,2.25,2.25V137.2227z"/>
	<path d="M217.0332,119.2432v17.9795c0,2.0679,1.6826,3.75,3.75,3.75h17.9795c2.0674,0,3.75-1.6821,3.75-3.75v-17.9795
		c0-2.0679-1.6826-3.75-3.75-3.75h-17.9795C218.7158,115.4932,217.0332,117.1753,217.0332,119.2432z M241.0127,119.2432v17.9795
		c0,1.2407-1.0098,2.25-2.25,2.25h-17.9795c-1.2402,0-2.25-1.0093-2.25-2.25v-17.9795c0-1.2407,1.0098-2.25,2.25-2.25h17.9795
		C240.0029,116.9932,241.0127,118.0024,241.0127,119.2432z"/>
	<path d="M190.4453,119.2432v17.9795c0,2.0679,1.6826,3.75,3.75,3.75h17.9795c2.0674,0,3.75-1.6821,3.75-3.75v-17.9795
		c0-2.0679-1.6826-3.75-3.75-3.75h-17.9795C192.1279,115.4932,190.4453,117.1753,190.4453,119.2432z M214.4248,119.2432v17.9795
		c0,1.2407-1.0098,2.25-2.25,2.25h-17.9795c-1.2402,0-2.25-1.0093-2.25-2.25v-17.9795c0-1.2407,1.0098-2.25,2.25-2.25h17.9795
		C213.415,116.9932,214.4248,118.0024,214.4248,119.2432z"/>
	<path d="M189.3369,137.2227v-17.9795c0-2.0679-1.6826-3.75-3.75-3.75h-17.9795c-2.0674,0-3.75,1.6821-3.75,3.75v17.9795
		c0,2.0679,1.6826,3.75,3.75,3.75h17.9795C187.6543,140.9727,189.3369,139.2905,189.3369,137.2227z M165.3574,137.2227v-17.9795
		c0-1.2407,1.0098-2.25,2.25-2.25h17.9795c1.2402,0,2.25,1.0093,2.25,2.25v17.9795c0,1.2407-1.0098,2.25-2.25,2.25h-17.9795
		C166.3672,139.4727,165.3574,138.4634,165.3574,137.2227z"/>
	<path d="M158.999,115.4932h-17.9795c-2.0674,0-3.75,1.6821-3.75,3.75v17.9795c0,2.0679,1.6826,3.75,3.75,3.75h17.9795
		c2.0674,0,3.75-1.6821,3.75-3.75v-17.9795C162.749,117.1753,161.0664,115.4932,158.999,115.4932z M161.249,137.2227
		c0,1.2407-1.0098,2.25-2.25,2.25h-17.9795c-1.2402,0-2.25-1.0093-2.25-2.25v-17.9795c0-1.2407,1.0098-2.25,2.25-2.25h17.9795
		c1.2402,0,2.25,1.0093,2.25,2.25V137.2227z"/>
	<path d="M132.4111,115.4932h-17.9795c-2.0674,0-3.75,1.6821-3.75,3.75v17.9795c0,2.0679,1.6826,3.75,3.75,3.75h17.9795
		c2.0674,0,3.75-1.6821,3.75-3.75v-17.9795C136.1611,117.1753,134.4785,115.4932,132.4111,115.4932z M134.6611,137.2227
		c0,1.2407-1.0098,2.25-2.25,2.25h-17.9795c-1.2402,0-2.25-1.0093-2.25-2.25v-17.9795c0-1.2407,1.0098-2.25,2.25-2.25h17.9795
		c1.2402,0,2.25,1.0093,2.25,2.25V137.2227z"/>
	<path d="M105.8232,115.4932H87.8438c-2.0674,0-3.75,1.6821-3.75,3.75v17.9795c0,2.0679,1.6826,3.75,3.75,3.75h17.9795
		c2.0674,0,3.75-1.6821,3.75-3.75v-17.9795C109.5732,117.1753,107.8906,115.4932,105.8232,115.4932z M108.0732,137.2227
		c0,1.2407-1.0098,2.25-2.25,2.25H87.8438c-1.2402,0-2.25-1.0093-2.25-2.25v-17.9795c0-1.2407,1.0098-2.25,2.25-2.25h17.9795
		c1.2402,0,2.25,1.0093,2.25,2.25V137.2227z"/>
	<path d="M79.2354,115.4932H61.2559c-2.0674,0-3.75,1.6821-3.75,3.75v17.9795c0,2.0679,1.6826,3.75,3.75,3.75h17.9795
		c2.0674,0,3.75-1.6821,3.75-3.75v-17.9795C82.9854,117.1753,81.3027,115.4932,79.2354,115.4932z M81.4854,137.2227
		c0,1.2407-1.0098,2.25-2.25,2.25H61.2559c-1.2402,0-2.25-1.0093-2.25-2.25v-17.9795c0-1.2407,1.0098-2.25,2.25-2.25h17.9795
		c1.2402,0,2.25,1.0093,2.25,2.25V137.2227z"/>
	<path d="M18.4287,140.9727h34.6494c1.8301,0,3.3193-1.4893,3.3193-3.3193V118.812c0-1.8301-1.4893-3.3188-3.3193-3.3188H18.4287
		c-1.8301,0-3.3193,1.4888-3.3193,3.3188v18.8413C15.1094,139.4834,16.5986,140.9727,18.4287,140.9727z M16.6094,118.812
		c0-1.0029,0.8164-1.8188,1.8193-1.8188h34.6494c1.0029,0,1.8193,0.8159,1.8193,1.8188v18.8413
		c0,1.0034-0.8164,1.8193-1.8193,1.8193H18.4287c-1.0029,0-1.8193-0.8159-1.8193-1.8193V118.812z"/>
	<path d="M244.1533,143.1519h-17.9795c-2.0674,0-3.75,1.6821-3.75,3.75v17.9795c0,2.0679,1.6826,3.75,3.75,3.75h17.9795
		c2.0674,0,3.75-1.6821,3.75-3.75v-17.9795C247.9033,144.834,246.2207,143.1519,244.1533,143.1519z M246.4033,164.8813
		c0,1.2407-1.0098,2.25-2.25,2.25h-17.9795c-1.2402,0-2.25-1.0093-2.25-2.25v-17.9795c0-1.2407,1.0098-2.25,2.25-2.25h17.9795
		c1.2402,0,2.25,1.0093,2.25,2.25V164.8813z"/>
	<path d="M217.5654,143.1519h-17.9795c-2.0674,0-3.75,1.6821-3.75,3.75v17.9795c0,2.0679,1.6826,3.75,3.75,3.75h17.9795
		c2.0674,0,3.75-1.6821,3.75-3.75v-17.9795C221.3154,144.834,219.6328,143.1519,217.5654,143.1519z M219.8154,164.8813
		c0,1.2407-1.0098,2.25-2.25,2.25h-17.9795c-1.2402,0-2.25-1.0093-2.25-2.25v-17.9795c0-1.2407,1.0098-2.25,2.25-2.25h17.9795
		c1.2402,0,2.25,1.0093,2.25,2.25V164.8813z"/>
	<path d="M194.7266,164.8813v-17.9795c0-2.0679-1.6826-3.75-3.75-3.75h-17.9795c-2.0674,0-3.75,1.6821-3.75,3.75v17.9795
		c0,2.0679,1.6826,3.75,3.75,3.75h17.9795C193.0439,168.6313,194.7266,166.9492,194.7266,164.8813z M170.7471,164.8813v-17.9795
		c0-1.2407,1.0098-2.25,2.25-2.25h17.9795c1.2402,0,2.25,1.0093,2.25,2.25v17.9795c0,1.2407-1.0098,2.25-2.25,2.25h-17.9795
		C171.7568,167.1313,170.7471,166.1221,170.7471,164.8813z"/>
	<path d="M18.4287,168.6313h39.918c1.8301,0,3.3193-1.4893,3.3193-3.3193v-18.8408c0-1.8301-1.4893-3.3193-3.3193-3.3193h-39.918
		c-1.8301,0-3.3193,1.4893-3.3193,3.3193v18.8408C15.1094,167.1421,16.5986,168.6313,18.4287,168.6313z M16.6094,146.4712
		c0-1.0034,0.8164-1.8193,1.8193-1.8193h39.918c1.0029,0,1.8193,0.8159,1.8193,1.8193v18.8408c0,1.0034-0.8164,1.8193-1.8193,1.8193
		h-39.918c-1.0029,0-1.8193-0.8159-1.8193-1.8193V146.4712z"/>
	<path d="M398.7217,143.1519h-39.918c-1.8301,0-3.3193,1.4893-3.3193,3.3193v18.8408c0,1.8301,1.4893,3.3193,3.3193,3.3193h39.918
		c1.8301,0,3.3193-1.4893,3.3193-3.3193v-18.8408C402.041,144.6411,400.5518,143.1519,398.7217,143.1519z M400.541,165.312
		c0,1.0034-0.8164,1.8193-1.8193,1.8193h-39.918c-1.0029,0-1.8193-0.8159-1.8193-1.8193v-18.8408
		c0-1.0034,0.8164-1.8193,1.8193-1.8193h39.918c1.0029,0,1.8193,0.8159,1.8193,1.8193V165.312z"/>
	<path d="M230.8594,170.811h-17.9795c-2.0674,0-3.75,1.6821-3.75,3.75v17.979c0,2.0679,1.6826,3.75,3.75,3.75h17.9795
		c2.0674,0,3.75-1.6821,3.75-3.75v-17.979C234.6094,172.4932,232.9268,170.811,230.8594,170.811z M233.1094,192.54
		c0,1.2407-1.0098,2.25-2.25,2.25h-17.9795c-1.2402,0-2.25-1.0093-2.25-2.25v-17.979c0-1.2407,1.0098-2.25,2.25-2.25h17.9795
		c1.2402,0,2.25,1.0093,2.25,2.25V192.54z"/>
	<path d="M204.2705,170.811H186.292c-2.0674,0-3.75,1.6821-3.75,3.75v17.979c0,2.0679,1.6826,3.75,3.75,3.75h17.9785
		c2.0674,0,3.75-1.6821,3.75-3.75v-17.979C208.0205,172.4932,206.3379,170.811,204.2705,170.811z M206.5205,192.54
		c0,1.2407-1.0098,2.25-2.25,2.25H186.292c-1.2402,0-2.25-1.0093-2.25-2.25v-17.979c0-1.2407,1.0098-2.25,2.25-2.25h17.9785
		c1.2402,0,2.25,1.0093,2.25,2.25V192.54z"/>
	<path d="M18.8594,224.0786h17.9795c2.0674,0,3.75-1.6821,3.75-3.75v-17.9795c0-2.0679-1.6826-3.75-3.75-3.75H18.8594
		c-2.0674,0-3.75,1.6821-3.75,3.75v17.9795C15.1094,222.3965,16.792,224.0786,18.8594,224.0786z M16.6094,202.3491
		c0-1.2407,1.0098-2.25,2.25-2.25h17.9795c1.2402,0,2.25,1.0093,2.25,2.25v17.9795c0,1.2407-1.0098,2.25-2.25,2.25H18.8594
		c-1.2402,0-2.25-1.0093-2.25-2.25V202.3491z"/>
	<path d="M398.291,211.4531h-17.9795c-2.0674,0-3.75,1.6821-3.75,3.75v5.1255c0,2.0679,1.6826,3.75,3.75,3.75h17.9795
		c2.0674,0,3.75-1.6821,3.75-3.75v-5.1255C402.041,213.1353,400.3584,211.4531,398.291,211.4531z M400.541,220.3286
		c0,1.2407-1.0098,2.25-2.25,2.25h-17.9795c-1.2402,0-2.25-1.0093-2.25-2.25v-5.1255c0-1.2407,1.0098-2.25,2.25-2.25h17.9795
		c1.2402,0,2.25,1.0093,2.25,2.25V220.3286z"/>
	<path fill="#FFFFFF" d="M123.0977,305.4678c0.251-0.1445,0.4375-0.2461,0.5576-0.333c0.7461-0.5967,6.5674-4.6567,16.0039-11.231
		c8.7246-6.0781,18.6133-12.9678,21.0225-14.7539c3.2793-2.4312,5.4717-6.2061,6.7021-11.5415
		c0.5918-2.561,3.959-11.1255,7.2158-19.4077c2.1152-5.3799,4.1133-10.4614,4.6523-12.1714
		c1.166-3.708-0.0176-9.6035-1.1143-11.0469c-1.4861-1.9551-3.2605-7.3608-3.8529-10.8177
		c-1.2567-0.1386-2.6652-0.6143-3.2965-1.1823c-1.0742-0.9668-2.417-4.6152-2.1592-8.3604
		c0.1572-2.2796,1.7114-4.6854,3.1493-6.4539c-0.7056-0.0108-2.1075,0.3647-4.6473,2.4026
		c-11.7031,9.3911-6.5049,31.5552-6.4512,31.7783c0.0356,0.1472,0.0354,0.2948,0.0376,0.442
		c0.4169,0.1538,0.8044,0.2753,1.0552,0.3066l-0.1992,1.5879c-0.4141-0.0519-0.9612-0.2252-1.4871-0.4215
		c-0.074,0.0695-0.1362,0.1491-0.2219,0.2076c-2.5723,1.7573-8.6953,13.7559-8.9736,15.748
		c0.0049,0.9185-0.3711,1.8091-1.0811,2.478c-1.3184,1.2412-3.2881,1.1904-3.6738,1.1665c-0.5518-0.0332-1.0645-0.2935-1.418-0.7183
		c-1.9697-2.3701-6.8799-2.7964-9.8145-3.0513c-1.9023-0.1655-2.8574-0.248-3.5869-0.8315
		c-2.1553-1.7246-1.4971-6.6714-0.5293-9.5752c1.0283-3.0835,9.7891-25.7065,13.8291-33.1768
		c3.8164-7.0542,6.8828-15.0942,6.9131-15.1748c0.0312-0.082,0.0684-0.1626,0.1104-0.2397
		c5.0658-9.3877,8.516-19.4354,9.2622-24.2005c-1.5212,1.2442-3.25,2.3113-4.1821,2.4149
		c-0.0547,0.0063-0.1221,0.0093-0.2012,0.0093c-1.4622,0-6.9502-0.9972-8.4011-2.0209c-0.8164,0.8107-1.6528,1.6835-2.4612,2.5771
		c-0.3643,0.4131-2.1455,3.0474-3.7168,5.3721c-3.2607,4.8242-7.3203,10.8281-9.2617,12.9648
		c-1.9736,2.1699-6.2393,9.6104-8.29,13.186c-0.3984,0.6948-0.7354,1.2817-0.9873,1.7144
		c-1.6602,2.8462-17.2207,28.021-17.8828,29.0913l-3.4023-2.1035c0.0769-0.1243,3.7333-6.0395,7.7266-12.5168
		c-0.6901-0.4152-1.6105-0.9354-2.5078-1.4045c-0.6465-0.3384-1.0586-1.0024-1.0732-1.7319
		c-0.0898-4.4536,8.0127-21.6064,9.543-22.8584c0.5566-0.4893,2.7207-3.6152,4.0283-6.6943
		c1.4336-3.3726,10.2734-12.1069,12.0312-13.8232c0.2412-0.2358,0.5381-0.4067,0.8633-0.4966
		C139.2129,168.834,144,163.6431,144,161.7095c-0.0029-0.0355-0.0229-0.0757-0.0332-0.1133
		c-0.7314,0.1329-1.5741,0.2422-2.3867,0.2422c-0.582,0-1.1455-0.0557-1.6318-0.1963c-0.3757-0.1088-1.4874-0.4354-4.8275-3.5177
		c-1.3557,0.2538-3.1449,0.3415-5.4332,0.4191c-0.7305,0.0244-1.4131,0.0474-1.9746,0.0825
		c-2.3379,0.146-6.0479,1.3579-6.9639,2.2749c-1.6035,1.6025-15.2803,12.2681-18.2021,13.4551
		c-1.6611,0.6743-4.9092,5.2715-5.8584,7.8784c-1.0205,2.8076-13.3027,29.0518-14.3555,31.2808
		c-1.5137,3.2036-5.25,6.126-5.6709,6.4482l-2.4346-3.1738c0.9326-0.7173,3.5566-3.0103,4.4883-4.9824
		c1.5576-3.2993,13.3105-28.4541,14.2139-30.9399c1.0039-2.7578,4.7764-8.8623,8.1113-10.2173
		c1.6733-0.6794,10.1113-7.0781,14.4285-10.5299l-1.1589-0.4091c-1.0222-0.3607-2.152-1.3855-2.9617-2.2323
		c-0.4001,0.049-0.8302,0.1009-1.2952,0.1566c-3.5693,0.4277-8.459,1.0132-10.7148,1.8281
		c-3.7236,1.3442-15.708,11.3501-17.6514,13.1558c-0.5498,0.5103-1.2979,1.063-2.1631,1.7021
		c-1.9922,1.4722-4.7207,3.4878-6.3203,6.0015c-1.4062,2.2095-4.3359,12.3701-6.4746,19.7886
		c-1.4736,5.1108-2.7461,9.5249-3.5781,11.7446c-2.4717,6.5908-7.5518,8.0693-7.7666,8.1294l-1.0938-3.8477
		c0.1367-0.042,3.3887-1.082,5.1143-5.686c0.7783-2.0737,2.0908-6.6274,3.4805-11.4482
		c3.0615-10.6172,5.3516-18.3262,6.9434-20.8281c1.999-3.1411,5.0732-5.4126,7.3184-7.0708
		c0.7686-0.5684,1.4326-1.0591,1.8184-1.4165c0.4271-0.3969,2.7971-2.4551,5.7959-4.8875c-1.406,0.2003-2.856,0.3889-4.2783,0.5662
		l-0.2666,0.0332c-2.2705,0.2842-6.4541,2.8701-8.167,4.4751c-0.4395,0.4121-1.2715,1.2832-2.2354,2.2915
		c-4.1807,4.3755-8.1475,8.4097-10.7373,9.7046c-1.8105,0.9053-2.4766,4.1055-3.1201,7.2002
		c-0.1895,0.9097-0.3789,1.8169-0.5957,2.686c-1.0859,4.3433-12.7822,35.8936-13.2793,37.2344
		c-0.0186,0.0513-0.04,0.1016-0.0625,0.1504c-1.4043,3.0088-2.3516,13.499,1.1104,46.3892l0.0186,0.1748
		c0.7341,6.9785-1.838,18.7386-3.7399,25.6949c4.549,2.9336,19.6863,12.3095,29.8512,14.0043l-0.3281,1.9727
		c-10.3107-1.7186-24.9198-10.6371-30.0938-13.9605c-0.2351,0.7998-0.4506,1.4945-0.6348,2.0519
		c3.1708,2.2896,12.427,8.8344,16.3184,10.0893l-0.6133,1.9033c-4.0453-1.3045-12.9058-7.5114-16.4705-10.0767
		c-2.6841,5.493-19.1438,35.9778-23.1453,43.3804c3.8853,2.6478,14.2938,8.8224,31.8534,12.8465
		c19.321,4.4276,31.1832-1.6915,34.3915-3.691l-1.2493-0.7551C96.79,330.2217,111.5303,312.1548,123.0977,305.4678z"/>
	<path fill="#FFFFFF" d="M174.6963,199.5913c-1.7256,2.0059-2.7832,3.916-2.875,5.2373c-0.2002,2.9209,0.8291,5.3882,1.1855,5.9199
		c0.3721,0.2046,1.2891,0.4365,1.8496,0.4648C175.2148,209.2354,175.5518,202.7944,174.6963,199.5913z"/>
	<path fill="#FFFFFF" d="M161.0986,162.7227c-0.3379-0.5259-1.9805-1.4858-3.7021-1.439c-2.1514,0.0674-5.1445,1.0991-6.7461,3.2031
		c-0.0654,0.1958-0.1201,0.4102-0.1514,0.5874c1.4307,0.5015,5.3203,1.3027,6.1074,1.2534
		C157.3369,166.1172,160.3799,163.8472,161.0986,162.7227z"/>
	<path fill="#FFFFFF" d="M118.1353,157.8795c0.5491-0.4883,1.2771-0.934,2.1051-1.3286c-0.9349-0.5843-1.9191-1.0446-2.5714-1.0446
		c-0.0254,0-0.0508,0.0005-0.0742,0.002c-0.8428,0.0483-2.1455,0.3306-3.3262,0.6294c0.418,0.376,0.7959,0.6577,1.04,0.7441
		L118.1353,157.8795z"/>
	<path fill="#FFFFFF" d="M140.7832,158.7607c0.4336,0.125,1.1904,0.0889,1.9463-0.0073c-0.6885-0.5923-1.4863-1.166-2.0039-1.3223
		c-0.8213-0.2485-1.6592-0.502-2.543-0.5874C139.7139,158.1758,140.5342,158.6836,140.7832,158.7607z"/>
	<path fill="#FFFFFF" d="M363.2422,317.4619l-0.6133-1.9033c3.8911-1.2548,13.1465-7.7989,16.3176-10.0889
		c-0.1841-0.5574-0.3994-1.2521-0.6344-2.052c-5.1744,3.3235-19.7831,12.2417-30.0934,13.9602l-0.3281-1.9727
		c10.1647-1.6948,25.3015-11.0702,29.8508-14.0042c-1.9014-6.9563-4.4736-18.7165-3.7395-25.6951l0.0186-0.1748
		c3.4619-32.8901,2.5146-43.3804,1.1104-46.3892c-0.0225-0.0488-0.0439-0.0991-0.0625-0.1504
		c-0.4971-1.3408-12.1934-32.8911-13.2793-37.2344c-0.2168-0.8691-0.4062-1.7764-0.5957-2.686
		c-0.6436-3.0947-1.3096-6.2949-3.1201-7.2007c-2.5898-1.2944-6.5566-5.3286-10.7373-9.7041
		c-0.9639-1.0083-1.7959-1.8794-2.2363-2.292c-1.7119-1.6045-5.8955-4.1904-8.166-4.4746l-0.2666-0.0332
		c-1.4222-0.1773-2.8723-0.3659-4.2781-0.5662c2.9989,2.4325,5.3691,4.491,5.7966,4.888c0.3848,0.3569,1.0488,0.8477,1.8174,1.416
		c2.2451,1.6582,5.3193,3.9297,7.3184,7.0708c1.5918,2.502,3.8818,10.2109,6.9434,20.8281
		c1.3896,4.8208,2.7021,9.3745,3.4805,11.4482c1.7256,4.604,4.9775,5.644,5.1143,5.686l-1.0938,3.8477
		c-0.2148-0.0601-5.2949-1.5386-7.7666-8.1294c-0.832-2.2197-2.1045-6.6338-3.5781-11.7446
		c-2.1387-7.4185-5.0684-17.5791-6.4746-19.7886c-1.5996-2.5137-4.3281-4.5293-6.3203-6.0015
		c-0.8652-0.6392-1.6133-1.1919-2.1621-1.7017c-1.9443-1.8062-13.9287-11.812-17.6514-13.1558
		c-2.2568-0.8154-7.1465-1.4009-10.7158-1.8286c-0.465-0.0557-0.895-0.1076-1.2952-0.1566
		c-0.8097,0.8468-1.9395,1.8716-2.9617,2.2323l-1.1592,0.4091c4.3167,3.4513,12.7554,9.8503,14.4287,10.5298
		c3.335,1.355,7.1074,7.4595,8.1104,10.2163c0.9043,2.4868,12.6572,27.6416,14.2148,30.9419
		c0.9316,1.9712,3.5566,4.2642,4.4893,4.981l-2.4336,3.1748c-0.4219-0.3228-4.1592-3.2451-5.6729-6.4478
		c-1.0518-2.23-13.335-28.4741-14.3564-31.2827c-0.9482-2.606-4.1963-7.2031-5.8574-7.8774
		c-2.9219-1.187-16.5986-11.8525-18.2012-13.4541c-0.917-0.918-4.627-2.1299-6.9648-2.2759
		c-0.5615-0.0352-1.2441-0.0581-1.9746-0.0825c-2.2881-0.0776-4.0773-0.1652-5.4329-0.419
		c-3.3406,3.0823-4.4521,3.4088-4.8279,3.5176c-0.4863,0.1406-1.0498,0.1963-1.6318,0.1963c-0.8123,0-1.6545-0.1091-2.3857-0.242
		c-0.0107,0.0388-0.0311,0.0804-0.0342,0.117c0,1.9297,4.7871,7.1206,11.0732,8.8623c0.3252,0.0898,0.6221,0.2607,0.8633,0.4966
		c1.7578,1.7163,10.5977,10.4507,12.0312,13.8223c1.3076,3.0801,3.4717,6.2061,4.0352,6.7012
		c1.5234,1.2461,9.626,18.3989,9.5361,22.8525c-0.0156,0.7295-0.4268,1.3936-1.0732,1.7319
		c-0.8936,0.4672-1.8102,0.9853-2.5063,1.407c3.9927,6.4764,7.6482,12.3901,7.7251,12.5144l-3.4023,2.1035
		c-0.6621-1.0703-16.2227-26.2451-17.8828-29.0918c-0.252-0.4321-0.5889-1.019-0.9873-1.7139
		c-2.0508-3.5757-6.3164-11.0161-8.2891-13.1855c-1.9424-2.1372-6.002-8.1411-9.2627-12.9653
		c-1.5713-2.3247-3.3525-4.959-3.7188-5.374c-0.8076-0.8928-1.6432-1.765-2.4592-2.5751c-1.4508,1.0237-6.939,2.0209-8.4011,2.0209
		c-0.0791,0-0.1465-0.0029-0.2012-0.0093c-0.9326-0.1036-2.6626-1.1717-4.1844-2.4166c0.7462,4.7601,4.197,14.8115,9.2645,24.2023
		c0.042,0.0771,0.0791,0.1577,0.1104,0.2397c0.0303,0.0806,3.0967,8.1206,6.9131,15.1748
		c4.04,7.4702,12.8008,30.0933,13.8291,33.1763c0.9678,2.9043,1.626,7.8511-0.5283,9.5752c-0.7305,0.584-1.6855,0.6665-3.5879,0.832
		c-2.9346,0.2549-7.8447,0.6812-9.8145,3.0513c-0.3535,0.4248-0.8662,0.6851-1.418,0.7183
		c-0.3809,0.0239-2.3555,0.0752-3.6738-1.1665c-0.71-0.6689-1.0859-1.5596-1.0859-2.5762
		c-0.2734-1.894-6.3965-13.8926-8.9688-15.6499c-0.0857-0.0585-0.1479-0.1382-0.2219-0.2076
		c-0.5259,0.1964-1.073,0.3696-1.4871,0.4215l-0.1992-1.5879c0.251-0.0312,0.6385-0.1527,1.0552-0.3064
		c0.0022-0.1472,0.002-0.2949,0.0376-0.4421c0.0537-0.2231,5.252-22.3872-6.4512-31.7783
		c-2.5405-2.0389-3.9426-2.4144-4.6479-2.4031c1.4382,1.7687,2.9926,4.1746,3.1499,6.4539c0.2588,3.7446-1.084,7.3936-2.1602,8.3613
		c-0.6289,0.5674-2.0376,1.0433-3.2957,1.1819c-0.5924,3.4575-2.3667,8.8626-3.8528,10.8176
		c-1.0967,1.4434-2.2803,7.3389-1.1133,11.0474c0.5381,1.7095,2.5361,6.791,4.6514,12.1709
		c3.2568,8.2822,6.624,16.8467,7.2148,19.4072c1.2314,5.3359,3.4238,9.1108,6.7031,11.5415
		c2.4092,1.7866,12.2979,8.6763,21.0225,14.7544c9.4365,6.5742,15.2578,10.6343,16.0195,11.2432
		c0.1045,0.0747,0.291,0.1763,0.542,0.3208c11.5684,6.6875,26.3076,24.7539,43.8096,53.6982l-1.2493,0.7551
		c3.2083,1.9995,15.0704,8.1187,34.3915,3.691c17.5596-4.0241,27.9681-10.1987,31.8534-12.8465
		c-4.0012-7.4022-20.4603-37.8856-23.1459-43.3799C376.147,309.9513,367.2872,316.1575,363.2422,317.4619z"/>
	<path fill="#FFFFFF" d="M242.4531,199.5913c-0.8545,3.2031-0.5176,9.644-0.1592,11.6221c0.5605-0.0283,1.4775-0.2603,1.8496-0.4644
		c0.3564-0.5317,1.3867-2.9995,1.1855-5.9204C245.2373,203.5073,244.1807,201.5972,242.4531,199.5913z"/>
	<path fill="#FFFFFF" d="M260.6738,166.3428c0.7812,0,4.5732-0.7759,5.9775-1.2686c-0.0332-0.1836-0.0898-0.4019-0.1504-0.5864
		c-1.6016-2.105-4.5957-3.1367-6.7471-3.2041c-1.7051-0.0503-3.3633,0.9131-3.7021,1.439c0.7178,1.124,3.7656,3.3955,4.583,3.6191
		C260.6475,166.3423,260.6602,166.3428,260.6738,166.3428z"/>
	<path fill="#FFFFFF" d="M301.8418,156.8818c0.2441-0.0864,0.6221-0.3682,1.04-0.7441c-1.1807-0.2988-2.4834-0.5811-3.3262-0.6294
		c-0.6301-0.0443-1.6589,0.4341-2.6389,1.046c0.825,0.3937,1.5505,0.8383,2.0984,1.3253L301.8418,156.8818z"/>
	<path fill="#FFFFFF" d="M276.3682,158.7603c0.248-0.0767,1.0684-0.5845,2.5986-1.9165c-0.8828,0.0854-1.7207,0.3389-2.541,0.5869
		c-0.5186,0.1567-1.3164,0.7305-2.0049,1.3228C275.1777,158.8511,275.9336,158.8862,276.3682,158.7603z"/>
</g>
</svg>
