<svg id="undraw_working_late_re_0c3y" xmlns="http://www.w3.org/2000/svg" xmlns:xlink="http://www.w3.org/1999/xlink" width="1500" height="1500" viewBox="0 0 1500 1500">
  <defs>
    <clipPath id="clip-path">
      <rect id="Rectangle_2436" data-name="Rectangle 2436" width="1068" height="1110" transform="translate(216 195)" fill="#fff"/>
    </clipPath>
  </defs>
  <g id="undraw_working_late_re_0c3y-2" data-name="undraw_working_late_re_0c3y">
    <rect id="Rectangle_2435" data-name="Rectangle 2435" width="1500" height="1500" fill="#fff" opacity="0"/>
    <g id="Group_565" data-name="Group 565" clip-path="url(#clip-path)">
      <path id="Path_21050" data-name="Path 21050" d="M1284,771a531.454,531.454,0,0,1-45.49,215.984c-1.27,2.849-2.54,5.686-3.86,8.509-.19.44-.4.879-.6,1.318-.51,1.079-1.01,2.171-1.53,3.249-.38.79-.75,1.56-1.14,2.34-.91,1.92-1.85,3.83-2.79,5.73q-1.56,3.135-3.16,6.26t-3.23,6.22c-.96,1.8-1.93,3.59-2.89,5.38-1.26,2.3-2.53,4.61-3.83,6.91-1.11,1.97-2.24,3.93-3.36,5.87-1.22,2.08-2.44,4.16-3.68,6.23l-.12.2c-.27.46-.53.91-.81,1.36-.25.42-.49.81-.75,1.23s-.49.81-.74,1.21v.01c-.82,1.33-1.63,2.64-2.44,3.96l-.01.01q-2.745,4.4-5.57,8.74-5.235,8.07-10.75,15.9c0,.01-.01.01-.02.02-2.2,3.15-4.45,6.26-6.71,9.35-1.46,1.97-2.92,3.93-4.4,5.89s-2.97,3.9-4.47,5.82c-.34.44-.68.88-1.03,1.32-1.92,2.45-3.86,4.9-5.83,7.31-.43.53-.85,1.05-1.27,1.57-.65.78-1.29,1.57-1.93,2.34-.21.27-.42.52-.65.79-1.09,1.3-2.18,2.61-3.3,3.91v.02q-1.62,1.905-3.28,3.83c-.24.28-.48.56-.73.84-.36.43-.73.84-1.11,1.26q-1.38,1.62-2.82,3.21c-.01.02-.01.03-.03.04l-.04.04v.02a535,535,0,0,1-96.58,85.52c-.12.09-.25.17-.38.25-.43.32-.87.61-1.31.92-3.19,2.18-6.4,4.34-9.63,6.44-1.59,1.04-3.17,2.07-4.77,3.08v.01c-.01,0-.01,0-.03.02h-.02l-.03.02-.08.04c-.04.03-.07.04-.11.07-1.22.79-2.43,1.56-3.67,2.33-.37.25-.75.48-1.12.71-.65.41-1.32.82-1.98,1.24-.66.39-1.32.81-1.99,1.21-.84.5-1.68,1.02-2.51,1.52q-2.745,1.65-5.49,3.27c-.67.4-1.35.79-2.02,1.19-.67.38-1.35.77-2.03,1.15a.138.138,0,0,1-.03.04c-.02.01-.03.01-.05.02l-.03.01-.02.03h-.02c-1.86,1.06-3.71,2.13-5.59,3.17l-.01.01c-1.51.84-3.01,1.67-4.53,2.49q-5.4,2.94-10.853,5.77c-2.53,1.32-5.074,2.59-7.63,3.86-1.545.77-3.1,1.53-4.661,2.29-1.292.63-2.6,1.25-3.889,1.86-.359.18-.705.35-1.065.51-.586.28-1.185.56-1.771.83-.493.22-.972.45-1.465.67-1.172.56-2.357,1.1-3.529,1.63-1.318.6-2.623,1.18-3.942,1.77-4.953,2.21-9.961,4.34-14.981,6.39a519.4,519.4,0,0,1-54.905,18.99c-.865.25-1.744.51-2.623.75q-11.965,3.345-24.1,6.14-21.193,4.875-42.774,8c-.026,0-.066.01-.093.01-1.718.26-3.449.5-5.167.74-.146.02-.306.05-.466.06-.013.02-.026.02-.053,0h-.013c-1.905.26-3.809.51-5.727.75-.133.02-.266.04-.4.05-1.784.21-3.582.43-5.38.63-1.931.21-3.862.41-5.806.61h-.013c-2.957.29-5.913.57-8.869.81-.053,0-.107.02-.16.02-1.172.1-2.344.18-3.516.27h-.013Q771.059,1305.02,750,1305q-22.872,0-45.277-1.9c-.053,0-.107-.02-.16-.02-3.183-.26-6.361-.56-9.535-.88-.839-.08-1.664-.17-2.5-.25-.16-.01-.32-.03-.48-.05-.253-.03-.506-.06-.772-.08-.133-.02-.28-.03-.413-.06-1.1-.12-2.211-.24-3.329-.37-1.238-.15-2.49-.29-3.729-.45s-2.49-.31-3.728-.48a7.516,7.516,0,0,1-.813-.11c-.9-.1-1.811-.22-2.7-.36-.439-.05-.865-.12-1.292-.18-.865-.12-1.717-.24-2.583-.38-.027,0-.067-.01-.093-.01a526.481,526.481,0,0,1-80.287-18.1h-.013c-1.425-.44-2.85-.89-4.275-1.34-.426-.12-.852-.26-1.278-.4q-5.553-1.785-11.04-3.68-7.569-2.595-15.034-5.43c-1.358-.52-2.7-1.04-4.062-1.56q-4.055-1.59-8.07-3.22-6.851-2.8-13.609-5.77h-.014v-.01c-3.555-1.57-7.1-3.17-10.613-4.83-.639-.3-1.278-.59-1.918-.9a1.147,1.147,0,0,1-.346-.16c-.013,0-.013-.01-.026-.01-.919-.43-1.838-.87-2.757-1.3l-.027-.02q-7.051-3.375-13.982-6.96-8.589-4.44-17.032-9.19-6.992-3.93-13.85-8.08-8.13-4.92-16.086-10.13c-1.652-1.07-3.3-2.17-4.954-3.27q-2.236-1.5-4.448-3.01-7.83-5.355-15.461-10.99-7.89-5.805-15.553-11.92-9.988-7.95-19.576-16.35-17.879-15.615-34.29-32.81c-.347-.36-.693-.72-1.039-1.09-1.092-1.15-2.171-2.29-3.249-3.45q-2.358-2.52-4.675-5.09-3.834-4.17-7.537-8.44h-.013v-.02c-1.505-1.71-2.97-3.42-4.461-5.15v-.01c-.213-.24-.413-.48-.613-.72-.945-1.11-1.864-2.2-2.783-3.32v-.01q-1.878-2.22-3.675-4.45c-.267-.32-.52-.62-.773-.94h-.013v-.02q-1.477-1.8-2.916-3.62c-.493-.6-.972-1.21-1.452-1.82h-.013v-.02q-4.355-5.49-8.536-11.09v-.01c-.773-1.03-1.532-2.05-2.277-3.09h-.014q-5.354-7.23-10.427-14.64v-.01c-1.278-1.85-2.543-3.72-3.8-5.59s-2.49-3.76-3.715-5.65H302c-1.265-1.94-2.517-3.9-3.755-5.86-.067-.11-.133-.2-.186-.29-1.226-1.93-2.433-3.88-3.622-5.83-.959-1.56-1.9-3.11-2.824-4.67-.639-1.05-1.265-2.09-1.877-3.15-.227-.36-.426-.72-.626-1.07-1.412-2.41-2.8-4.82-4.182-7.24-1.611-2.85-3.209-5.73-4.767-8.6-.639-1.19-1.278-2.39-1.9-3.59-.227-.38-.427-.77-.626-1.17-.746-1.41-1.492-2.82-2.224-4.25-.732-1.41-1.465-2.83-2.184-4.26s-1.438-2.85-2.144-4.29c-.533-1.07-1.065-2.17-1.585-3.24-.054-.1-.1-.19-.146-.28-.24-.51-.493-1-.719-1.51a.9.9,0,0,1-.12-.25c-.546-1.12-1.079-2.226-1.6-3.345-.693-1.438-1.358-2.889-2.024-4.341-.48-1.012-.932-2.037-1.4-3.063q-1-2.157-1.958-4.354c-.679-1.505-1.332-3.023-1.984-4.541-.173-.386-.333-.759-.493-1.146-.306-.692-.6-1.385-.892-2.077-.786-1.838-1.558-3.7-2.317-5.553q-1.3-3.137-2.53-6.285-1.179-2.937-2.291-5.886l-.28-.72v-.013a531.757,531.757,0,0,1-26.154-93.829v-.014a532.476,532.476,0,0,1-7.084-55.237c-.08-1.012-.147-2.024-.213-3.037Q215.973,789.943,216,771q0-8.409.266-16.739A531.529,531.529,0,0,1,334.092,436.045q4.815-5.973,9.8-11.8,5.472-6.392,11.132-12.611,3.916-4.314,7.924-8.522a1.725,1.725,0,0,1,.16-.16q.419-.459.879-.919a532.144,532.144,0,0,1,52.134-47.794c2.1-1.7,4.208-3.369,6.339-5.007,1.891-1.478,3.782-2.943,5.686-4.368q3.316-2.517,6.672-4.967,17.478-12.8,35.995-24.183,7.731-4.754,15.634-9.241c1.918-1.106,3.862-2.185,5.806-3.263,2.637-1.452,5.273-2.89,7.937-4.288a534.773,534.773,0,0,1,512.268,6.924c.37.2.74.413,1.1.626,2.29,1.305,4.57,2.611,6.84,3.956q4.425,2.6,8.8,5.286,22.05,13.563,42.66,29.15c2.13,1.612,4.27,3.236,6.37,4.888,1.9,1.478,3.79,2.983,5.67,4.487,1.03.826,2.07,1.665,3.09,2.5a535.2,535.2,0,0,1,62.68,60.112l.03.026c.29.333.59.653.87.986.91,1.038,1.83,2.09,2.74,3.129.12.133.24.28.36.413q1.995,2.3,3.97,4.634a535.092,535.092,0,0,1,43.93,59.819q7.4,11.625,14.14,23.677A531.4,531.4,0,0,1,1284,771Z" fill="#3f3d56"/>
      <path id="Path_21051" data-name="Path 21051" d="M1125.68,227.868l31.96,865.172v.01q-1.62,2.235-3.28,4.47c-.6.82-1.21,1.63-1.84,2.45-.92,1.26-1.86,2.5-2.82,3.74-.01.01-.01.03-.03.05l-.04.04v.02a571.632,571.632,0,0,1-96.58,99.6v.34l-.38-.05c-.44.38-.88.72-1.31,1.07q-4.785,3.825-9.63,7.51-2.385,1.815-4.77,3.58v.02c-.01,0-.01,0-.03.01h-.02l-.03.03-.08.05-.11.08c-1.22.91-2.43,1.81-3.67,2.71-.37.3-.75.56-1.12.82-.65.49-1.32.97-1.98,1.45-.66.46-1.32.94-1.99,1.41-2.65,1.89-5.33,3.75-8,5.58-.67.47-1.35.92-2.03,1.38-.66.45-1.34.9-2.02,1.35v.05l-.08.01-.03.02-.02.03h-.02c-1.86,1.24-3.71,2.48-5.59,3.69l-.01.02c-1.51.97-3.01,1.94-4.53,2.9-3.6,2.28-7.218,4.53-10.854,6.71-2.53,1.54-5.073,3.03-7.63,4.5-1.545.9-3.1,1.78-4.661,2.67-1.292.73-2.6,1.46-3.889,2.17-.359.2-.7.4-1.065.59-.586.32-1.185.65-1.771.96H524.294c-.639-.34-1.278-.68-1.918-1.04a1.182,1.182,0,0,1-.346-.19c-.013,0-.013-.01-.027-.01-.918-.5-1.837-1.01-2.756-1.52l-.027-.02q-7.051-3.93-13.982-8.11-15.72-9.435-30.882-20.11-8.13-5.73-16.086-11.79-2.478-1.89-4.954-3.82c-1.492-1.16-2.97-2.32-4.448-3.5q-7.83-6.24-15.461-12.8-7.89-6.765-15.553-13.88-9.988-9.255-19.576-19.04-17.877-18.2-34.29-38.22c-.347-.42-.693-.83-1.039-1.27q-4.016-4.905-7.924-9.94l26.634-881.952a42.814,42.814,0,0,1,2.89-15.665c4.048-10.235,11.945-17.2,21.013-17.2H1101.77c9.19,0,17.17,7.134,21.16,17.587.14.342.26.683.38,1.024a43.468,43.468,0,0,1,2.37,14.253Z" fill="#3f3d56"/>
      <path id="Path_21052" data-name="Path 21052" d="M469.829,294.977c19.857,0,35.955-18.748,35.955-41.875s-16.1-41.875-35.955-41.875-35.955,18.748-35.955,41.875S449.971,294.977,469.829,294.977Z" fill="#fff"/>
      <path id="Path_21053" data-name="Path 21053" d="M850.681,365.331c-60.617,15.945-127.781,25.644-196.073,28.3a245.4,245.4,0,0,1-30.041-.205c-21.976-1.848-40.8-8.755-61.765-12.53-10.078-1.809-21.3-3.132-31.451-5.088q3.516-4.362,7.16-8.619c21.879,1.849,44.1,7.9,66.239,10.711,37.639,4.786,79.811-.554,108.344-13.727,13.843-6.391,24.447-14.368,38.242-20.789a17.8,17.8,0,0,1,6-1.838c4.368-.4,8.2,1.361,11.324,2.937,23.144,11.684,56.745,21.179,87.934,15.955C858.921,362.257,854.5,364.329,850.681,365.331Z" fill="#fff"/>
      <path id="Path_21054" data-name="Path 21054" d="M838.946,511.28c.39-.071.781-.127,1.171-.2a31.774,31.774,0,0,1-4.614-3.476Z" fill="#fff"/>
      <path id="Path_21055" data-name="Path 21055" d="M1094.52,542.833q-26.745,2.137-53.77,3.182a338.7,338.7,0,0,1-41.124-.279c-30.083-2.544-55.851-11.985-84.548-17.152-26.3-4.727-58.261-7.005-74.96-17.5,43.16-7.471,87.877,7.737,132.381,13.4a316.12,316.12,0,0,0,107.881-5.326Q1087.775,530.781,1094.52,542.833Z" fill="#fff"/>
      <path id="Path_21056" data-name="Path 21056" d="M723.1,863.312V850.556a19.1,19.1,0,0,0-18-19.063V781.676h-4.235v49.76H681.81V863.2H591.817V1228.46H790.859V934.921A71.722,71.722,0,0,0,723.1,863.312Z" fill="#2f2e41"/>
      <path id="Path_21057" data-name="Path 21057" d="M651.106,915.074H624.638v21.175h26.468Z" fill="#fff"/>
      <path id="Path_21058" data-name="Path 21058" d="M694.514,915.074H668.046v21.175h26.468Z" fill="#fff"/>
      <path id="Path_21059" data-name="Path 21059" d="M737.922,915.074H711.454v21.175h26.468Z" fill="#fff"/>
      <path id="Path_21060" data-name="Path 21060" d="M651.106,969.07H624.638v21.175h26.468Z" fill="#fff"/>
      <path id="Path_21061" data-name="Path 21061" d="M694.514,969.07H668.046v21.175h26.468Z" fill="#fff"/>
      <path id="Path_21062" data-name="Path 21062" d="M737.922,969.07H711.454v21.175h26.468Z" fill="#fff"/>
      <path id="Path_21063" data-name="Path 21063" d="M651.106,1023.07H624.638v21.17h26.468Z" fill="#fff"/>
      <path id="Path_21064" data-name="Path 21064" d="M694.514,1023.07H668.046v21.17h26.468Z" fill="#fff"/>
      <path id="Path_21065" data-name="Path 21065" d="M737.922,1023.07H711.454v21.17h26.468Z" fill="#fff"/>
      <path id="Path_21066" data-name="Path 21066" d="M651.106,1077.06H624.638v21.18h26.468Z" fill="#fff"/>
      <path id="Path_21067" data-name="Path 21067" d="M694.514,1077.06H668.046v21.18h26.468Z" fill="#fff"/>
      <path id="Path_21068" data-name="Path 21068" d="M737.922,1077.06H711.454v21.18h26.468Z" fill="#fff"/>
      <path id="Path_21069" data-name="Path 21069" d="M651.106,1131.06H624.638v21.17h26.468Z" fill="#fff"/>
      <path id="Path_21070" data-name="Path 21070" d="M694.514,1131.06H668.046v21.17h26.468Z" fill="#fff"/>
      <path id="Path_21071" data-name="Path 21071" d="M737.922,1131.06H711.454v21.17h26.468Z" fill="#fff"/>
      <path id="Path_21072" data-name="Path 21072" d="M651.106,1185.05H624.638v21.18h26.468Z" fill="#fff"/>
      <path id="Path_21073" data-name="Path 21073" d="M694.514,1185.05H668.046v21.18h26.468Z" fill="#fff"/>
      <path id="Path_21074" data-name="Path 21074" d="M737.922,1185.05H711.454v21.18h26.468Z" fill="#fff"/>
      <path id="Path_21075" data-name="Path 21075" d="M597.311,757.046V1228.46H474.358q-8.13-4.92-16.087-10.12-2.477-1.62-4.954-3.28c-1.491-1-2.969-2-4.448-3.01q-7.83-5.355-15.46-10.99-7.89-5.805-15.554-11.91-9.987-7.95-19.576-16.36V685.323h35.463V628.687h35.995v-54h4.234v54h26.407A19.123,19.123,0,0,1,519.5,647.809v37.514h6.086a71.755,71.755,0,0,1,68.781,51.322,74.139,74.139,0,0,1,1.864,7.937,72.527,72.527,0,0,1,1.079,12.464Z" fill="#2f2e41"/>
      <path id="Path_21076" data-name="Path 21076" d="M540.673,728.207H454.916v6.352h85.757Z" fill="#fff"/>
      <path id="Path_21077" data-name="Path 21077" d="M540.673,767.383H454.916v6.352h85.757Z" fill="#fff"/>
      <path id="Path_21078" data-name="Path 21078" d="M540.673,806.555H454.916v6.352h85.757Z" fill="#fff"/>
      <path id="Path_21079" data-name="Path 21079" d="M540.673,845.727H454.916v6.352h85.757Z" fill="#fff"/>
      <path id="Path_21080" data-name="Path 21080" d="M540.673,884.9H454.916v6.353h85.757Z" fill="#fff"/>
      <path id="Path_21081" data-name="Path 21081" d="M540.673,924.074H454.916v6.353h85.757Z" fill="#fff"/>
      <path id="Path_21082" data-name="Path 21082" d="M540.673,963.246H454.916V969.6h85.757Z" fill="#fff"/>
      <path id="Path_21083" data-name="Path 21083" d="M540.673,1002.42H454.916v6.35h85.757Z" fill="#fff"/>
      <path id="Path_21084" data-name="Path 21084" d="M540.673,1041.59H454.916v6.36h85.757Z" fill="#fff"/>
      <path id="Path_21085" data-name="Path 21085" d="M540.673,1080.77H454.916v6.35h85.757Z" fill="#fff"/>
      <path id="Path_21086" data-name="Path 21086" d="M540.673,1119.94H454.916v6.35h85.757Z" fill="#fff"/>
      <path id="Path_21087" data-name="Path 21087" d="M540.673,1159.11H454.916v6.36h85.757Z" fill="#fff"/>
      <path id="Path_21088" data-name="Path 21088" d="M489.854,640.336H463.385v21.175h26.469Z" fill="#fff"/>
      <path id="Path_21089" data-name="Path 21089" d="M1123.31,213.617c-.12-.347-.24-.68-.38-1.026-3.99-10.453-11.97-17.591-21.16-17.591H405.564c-9.069,0-16.966,6.965-21.014,17.205a42.834,42.834,0,0,0-2.89,15.661L355.027,1130.35q2.317,2.565,4.674,5.09c1.079,1.16,2.157,2.3,3.249,3.45l26.634-911.024a28.767,28.767,0,0,1,1.012-7.644.378.378,0,0,1,.026-.12c2.291-8.283,8.123-14.182,14.942-14.182H1101.77a11.784,11.784,0,0,1,4.74,1c6.24,2.664,10.83,10.414,11.2,19.722.02.413.03.813.03,1.226L1149.7,1103.7q1.44-1.845,2.82-3.72c.35-.46.68-.91,1.02-1.35.28-.37.56-.73.82-1.1q1.665-2.25,3.28-4.48v-.01l-31.96-865.174a43.18,43.18,0,0,0-2.37-14.249ZM505.239,1245.73q6.931,3.585,13.983,6.96l.026.02c.919.43,1.838.87,2.757,1.3.013,0,.013.01.026.01a1.152,1.152,0,0,0,.347.16c.639.31,1.278.6,1.917.9H975.731c.586-.27,1.185-.55,1.771-.83.36-.16.706-.33,1.066-.51,1.291-.61,2.6-1.23,3.888-1.86,1.558-.76,3.116-1.52,4.661-2.29,2.557-1.27,5.1-2.54,7.63-3.86Z" fill="#2f2e41"/>
      <path id="Path_21090" data-name="Path 21090" d="M1121.7,306.469H385.621v9.242H1121.7Z" fill="#2f2e41"/>
      <path id="Path_21091" data-name="Path 21091" d="M1131.84,420.992H378.118v9.242H1131.84Z" fill="#2f2e41"/>
      <path id="Path_21092" data-name="Path 21092" d="M500.19,600.333h-7.935l26.633-401.185h7.936Z" fill="#2f2e41"/>
      <path id="Path_21093" data-name="Path 21093" d="M1020.4,603h-7.94L980.5,199.148h7.935Z" fill="#2f2e41"/>
      <path id="Path_21094" data-name="Path 21094" d="M1135.84,589.516H379.449v26.451H1135.84Z" fill="#2f2e41"/>
      <path id="Path_21095" data-name="Path 21095" d="M759.008,574.922h7.935a14.547,14.547,0,0,1,14.548,14.548H744.459a14.55,14.55,0,0,1,14.549-14.548Z" fill="#2f2e41"/>
      <path id="Path_21096" data-name="Path 21096" d="M489.978,1214.23c-11.985,11.99-11.053,16.98-15.621,14.22q-8.129-4.9-16.086-10.12c-1.651-1.07-3.3-2.17-4.954-3.27q-2.236-1.5-4.448-3.01-7.83-5.355-15.46-10.99-7.891-5.805-15.554-11.92-9.988-7.95-19.576-16.35-17.877-15.615-34.29-32.81c-.347-.36-.693-.72-1.039-1.09-1.092-1.15-2.171-2.29-3.249-3.45l5.42-19.58,6.658-285.308.4-85.973.027-7.937,5.913-124.324.04-7.937,3.435-167.617.027-6.525.053-9.242L363.11,402.953l27.033-87.238.04-9.242.412-86.252.027-7.044c14.1-12.838,34.064-15.355,58.474-13.091,1.211.12,2.45.24,3.688.373l.333,5.46.613,9.734v.014l4.794,77.184v.026l.852,13.6.573,9.241,1.5,24.183-21.6,81.1.572,9.242,4.169,67.009.572,9.242,1.185,19.07,4.9,78.821.492,7.937,1.013,16.366,1.265,20.242.146,2.357.573,9.241,1.651,26.554.453,7.4,2.091,33.731.279,4.5.12,1.851.133,2.078.213,3.462.28,4.475,1,16.059.413,6.739.4,6.352.28,4.594.466,7.4.36,5.726.932,15.1.4,6.352.679,11.04.413,6.6.053.8.892,14.382.4,6.352L466.94,857l.786,12.584.466,7.391.492,7.924.387,6.352,1.491,23.943.453,7.4.093,1.478.4,6.352,1.891,30.389.146,2.437.306,4.967.08,1.385,2.051,32.815.253,4.02.147,2.33.306,5.07,1.731,27.75.4,6.36.254,4.11.452,7.41,1.319,21.3.4,6.35.653,10.58.466,7.39.919,14.85.4,6.35,1.052,17.02.466,7.39.293,8.41.227,6.36Z" fill="#ccc"/>
      <path id="Path_21097" data-name="Path 21097" d="M1153.63,1120.63c-.36.43-.73.84-1.11,1.27-.92,1.07-1.86,2.14-2.82,3.2-.01.02-.01.03-.03.04l-.04.04v.02a535,535,0,0,1-96.58,85.52c-.12.09-.25.17-.37.25-.44.32-.88.61-1.32.92-3.19,2.18-6.4,4.34-9.63,6.45-1.59,1.03-3.17,2.06-4.77,3.07v.01c-.01,0-.01,0-.03.02h-.02l-.03.02-.08.04c-.04.03-.06.04-.1.07-1.23.79-2.44,1.56-3.68,2.33-.37.25-.75.48-1.12.71-.65.41-1.32.82-1.98,1.24-.66.39-1.32.81-1.99,1.21-.84.5-1.68,1.02-2.51,1.52l.05-4.4.08-5.84.39-26.88,1.33-21.46,7.89-127.06,1.26-20.11.28-4.53,3.55-57.164,1.21-19.629,2.76-44.211,1.24-20.108,1.21-19.429.05-.759.11-1.812.07-1.1v-.013l1.41-22.558.05-.959,1-15.954v-.027l1.42-23.117.91-14.515,1.01-16.3.81-13.064.19-3,.49-7.937.03-.319,3.06-49.4.8-12.877v-.014l.84-13.5.57-9.242,1.19-18.883,1.25-20.081.49-7.937,1.75-28.179v-.013l.97-15.687.97-15.713,1.44-22.985.95-15.314.57-9.242,4.15-67.01.19-2.9.4-6.338,1.34-21.68-28.88-49.565,2.12-34.037.57-9.242,6.07-97.638.19-2.916.33-5.46c26.08-2.863,47.34-.759,62.16,12.717l.42,93.3.04,9.242,8.43,102.152.01,3.13.04,9.241,3.42,174.143.04,7.937,5.86,124.324.04,7.937,3.04,85.973.12,26.447,14.37,241.63Z" fill="#ccc"/>
      <path id="Path_21098" data-name="Path 21098" d="M1041.73,1218.34c-1.59,1.03-3.17,2.06-4.77,3.07v.02c-.01,0-.01,0-.03.01h-.02l-.03.03-.08.04a.9.9,0,0,0-.1.06c-1.23.79-2.44,1.56-3.68,2.33-.37.26-.75.48-1.12.71-.65.41-1.32.82-1.98,1.24-.66.4-1.32.81-1.99,1.21-.84.5-1.68,1.02-2.51,1.52q-2.745,1.65-5.49,3.27c-.67.4-1.35.79-2.02,1.19-.67.38-1.35.77-2.03,1.16v.04l-.08.01-.03.01-.02.03h-.02c-1.86,1.06-3.71,2.13-5.59,3.17l-.01.01c-1.51.84-3.01,1.67-4.53,2.49q-5.385,2.94-10.853,5.77c-2.53,1.32-5.073,2.6-7.63,3.86-1.545.77-3.1,1.53-4.661,2.29-1.292.63-2.6,1.25-3.888,1.86-.36.18-.706.35-1.066.51-.586.28-1.185.56-1.771.83-.493.22-.972.45-1.465.68-1.172.56-2.357,1.09-3.529,1.62-1.318.6-2.623,1.19-3.941,1.77-4.954,2.21-9.961,4.34-14.982,6.39a519.46,519.46,0,0,1-54.9,18.99c-.866.26-1.745.51-2.624.75q-11.965,3.36-24.1,6.14-21.193,4.875-42.773,8c-.027,0-.067.01-.094.01-1.717.26-3.449.5-5.167.74-.146.02-.306.05-.465.06-.014.02-.027.02-.054,0h-.013c-1.9.26-3.809.51-5.726.75a2.73,2.73,0,0,1-.4.05c-1.784.22-3.582.43-5.38.63-1.931.21-3.861.41-5.806.61h-.013c-2.956.29-5.913.57-8.869.81-.053,0-.106.02-.16.02-1.172.1-2.344.18-3.515.28h-.014Q771.061,1305.015,750,1305q-22.872,0-45.277-1.9c-.053,0-.107-.02-.16-.02-3.182-.26-6.361-.56-9.534-.88-.839-.08-1.665-.17-2.5-.25-.16-.01-.32-.03-.479-.05-.253-.03-.506-.06-.773-.08-.133-.02-.28-.03-.413-.05-1.1-.12-2.21-.24-3.329-.38-1.238-.14-2.49-.29-3.728-.45s-2.491-.31-3.729-.48a7.5,7.5,0,0,1-.812-.11c-.906-.1-1.811-.22-2.7-.36-.439-.05-.865-.12-1.291-.18-.866-.12-1.718-.24-2.584-.38-.026,0-.066-.01-.093-.01a526.466,526.466,0,0,1-80.286-18.1h-.014c-1.425-.44-2.85-.89-4.274-1.34-.426-.12-.853-.25-1.279-.4q-5.553-1.785-11.039-3.68-7.57-2.595-15.035-5.43c-1.358-.52-2.7-1.04-4.061-1.56q-4.056-1.59-8.07-3.22-6.852-2.79-13.61-5.77h-.013v-.01c-3.556-1.57-7.1-3.17-10.614-4.83-.639-.3-1.278-.59-1.917-.9a1.152,1.152,0,0,1-.347-.16c-.013,0-.013-.01-.026-.01-.919-.42-1.838-.86-2.757-1.3l-.027-.02q-7.05-3.375-13.982-6.96-8.589-4.44-17.032-9.19-6.992-3.93-13.849-8.08-8.13-4.92-16.087-10.12Z" fill="#2f2e41"/>
      <path id="Path_21099" data-name="Path 21099" d="M559.051,267.059a3.138,3.138,0,1,0-2.664-3.1A2.908,2.908,0,0,0,559.051,267.059Z" fill="#fff"/>
      <path id="Path_21100" data-name="Path 21100" d="M720.872,270.907a3.138,3.138,0,1,0-2.663-3.1A2.908,2.908,0,0,0,720.872,270.907Z" fill="#fff"/>
      <path id="Path_21101" data-name="Path 21101" d="M820.747,274.008a3.138,3.138,0,1,0-2.663-3.1A2.907,2.907,0,0,0,820.747,274.008Z" fill="#fff"/>
      <path id="Path_21102" data-name="Path 21102" d="M961.215,666.417a2.663,2.663,0,1,0-2.663-2.664A2.664,2.664,0,0,0,961.215,666.417Z" fill="#fff"/>
      <path id="Path_21103" data-name="Path 21103" d="M799.441,516.577a2.664,2.664,0,1,0-2.664-2.664A2.664,2.664,0,0,0,799.441,516.577Z" fill="#fff"/>
      <path id="Path_21104" data-name="Path 21104" d="M665.584,653.1a2.663,2.663,0,1,0-2.663-2.663A2.663,2.663,0,0,0,665.584,653.1Z" fill="#fff"/>
      <path id="Path_21105" data-name="Path 21105" d="M642.946,513.272a2.663,2.663,0,1,0-2.663-2.663A2.663,2.663,0,0,0,642.946,513.272Z" fill="#fff"/>
      <path id="Path_21106" data-name="Path 21106" d="M464.5,485.307a2.663,2.663,0,1,0-2.663-2.663A2.664,2.664,0,0,0,464.5,485.307Z" fill="#fff"/>
      <path id="Path_21107" data-name="Path 21107" d="M1073.25,1029.1l-2.66.07,3.99,146.38,2.66-.07Z" fill="#b3b3b3"/>
      <path id="Path_21108" data-name="Path 21108" d="M1114.53,455.164l-2.66.039,3.99,268.9,2.67-.04Z" fill="#b3b3b3"/>
      <path id="Path_21109" data-name="Path 21109" d="M1023.04,733h-37.6a5.813,5.813,0,0,0-4.458,2.064,8.478,8.478,0,0,0-1.59-.153,8.919,8.919,0,0,0,0,17.838,8.82,8.82,0,0,0,3.884-.9l.627,7.707,2.492,30.46a5.592,5.592,0,0,0,.475,1.094,5.86,5.86,0,0,0,5.145,3.058h24.452a5.89,5.89,0,0,0,5.15-3.058,6.223,6.223,0,0,0,.47-1.094l6.57-49.406a5.849,5.849,0,0,0-.89-5.221,5.875,5.875,0,0,0-4.73-2.386ZM979.4,750.2a6.373,6.373,0,0,1,0-12.746c.115,0,.222.031.337.039a5.839,5.839,0,0,0,.091,3.111l2.692,8.747a6.277,6.277,0,0,1-3.12.849Z" fill="#f2f2f2"/>
      <path id="Path_21110" data-name="Path 21110" d="M1010.14,1237.46l-6.27-11.42,3.09-1.45,2.46-1.18,10.75-5.07,6.46-3.05,2.66-1.26,2.12-1,3.51,5.31,1.77,2.68.27.4v.01a.789.789,0,0,0-.16.08c-.04.03-.07.04-.11.07-1.22.78-2.43,1.55-3.67,2.33-.37.25-.75.48-1.12.7-.65.42-1.32.83-1.98,1.24s-1.32.81-1.99,1.21c-2.65,1.63-5.33,3.23-8,4.8-.67.4-1.35.78-2.03,1.18-.66.39-1.34.77-2.02,1.16v.04l-.08.01-.03.02-.02.02h-.02C1013.87,1235.36,1012.02,1236.42,1010.14,1237.46Z" fill="#2f2e41"/>
      <g id="Group_563" data-name="Group 563" opacity="0.49">
        <path id="Path_21111" data-name="Path 21111" d="M1003.8,712.981a10.693,10.693,0,0,0,.83-1.266,8.884,8.884,0,0,1-1.46.459Z" fill="#fff" opacity="0.49"/>
        <path id="Path_21112" data-name="Path 21112" d="M1007.24,685.812c-2.39-4.59-5.08-9.151-6.05-14.238s-.11-10.334.18-15.512-.07-10.714-3.069-14.949c-4.086,12.936-8.135,27.189-2.908,39.707,2.267,5.431,6.127,10.055,8.627,15.386,2.27,4.868,3.19,10.936.61,15.507,4.21-1.7,6.85-6.536,7.02-11.192C1011.83,695.346,1009.64,690.4,1007.24,685.812Z" fill="#fff" opacity="0.49"/>
      </g>
      <g id="Group_564" data-name="Group 564" opacity="0.49">
        <path id="Path_21113" data-name="Path 21113" d="M999.285,730.293a4.269,4.269,0,0,0,.32-.492,3.433,3.433,0,0,1-.568.178Z" fill="#fff" opacity="0.49"/>
        <path id="Path_21114" data-name="Path 21114" d="M1000.62,719.737a20.591,20.591,0,0,1-2.349-5.532,24.9,24.9,0,0,1,.069-6.026,9.092,9.092,0,0,0-1.193-5.808c-1.587,5.026-3.16,10.563-1.13,15.427.881,2.11,2.383,3.906,3.35,5.977a6.759,6.759,0,0,1,.823,2.985,6.833,6.833,0,0,1-.585,3.04,4.936,4.936,0,0,0,1.985-1.787,4.837,4.837,0,0,0,.74-2.561A11.782,11.782,0,0,0,1000.62,719.737Z" fill="#fff" opacity="0.49"/>
      </g>
      <path id="Path_21115" data-name="Path 21115" d="M477.327,321.35H393.432a9.322,9.322,0,0,1,0-18.643h83.895a9.322,9.322,0,1,1,0,18.643Z" fill="#2f2e41"/>
      <path id="Path_21116" data-name="Path 21116" d="M1196.45,214.151H316.215a9.322,9.322,0,1,1,0-18.643H1196.45a9.322,9.322,0,0,1,0,18.643Z" fill="#2f2e41"/>
      <path id="Path_21117" data-name="Path 21117" d="M448.03,414.565H364.135a9.322,9.322,0,0,1,0-18.643H448.03a9.322,9.322,0,1,1,0,18.643Z" fill="#2f2e41"/>
      <path id="Path_21118" data-name="Path 21118" d="M1116.53,321.35h-83.9a9.322,9.322,0,0,1,0-18.643h83.9a9.322,9.322,0,0,1,0,18.643Z" fill="#2f2e41"/>
      <path id="Path_21119" data-name="Path 21119" d="M1149.82,410.569h-83.89a9.322,9.322,0,1,1,0-18.643h83.89a9.322,9.322,0,0,1,0,18.643Z" fill="#2f2e41"/>
      <path id="Path_21120" data-name="Path 21120" d="M398.093,443.175l-2.663.04,3.995,268.894,2.663-.039Z" fill="#b3b3b3"/>
      <path id="Path_21121" data-name="Path 21121" d="M424.726,752.124l-2.663.04,4,268.9,2.663-.04Z" fill="#b3b3b3"/>
      <path id="Path_21122" data-name="Path 21122" d="M395.429,979.822l-2.662.073,3.995,146.385,2.662-.08Z" fill="#b3b3b3"/>
      <path id="Path_21123" data-name="Path 21123" d="M925.884,1073.55v-5.09a7.605,7.605,0,0,0-7.171-7.59v-19.85h-1.688v19.83h-7.593v12.65H873.577v145.53h79.3V1102.08a28.574,28.574,0,0,0-27-28.53Z" fill="#2f2e41"/>
      <path id="Path_21124" data-name="Path 21124" d="M897.2,1094.17H886.654v8.44H897.2Z" fill="#fff"/>
      <path id="Path_21125" data-name="Path 21125" d="M914.494,1094.17H903.949v8.44h10.545Z" fill="#fff"/>
      <path id="Path_21126" data-name="Path 21126" d="M931.789,1094.17H921.244v8.44h10.545Z" fill="#fff"/>
      <path id="Path_21127" data-name="Path 21127" d="M897.2,1115.68H886.654v8.44H897.2Z" fill="#fff"/>
      <path id="Path_21128" data-name="Path 21128" d="M914.494,1115.68H903.949v8.44h10.545Z" fill="#fff"/>
      <path id="Path_21129" data-name="Path 21129" d="M931.789,1115.68H921.244v8.44h10.545Z" fill="#fff"/>
      <path id="Path_21130" data-name="Path 21130" d="M897.2,1137.2H886.654v8.43H897.2Z" fill="#fff"/>
      <path id="Path_21131" data-name="Path 21131" d="M914.494,1137.2H903.949v8.43h10.545Z" fill="#fff"/>
      <path id="Path_21132" data-name="Path 21132" d="M931.789,1137.2H921.244v8.43h10.545Z" fill="#fff"/>
      <path id="Path_21133" data-name="Path 21133" d="M897.2,1158.71H886.654v8.44H897.2Z" fill="#fff"/>
      <path id="Path_21134" data-name="Path 21134" d="M914.494,1158.71H903.949v8.44h10.545Z" fill="#fff"/>
      <path id="Path_21135" data-name="Path 21135" d="M931.789,1158.71H921.244v8.44h10.545Z" fill="#fff"/>
      <path id="Path_21136" data-name="Path 21136" d="M897.2,1180.22H886.654v8.44H897.2Z" fill="#fff"/>
      <path id="Path_21137" data-name="Path 21137" d="M914.494,1180.22H903.949v8.44h10.545Z" fill="#fff"/>
      <path id="Path_21138" data-name="Path 21138" d="M931.789,1180.22H921.244v8.44h10.545Z" fill="#fff"/>
      <path id="Path_21139" data-name="Path 21139" d="M897.2,1201.74H886.654v8.43H897.2Z" fill="#fff"/>
      <path id="Path_21140" data-name="Path 21140" d="M914.494,1201.74H903.949v8.43h10.545Z" fill="#fff"/>
      <path id="Path_21141" data-name="Path 21141" d="M931.789,1201.74H921.244v8.43h10.545Z" fill="#fff"/>
      <path id="Path_21142" data-name="Path 21142" d="M847.191,1002.64h-2.428V987.686a7.617,7.617,0,0,0-7.618-7.618h-10.52V958.555h-1.688v21.513H810.595v22.572H796.464v216.39h79.3V1031.21a28.56,28.56,0,0,0-28.576-28.57Z" fill="#2f2e41"/>
      <path id="Path_21143" data-name="Path 21143" d="M853.2,1019.72H819.032v2.53H853.2Z" fill="#fff"/>
      <path id="Path_21144" data-name="Path 21144" d="M853.2,1035.32H819.032v2.54H853.2Z" fill="#fff"/>
      <path id="Path_21145" data-name="Path 21145" d="M853.2,1050.93H819.032v2.53H853.2Z" fill="#fff"/>
      <path id="Path_21146" data-name="Path 21146" d="M853.2,1066.54H819.032v2.53H853.2Z" fill="#fff"/>
      <path id="Path_21147" data-name="Path 21147" d="M853.2,1082.15H819.032v2.53H853.2Z" fill="#fff"/>
      <path id="Path_21148" data-name="Path 21148" d="M853.2,1097.76H819.032v2.53H853.2Z" fill="#fff"/>
      <path id="Path_21149" data-name="Path 21149" d="M853.2,1113.36H819.032v2.53H853.2Z" fill="#fff"/>
      <path id="Path_21150" data-name="Path 21150" d="M853.2,1128.97H819.032v2.53H853.2Z" fill="#fff"/>
      <path id="Path_21151" data-name="Path 21151" d="M853.2,1144.58H819.032v2.53H853.2Z" fill="#fff"/>
      <path id="Path_21152" data-name="Path 21152" d="M853.2,1160.19H819.032v2.53H853.2Z" fill="#fff"/>
      <path id="Path_21153" data-name="Path 21153" d="M853.2,1175.79H819.032v2.53H853.2Z" fill="#fff"/>
      <path id="Path_21154" data-name="Path 21154" d="M853.2,1191.4H819.032v2.53H853.2Z" fill="#fff"/>
      <path id="Path_21155" data-name="Path 21155" d="M832.952,984.707H822.407v8.437h10.545Z" fill="#fff"/>
      <path id="Path_21156" data-name="Path 21156" d="M1170.62,1087.61v12.41c-1.92,2.45-3.86,4.9-5.83,7.31-.43.53-.86,1.05-1.27,1.57-.65.79-1.29,1.57-1.93,2.35-.21.26-.42.52-.65.78-1.09,1.31-2.19,2.61-3.3,3.92,0,0,.01.01,0,.01q-1.62,1.92-3.28,3.84c-.6.7-1.21,1.39-1.84,2.1-.92,1.08-1.86,2.14-2.82,3.21-.01.01-.01.03-.03.04l-.04.04v-37.58Z" fill="#2f2e41"/>
      <path id="Path_21157" data-name="Path 21157" d="M1198,1061.72q-5.235,8.07-10.75,15.9c0,.02-.01.02-.02.03-2.2,3.14-4.45,6.26-6.72,9.35q-2.175,2.955-4.39,5.88t-4.47,5.82c-.34.44-.68.88-1.03,1.32-1.92,2.45-3.86,4.9-5.83,7.31-.43.53-.86,1.05-1.27,1.57-.65.79-1.29,1.58-1.93,2.35-.23.26-.44.52-.65.78-1.09,1.31-2.19,2.61-3.3,3.92,0,0,.01.01,0,.01q-1.62,1.92-3.28,3.84c-.6.7-1.21,1.39-1.84,2.1h-43.48a17.5,17.5,0,0,1-17.49-17.5v-25.18a17.515,17.515,0,0,1,17.49-17.5Z" fill="#2f2e41"/>
      <path id="Path_21158" data-name="Path 21158" d="M1220.99,846.182a25.273,25.273,0,0,0-8.31-1.385h-7.15a26.2,26.2,0,0,0-7.68,1.158,25.867,25.867,0,0,0-18.12,24.663V1080.69c0,.78.04,1.56.1,2.32a25.8,25.8,0,0,0,.68,3.99c2.27-3.09,4.52-6.2,6.71-9.35.02-.01.03-.01.03-.02q5.505-7.83,10.75-15.9c1.87-2.89,3.74-5.81,5.56-8.74a530.249,530.249,0,0,0,34.95-66V870.618a25.847,25.847,0,0,0-17.52-24.436Z" fill="#2f2e41"/>
      <path id="Path_21159" data-name="Path 21159" d="M910.356,1236.83l-18.129-8.67,24.9-75.78,26.757,12.8Z" fill="#ffb6b6"/>
      <path id="Path_21160" data-name="Path 21160" d="M1031.9,1224.61c-1.32.83-2.64,1.64-3.97,2.45-2.65,1.63-5.33,3.23-8,4.8-1.35.78-2.71,1.57-4.05,2.34v.04l-.08.02-.03.01-2.05.5-2.94-7.77-1.36-3.58-1.92-5.08-3.51-9.28-18.512-48.87,28.782-7.1,1.07,4.41h.02l.53,2.18,10.05,40.78,2.05,8.33.07.26,1.24,4.98,1.07,4.31,1.18,4.82Z" fill="#ffb6b6"/>
      <path id="Path_21161" data-name="Path 21161" d="M958.5,907.462a18.9,18.9,0,0,0,25.6,6.423,18.106,18.106,0,0,0,2.429-1.761l57.316,32.893-2.49-33.765-54.046-26.059a18.83,18.83,0,0,0-22.84-2.975,18.12,18.12,0,0,0-6.207,24.863Q958.382,907.273,958.5,907.462Z" fill="#ffb6b6"/>
      <path id="Path_21162" data-name="Path 21162" d="M1019.21,932.629l10.13,6.175,45.5,27.747a26.837,26.837,0,0,0,36.98-8.514l.01-.024a26.273,26.273,0,0,0,3.35-18.532l-20.23-101.038a28.033,28.033,0,0,0-36.8-21.275,26.687,26.687,0,0,0-16.84,32.427l21.15,71.705-32.42-15.113Z" fill="#ff639d"/>
      <path id="Path_21163" data-name="Path 21163" d="M1205.79,1032.25a3.071,3.071,0,0,1-.08-.41l-.04-.14c-.1-.48-.2-1.02-.32-1.6a358.734,358.734,0,0,0-10.46-39.913,122.761,122.761,0,0,0-9.94-23.091c-.14-.24-.28-.479-.43-.719l-.49-.8-4.14,1.518-.16.053-62.97,23.078-18.2,6.672-.57.213-3.11,12.648-43.53-5.63-35.47-4.594-10.19-1.319a33.6,33.6,0,0,0-25.023,6.843,34.9,34.9,0,0,0-13.276,23.49c-.133,1.01-.213,2.04-.253,3.05l-3.076,114.75v.15l1.424,2.85,29.763,59.71h20.631l12.17-.01h9.89l-20.57-52.06.46-.7a22.866,22.866,0,0,0,2.36-20.28l2.32-6.72c4.81-13.86,2.53-20.52-.35-28.93a71.71,71.71,0,0,1-4.5-21.35l-.48-9.5c12.08,2.12,23.33,4.48,34.17,6.85q5.43,1.185,10.76,2.38c10.11,2.25,19.87,4.42,29.43,6.24,19.36,3.68,37.91,5.93,56.97,4.54.37-.03.75-.06,1.12-.1,4.63-.37,9.29-.97,14.01-1.81,2.65-.48,5.31-1.02,8-1.66.75-.19,1.51-.38,2.25-.56a25.921,25.921,0,0,0,5.94-2.39,38.14,38.14,0,0,0,7.39-5.35c.02-.01.03-.01.03-.03q5.505-7.83,10.75-15.9c1.87-2.89,3.74-5.8,5.56-8.73C1206.23,1045.68,1207.24,1038.3,1205.79,1032.25Z" fill="#2f2e41"/>
      <path id="Path_21164" data-name="Path 21164" d="M1206.23,1010.7c-.2-.86-.46-1.72-.72-2.56a184.037,184.037,0,0,0-7.38-18.671c-3.14-6.924-6.91-14.342-11.4-22.372q-3.255-5.832-7-12.131-1.89-3.156-3.91-6.432a3.273,3.273,0,0,0-.17-.293l-.39-.639-62.29,8.336-23.2,3.1-1.38,11.559-.34,2.863c-.01,0-.01,0,0,.013l-.93,7.8v.013l-1.24,10.307-.1-.013-34.43-4.461-35.47-4.595-19.059-2.463a33.576,33.576,0,0,0-25.022,6.844,34.912,34.912,0,0,0-13.277,23.488c-.12.94-.2,1.89-.24,2.84l-17.977,42.6a274.862,274.862,0,0,0-20.322,79.95L906.8,1177.94l1.877.17,27.939,2.6,7.377.69,16.247-23.71c1.851-2.71,3.609-5.49,5.246-8.34a126.163,126.163,0,0,0,7.178-14.44l35.146-83.62c2.71.46,5.4.91,8.07,1.33q18.465,2.985,35.47,4.88c36.85,4.12,68.76,4.44,97.16.95q11.97-1.455,23.13-3.84,4.095-.855,8.09-1.85c.62-.14,1.23-.29,1.85-.45a34.031,34.031,0,0,0,23.77-22.21,34.724,34.724,0,0,0,.88-19.4Z" fill="#2f2e41"/>
      <path id="Path_21165" data-name="Path 21165" d="M1073.76,759.184c23.8,0,43.09-19.722,43.09-44.051s-19.29-44.051-43.09-44.051-43.09,19.722-43.09,44.051S1049.96,759.184,1073.76,759.184Z" fill="#ffb6b6"/>
      <path id="Path_21166" data-name="Path 21166" d="M1176.08,950.012c-.07-.493-.15-.985-.26-1.478-1.02-5.407-3.68-10.707-6.26-15.847-2.45-4.9-4.78-9.535-5.73-14.142-.95-4.541-.39-9.1.16-13.49.58-4.767,1.19-9.7-.18-14.475a354.666,354.666,0,0,0-28.5-70.392,53.517,53.517,0,0,0-44.41-37.367,12.582,12.582,0,0,0,1.43-7.271,12.4,12.4,0,0,0-4.54-8.35,11.918,11.918,0,0,0-8.78-2.556l-20.03,2.25a12.268,12.268,0,0,0-10.66,13.6,13.159,13.159,0,0,0,.66,2.9c-18.59,23.677-28.14,45.25-29.01,65.651v.013a66.715,66.715,0,0,0,.04,7.071,70.268,70.268,0,0,0,4.9,22.2,94.329,94.329,0,0,0,13.26,22.812q1.68,2.117,3.47,4.155c1.12,1.331,2.38,2.73,3.76,4.194l3.5,5.487,3.26,5.127,17.45,40.256,8.88-.293,1.24,8.856.29,2.064,5.76,20.6.42,1.545,7.87-3.742,46.96-22.293,35.1-16.672Z" fill="#ff639d"/>
      <path id="Path_21167" data-name="Path 21167" d="M1025.43,878.112a94.311,94.311,0,0,0,16.65,26.8c1.2,1.435,2.47,2.844,3.8,4.256l6.82,10.7c25.12-18.835,45.48-92.994,45.48-92.994l-28.35-5.515Z" opacity="0.2"/>
      <path id="Path_21168" data-name="Path 21168" d="M1008.27,763.3a18.936,18.936,0,0,1-6.4,25.635,18,18,0,0,1-2.7,1.323l2.006,66.055-28.6-18.007,2.48-59.966a18.891,18.891,0,0,1,8.136-21.58,18.085,18.085,0,0,1,24.828,6.111C1008.1,763.011,1008.19,763.154,1008.27,763.3Z" fill="#ffb6b6"/>
      <path id="Path_21169" data-name="Path 21169" d="M1003.7,831.38l-31.462,4.473L973.591,901a27.258,27.258,0,0,0,13.325,22.97h0a26.111,26.111,0,0,0,31.194-3.542l74.27-71.435a28.147,28.147,0,0,0,2.07-38.666h0a26.7,26.7,0,0,0-37.63-3.166q-.315.269-.63.546a28.332,28.332,0,0,0-2.09,2.083L1005.06,866.2Z" fill="#ff639d"/>
      <path id="Path_21170" data-name="Path 21170" d="M916.148,1224.45l-19.615-9.4-3.076-1.48-4.914,12.07-34.3,7.55a8.141,8.141,0,0,0-1.332,15.49l33.519,13.67,10.64-9.57-2.611,12.85,12.625,5.15,13.836-44.04Z" fill="#2f2e41"/>
      <path id="Path_21171" data-name="Path 21171" d="M1189.06,696.027c-7.32-8.542-10.8-19.874-16.66-29.574s-16.04-18.38-26.81-16.123c-7.42,1.556-13.15,8.1-16.06,15.4s-3.44,15.351-3.95,23.238c.18-16.208-10.5-31.92-25.21-37.092s-32.31.6-41.56,13.618a22.457,22.457,0,0,0-29.83-.626c-8.26,7.389-10.09,21.453-4.01,30.878s19.24,12.936,28.91,7.709l3.41,3.142c-1.92,6.725,1.81,14.669,8.08,17.2,5.08,2.053,12.25,1.711,14.16,7.045,1.33,3.727-1.16,7.705-3.8,10.569s-5.78,5.822-6.1,9.785c-.48,5.979,5.7,10.168,11.32,11.43,13.54,3.042,28.57-3.23,36.38-15.184.15-.23.31-.461.49-.692a52.313,52.313,0,0,0,10.52-39.995c-.44-2.763.01-4.818,1.91-5.472,8.23-2.828,31.3,3.107,38.28,8.472s12.57,12.464,19.3,18.174,15.29,10.116,23.83,8.561c6.84-1.246,12.65-6.21,16.57-12.2s6.16-12.968,8.18-19.9C1221.29,713.127,1200.59,709.471,1189.06,696.027Z" fill="#2f2e41"/>
      <path id="Path_21172" data-name="Path 21172" d="M1053.05,1210.72v.29l-.38-.04c-.44.32-.87.62-1.31.92q-4.785,3.285-9.63,6.45c-1.59,1.04-3.17,2.06-4.77,3.07v.02c-.01,0-.03.01-.04.01h-.01l-.03.03-.08.04c-.04.02-.07.04-.11.06V975.4c0-7.138-2.39-12.93-5.34-12.944H809.644c-2.956.014-5.34,5.806-5.353,12.944V1302.27c-2.956.3-5.913.58-8.869.82-.053,0-.107.01-.16.01-1.172.11-2.344.19-3.515.28h-.014c-.7-1.31-1.4-2.62-2.09-3.96V958.61c0-1.971.079-3.955.213-5.913a75.828,75.828,0,0,1,1-8.017c2.251-12.371,7.338-20.747,13.117-20.774H1037.01a6.205,6.205,0,0,1,2.45.52,9.528,9.528,0,0,1,3.03,2.117,19.256,19.256,0,0,1,2.97,4.062c2.85,5.02,4.88,12.5,5.6,21.213,0,.08.02.16.02.24.18,2.157.28,4.355.26,6.552l.19,28.538.12,17.022.36,53.4.13,18.96Z" fill="#2f2e41"/>
      <path id="Path_21173" data-name="Path 21173" d="M878.656,844.736l-15.422,67.855-9.854,10.795h-7.11l29.3-123.374,1.449,20.959v.015Z" fill="#2f2e41"/>
      <path id="Path_21174" data-name="Path 21174" d="M952.875,914.081l-90.473-.573-8.03-.053-5.726-.04-6.672-.04h-.053a3.687,3.687,0,0,0-2.584,1.065l-11.266,11.266a2.926,2.926,0,0,0-.6.853,1.321,1.321,0,0,0-.173.292,3.76,3.76,0,0,0,3.382,5.247h117.2a3.732,3.732,0,0,0,3.356-2.13l.918-2,1.891-4.062,2.144-4.58a3.668,3.668,0,0,0,.347-1.559,3.708,3.708,0,0,0-3.663-3.688Z" fill="#2f2e41"/>
      <path id="Path_21175" data-name="Path 21175" d="M952.156,927.97l-.925,2.005a3.728,3.728,0,0,1-3.347,2.128h-117.2a3.754,3.754,0,0,1-3.377-5.244,1.134,1.134,0,0,1,.17-.293Z" opacity="0.17"/>
      <path id="Path_21176" data-name="Path 21176" d="M877.021,820.971v.015l-25.091,102.4h-5.66l29.3-123.374Z" opacity="0.17"/>
      <path id="Path_21177" data-name="Path 21177" d="M907.812,839.736,872.3,569.527a3.855,3.855,0,0,0-1.464-2.557l-24.45-30.6-2.2-1.692a3.9,3.9,0,0,0-2.85-.759l-3.675.493a3.854,3.854,0,0,0-3.33,4.315h0L871.138,818.7v.013l2.25,17.126,2.677,20.334v.027l4.155,31.64a3.9,3.9,0,0,0,3.155,3.3,3.827,3.827,0,0,0,1.612-.054l2.331-.586a3.917,3.917,0,0,0,2.21-1.518l1.039-1.479.479-.692,16.087-44.345a3.833,3.833,0,0,0,.679-2.73Z" fill="#2f2e41"/>
      <path id="Path_21178" data-name="Path 21178" d="M846.376,536.37,891.05,886.817l-.485.686-1.035,1.474a3.9,3.9,0,0,1-2.211,1.519l-2.334.587a3.868,3.868,0,0,1-4.766-3.247L834.336,538.73a3.857,3.857,0,0,1,3.32-4.325l3.685-.484a3.8,3.8,0,0,1,2.838.763Z" opacity="0.17"/>
      <path id="Path_21179" data-name="Path 21179" d="M847.692,546.391,871.4,580.23l28.178,214.4L884.3,824.937Z" fill="#ff639d"/>
      <path id="Path_21180" data-name="Path 21180" d="M1205.56,978.653a11.56,11.56,0,0,1-7.43,10.813,11.236,11.236,0,0,1-3.23.719c-.3.026-.6.04-.9.04h-22.35V1098.7c-.34.44-.68.88-1.03,1.32-1.92,2.45-3.86,4.9-5.83,7.31-.43.53-.85,1.05-1.27,1.57-.65.79-1.29,1.57-1.93,2.35-.22.26-.44.52-.65.78-1.09,1.31-2.19,2.61-3.3,3.92,0,0,.01.01,0,.01q-1.62,1.92-3.28,3.84a11.357,11.357,0,0,1-4.66-4.92c-.01-.01-.01-.02-.03-.05s-.03-.06-.04-.09a11.524,11.524,0,0,1-1.12-5V990.225h-50.12a11.107,11.107,0,0,1-4.31-.839,11.556,11.556,0,0,1-6.96-8.1v-.013a11.4,11.4,0,0,1,.94-7.8c-.02-.014-.02-.014,0-.014a11.073,11.073,0,0,1,2.03-2.85c0-.013,0-.013.02-.026a11.593,11.593,0,0,1,8.28-3.489H1194a11.552,11.552,0,0,1,11.56,11.559Z" fill="#2f2e41"/>
      <path id="Path_21181" data-name="Path 21181" d="M1204.79,755.816a36.245,36.245,0,0,0-36.24,36.241h0a36.247,36.247,0,0,0,29.3,35.57V886.9h23.14V755.816Z" fill="#2f2e41"/>
      <path id="Path_21182" data-name="Path 21182" d="M1058.34,663.547c9.91,13.148,22.85,44.9,18.14,60.676Z" fill="#fd6584"/>
      <path id="Path_25492" data-name="Path 25492" d="M5,0c2.761,0,5,2.686,5,6s-2.239,6-5,6S0,9.314,0,6,2.239,0,5,0Z" transform="translate(1037 716)" fill="#2f2e41"/>
    </g>
  </g>
  <g id="Group_566" data-name="Group 566" transform="translate(159.262 629.495)">
    <path id="Path_21183" data-name="Path 21183" d="M472.026,420.53c-1.726-2.91-9.192.206-10.565-2.435s5.569-6.641,9.532-15.8c.715-1.652,5.219-12.061,1.885-15.273-6.32-6.088-35.24,19.036-45.361,10.814-2.221-1.8-3.773-5.406-10.5-11.255-2.674-2.327-4.291-3.377-5.856-2.986-2.221.555-2.4,3.527-4.778,9.37-3.571,8.764-5.683,8.235-7.764,15.227-1.545,5.191-1.192,8.208-3.009,8.8-2.572.832-4.939-4.674-8.2-4.181-3.326.5-5.337,6.913-5.972,11.713-1.192,9.007,2.116,14.95,3.949,21.2,1.992,6.791,3.175,17.12-1.426,31.741l-45.538,128.3c10.053-26.328,39.163-98.5,51.394-125.317,3.531-7.742,7.43-15.595,15.435-18.694,7.707-2.984,18.292-1.2,31.787-4.453,1.576-.38,5.95-1.492,6.5-4.065.455-2.127-2.117-3.314-1.722-5.306.53-2.672,5.589-2.7,11.806-5.787a36.789,36.789,0,0,0,9.463-6.981c.708-.67,11.233-10.756,8.935-14.63Z" transform="translate(41.532 28.233)" fill="#ff639d"/>
    <path id="Path_21184" data-name="Path 21184" d="M334.4,439.851c-1.926.007-2.551,4.571-4.244,4.483s-1.653-4.65-5-9.238c-.6-.827-4.414-6.041-6.952-5.332-4.812,1.345-.825,22.789-7.78,25.384-1.526.569-3.742.292-8.552,1.9-1.913.641-2.9,1.132-3.155,2.013-.369,1.25,1.039,2.194,3.22,5.049,3.271,4.281,2.4,5.165,5.233,8.2,2.1,2.256,3.685,2.953,3.449,4.015-.334,1.5-3.719,1.076-4.418,2.818-.713,1.778,1.853,4.614,4.025,6.311,4.077,3.184,7.948,3.275,11.544,4.179,3.908.982,9.318,3.381,15.167,9.858l49.833,59.37c-10.021-12.531-37.044-47.641-46.678-61.383-2.781-3.967-5.51-8.146-4.722-12.97.759-4.644,4.688-9.325,6.986-16.886.268-.883.984-3.351-.119-4.363-.912-.837-2.237.083-3.1-.686-1.158-1.031.285-3.523.566-7.464a20.947,20.947,0,0,0-.7-6.659c-.125-.541-2.038-8.616-4.6-8.607Z" transform="translate(0 76.456)" fill="#ff639d"/>
    <path id="Path_21185" data-name="Path 21185" d="M335.531,461.9l-1.161-10.36.53-.785a19.168,19.168,0,0,0,3.719-10.545c0-.535-.023-1.071-.048-1.616a16.2,16.2,0,0,1,1.176-7.979c.785-1.746,2.991-5.788,6.308-5.288a3.757,3.757,0,0,1,2.081,1.015c.075-.12.153-.24.235-.37a11.4,11.4,0,0,1,2.639-2.9,13.324,13.324,0,0,0,2.211-2.236c.43-.535.765-1.005,1.048-1.4.858-1.2,1.978-2.621,3.954-2.6,2.111.1,3.217,1.846,3.949,3a24.975,24.975,0,0,1,2.294,4.532,7.83,7.83,0,0,0,.388.89c.68,1,6.211.065,8.294-.275,4.68-.78,8.729-1.456,10.4,1.5,1.2,2.111.308,4.9-2.719,8.519a16.915,16.915,0,0,1-2.836,2.651,3.467,3.467,0,0,1,1.666,2.176h0c.63,2.511-1.528,5.027-6.413,7.489a17.244,17.244,0,0,1-5.135,1.831,20.159,20.159,0,0,1-2.879.255,3.409,3.409,0,0,1-.423,1.536c-.858,1.576-2.644,2.326-5.335,2.146a41.831,41.831,0,0,1-7.551-1.216,18.314,18.314,0,0,0-4.767-.71c-2.356.19-4.172,2.076-6.3,4.522l-5.32,6.218Z" transform="translate(37.296 63.03)" fill="#ff639d"/>
    <path id="Path_21186" data-name="Path 21186" d="M362.82,428.439l-9.727,3.75-.894-.314a19.167,19.167,0,0,0-11.144-.923c-.518.133-1.03.293-1.551.456a16.206,16.206,0,0,1-8.016.887c-1.888-.317-6.357-1.426-6.715-4.761a3.756,3.756,0,0,1,.454-2.271c-.135-.042-.271-.087-.418-.134a11.4,11.4,0,0,1-3.476-1.817,13.325,13.325,0,0,0-2.724-1.572c-.627-.28-1.167-.485-1.621-.658-1.374-.527-3.037-1.249-3.514-3.167-.439-2.067.97-3.58,1.9-4.582a24.975,24.975,0,0,1,3.8-3.368,7.838,7.838,0,0,0,.763-.6c.8-.912-1.512-6.024-2.37-7.953-1.942-4.329-3.622-8.075-1.191-10.437,1.739-1.692,4.664-1.541,8.93.469a16.91,16.91,0,0,1,3.284,2.071,3.467,3.467,0,0,1,1.682-2.163h0c2.269-1.247,5.251.2,8.87,4.3a17.244,17.244,0,0,1,3.074,4.5,20.175,20.175,0,0,1,.977,2.72,3.408,3.408,0,0,1,1.593.019c1.742.43,2.921,1.967,3.429,4.616a41.83,41.83,0,0,1,.74,7.613,18.309,18.309,0,0,0,.522,4.792c.782,2.231,3.066,3.509,5.973,4.95l7.364,3.569Z" transform="translate(15.392 34.81)" fill="#ff639d"/>
    <path id="Path_21187" data-name="Path 21187" d="M335.531,416.8l-1.161-10.36.53-.785a19.168,19.168,0,0,0,3.719-10.545c0-.535-.023-1.071-.048-1.616a16.2,16.2,0,0,1,1.176-7.979c.785-1.746,2.991-5.788,6.308-5.288a3.757,3.757,0,0,1,2.081,1.015c.075-.12.153-.24.235-.37a11.4,11.4,0,0,1,2.639-2.9,13.325,13.325,0,0,0,2.211-2.236c.43-.535.765-1.005,1.048-1.4.858-1.2,1.978-2.621,3.954-2.6,2.111.1,3.217,1.846,3.949,3a24.976,24.976,0,0,1,2.294,4.532,7.83,7.83,0,0,0,.388.891c.68,1,6.211.065,8.294-.275,4.68-.78,8.729-1.456,10.4,1.5,1.2,2.111.308,4.9-2.719,8.519a16.919,16.919,0,0,1-2.836,2.651,3.467,3.467,0,0,1,1.666,2.176h0c.63,2.511-1.528,5.027-6.413,7.489a17.245,17.245,0,0,1-5.135,1.831,20.172,20.172,0,0,1-2.879.255,3.41,3.41,0,0,1-.423,1.536c-.858,1.576-2.644,2.326-5.335,2.146a41.828,41.828,0,0,1-7.551-1.216,18.315,18.315,0,0,0-4.767-.71c-2.356.19-4.172,2.076-6.3,4.522l-5.32,6.218Z" transform="translate(37.296 15.932)" fill="#ff639d"/>
    <path id="Path_21188" data-name="Path 21188" d="M355.215,617.253l-2.171-1.361-.525-2.506.525,2.506-2.531.29c-.04-.235-.178-.775-.385-1.621a362.283,362.283,0,0,1-7.469-40.93,417.308,417.308,0,0,1-3.384-47.363c-.235-15.958.52-28.039,1.126-37.749.458-7.324,1.013-14.3,1.558-21.09,1.451-18.149,2.819-35.292,1.8-54.272a50.282,50.282,0,0,0-5.85-22.441,47.652,47.652,0,0,0-12.238-14.357l3.192-4.012A52.857,52.857,0,0,1,342.4,388.256a55.069,55.069,0,0,1,6.476,24.632c1.036,19.314-.348,36.623-1.813,54.947-.54,6.768-1.1,13.712-1.551,21.005-.6,9.62-1.348,21.6-1.116,37.348a412.207,412.207,0,0,0,3.339,46.783,356.544,356.544,0,0,0,7.369,40.37c.6,2.436.72,2.946.11,3.912Z" transform="translate(28.212 16.574)" fill="#ff639d"/>
    <path id="Path_21189" data-name="Path 21189" d="M331.1,401.072c-.21,0-.423,0-.638-.02-4.362-.235-8.4-2.846-12.008-7.759-1.691-2.311-2.556-4.947-4.282-10.205a63.99,63.99,0,0,1-2.359-10.58c-.518-3.7-.453-5.243.28-6.608a7.817,7.817,0,0,1,3.609-3.3,2.894,2.894,0,0,1,.2-1.511c.873-2.136,3.194-1.856,4.45-1.721a12.583,12.583,0,0,0,2.284.14,6.437,6.437,0,0,0,3.164-1.066,14.245,14.245,0,0,1,4.285-1.686,15.272,15.272,0,0,1,8.059.64c5.54,1.846,8.272,6.153,11.433,11.14a39.114,39.114,0,0,1,4.222,9.635c1.031,3.6.885,5.2.575,6.393-.63,2.446-2.118,3.847-5.9,6.938a68.7,68.7,0,0,1-7.629,5.843c-3.959,2.286-6.446,3.722-9.747,3.722Z" transform="translate(13.389 0)" fill="#ff639d"/>
  </g>
</svg>
