<svg id="undraw_software_engineer_re_tnjc" xmlns="http://www.w3.org/2000/svg" xmlns:xlink="http://www.w3.org/1999/xlink" width="1500" height="1500" viewBox="0 0 1500 1500" opacity="0.3">
  <defs>
    <clipPath id="clip-path">
      <rect id="Rectangle_2454" data-name="Rectangle 2454" width="1182" height="747" transform="translate(159 376)" fill="#666"/>
    </clipPath>
  </defs>
  <g id="undraw_software_engineer_re_tnjc-2" data-name="undraw_software_engineer_re_tnjc">
    <rect id="Rectangle_2453" data-name="Rectangle 2453" width="1500" height="1500" fill="#fff" opacity="0"/>
    <g id="Group_576" data-name="Group 576" clip-path="url(#clip-path)">
      <path id="Path_21684" data-name="Path 21684" d="M1199.83,1059.16l1.16-25.89a83.658,83.658,0,0,1,38.99-9.87c-18.73,15.31-16.39,44.83-29.09,65.42a50.278,50.278,0,0,1-36.87,23.24l-15.67,9.59a84.282,84.282,0,0,1,17.76-68.28,81.512,81.512,0,0,1,14.96-13.9C1194.82,1049.37,1199.83,1059.16,1199.83,1059.16Z" fill="#f2f2f2"/>
      <path id="Path_21685" data-name="Path 21685" d="M407.6,1030.79l-37.819-11.45a127.5,127.5,0,0,1,.1-61.344c15.574,33.444,60.074,41.1,85.721,67.624a76.692,76.692,0,0,1,20.453,63.25l8.278,26.77a128.475,128.475,0,0,1-94.218-51.96,124.177,124.177,0,0,1-14.907-27.34c16.04-1.82,32.393-5.55,32.393-5.55Z" fill="#f2f2f2"/>
      <path id="Path_21686" data-name="Path 21686" d="M1068.79,1117.42a3.04,3.04,0,0,1-.87,2.09,2.893,2.893,0,0,1-2.08.85H1054a2.921,2.921,0,0,1-2.94-2.92v-358.1c0-7.894-2.65-14.3-5.91-14.315H308.085c-3.27.014-5.906,6.421-5.92,14.315V1115.22a2.963,2.963,0,0,1-2.666,2.94c-2.386.23-4.772.44-7.143.63-.059,0-.117.01-.176.01-1.3.12-2.592.21-3.888.31h-.015c-.677-1.22-1.325-2.47-1.988-3.72a3.106,3.106,0,0,1-.324-1.37V740.766c0-2.179.088-4.374.235-6.539a83.891,83.891,0,0,1,1.1-8.866c2.489-13.681,8.115-22.945,14.506-22.974h749.6a6.88,6.88,0,0,1,2.71.574,10.485,10.485,0,0,1,3.34,2.342,20.531,20.531,0,0,1,3.29,4.492c3.15,5.552,5.4,13.829,6.2,23.46,0,.089.01.177.01.265.21,2.386.31,4.816.3,7.246l.2,31.561.14,18.822.39,59.056.15,20.972.65,246.243Z" fill="#e6e6e6"/>
      <path id="Path_21687" data-name="Path 21687" d="M795.238,593.207H720.122a4.007,4.007,0,0,0-4,4.012V715.883H799.25V597.219a4.01,4.01,0,0,0-4.008-4.012Zm-37.3,67.424a8.912,8.912,0,0,1-8.87-8.871V638.074a8.87,8.87,0,1,1,17.74,0V651.76A8.912,8.912,0,0,1,757.933,660.631Z" fill="#ccc"/>
      <path id="Path_21688" data-name="Path 21688" d="M715.863,712.09v11.449a2.243,2.243,0,0,0,2.238,2.238H797.27a2.25,2.25,0,0,0,2.238-2.238V712.09Z" fill="#3f3d56"/>
      <path id="Path_21689" data-name="Path 21689" d="M919.623,408.02H598.533a10.424,10.424,0,0,0-10.407,10.406v216.68a10.418,10.418,0,0,0,10.407,10.407h321.09a10.418,10.418,0,0,0,10.407-10.407V418.426a10.424,10.424,0,0,0-10.407-10.406Z" fill="#e6e6e6"/>
      <path id="Path_21690" data-name="Path 21690" d="M916.943,415.535H601.216a5.579,5.579,0,0,0-5.566,5.577V632.421a5.576,5.576,0,0,0,5.566,5.566H916.943a5.575,5.575,0,0,0,5.565-5.566V421.112A5.578,5.578,0,0,0,916.943,415.535Z" fill="#fff"/>
      <path id="Path_21691" data-name="Path 21691" d="M855.444,729.762H667.6a3.455,3.455,0,0,1-3.456-3.455,3.4,3.4,0,0,1,.075-.712l2.914-13.844a3.471,3.471,0,0,1,3.381-2.743H852.53a3.471,3.471,0,0,1,3.381,2.743l2.915,13.844a3.456,3.456,0,0,1-3.382,4.167Z" fill="#ccc"/>
      <path id="Path_21692" data-name="Path 21692" d="M676.918,711.5h-4.347a.719.719,0,0,0-.719.719v2.033a.719.719,0,0,0,.719.719h4.347a.719.719,0,0,0,.719-.719v-2.033A.719.719,0,0,0,676.918,711.5Z" fill="#e6e6e6"/>
      <path id="Path_21693" data-name="Path 21693" d="M688.489,711.5h-4.348a.719.719,0,0,0-.719.719v2.033a.719.719,0,0,0,.719.719h4.348a.719.719,0,0,0,.719-.719v-2.033A.719.719,0,0,0,688.489,711.5Z" fill="#e6e6e6"/>
      <path id="Path_21694" data-name="Path 21694" d="M700.06,711.5h-4.348a.719.719,0,0,0-.719.719v2.033a.719.719,0,0,0,.719.719h4.348a.718.718,0,0,0,.718-.719v-2.033A.718.718,0,0,0,700.06,711.5Z" fill="#e6e6e6"/>
      <path id="Path_21695" data-name="Path 21695" d="M711.63,711.5h-4.347a.719.719,0,0,0-.719.719v2.033a.719.719,0,0,0,.719.719h4.347a.719.719,0,0,0,.719-.719v-2.033A.719.719,0,0,0,711.63,711.5Z" fill="#e6e6e6"/>
      <path id="Path_21696" data-name="Path 21696" d="M723.2,711.5h-4.348a.719.719,0,0,0-.719.719v2.033a.719.719,0,0,0,.719.719H723.2a.719.719,0,0,0,.719-.719v-2.033A.719.719,0,0,0,723.2,711.5Z" fill="#e6e6e6"/>
      <path id="Path_21697" data-name="Path 21697" d="M734.771,711.5h-4.347a.719.719,0,0,0-.719.719v2.033a.719.719,0,0,0,.719.719h4.347a.719.719,0,0,0,.719-.719v-2.033A.719.719,0,0,0,734.771,711.5Z" fill="#e6e6e6"/>
      <path id="Path_21698" data-name="Path 21698" d="M746.342,711.5h-4.348a.719.719,0,0,0-.719.719v2.033a.719.719,0,0,0,.719.719h4.348a.719.719,0,0,0,.719-.719v-2.033A.719.719,0,0,0,746.342,711.5Z" fill="#e6e6e6"/>
      <path id="Path_21699" data-name="Path 21699" d="M757.913,711.5h-4.348a.719.719,0,0,0-.719.719v2.033a.719.719,0,0,0,.719.719h4.348a.718.718,0,0,0,.718-.719v-2.033A.718.718,0,0,0,757.913,711.5Z" fill="#e6e6e6"/>
      <path id="Path_21700" data-name="Path 21700" d="M769.483,711.5h-4.347a.719.719,0,0,0-.719.719v2.033a.719.719,0,0,0,.719.719h4.347a.719.719,0,0,0,.719-.719v-2.033A.719.719,0,0,0,769.483,711.5Z" fill="#e6e6e6"/>
      <path id="Path_21701" data-name="Path 21701" d="M781.054,711.5h-4.348a.719.719,0,0,0-.719.719v2.033a.719.719,0,0,0,.719.719h4.348a.719.719,0,0,0,.719-.719v-2.033A.719.719,0,0,0,781.054,711.5Z" fill="#e6e6e6"/>
      <path id="Path_21702" data-name="Path 21702" d="M792.624,711.5h-4.347a.719.719,0,0,0-.719.719v2.033a.719.719,0,0,0,.719.719h4.347a.719.719,0,0,0,.719-.719v-2.033A.719.719,0,0,0,792.624,711.5Z" fill="#e6e6e6"/>
      <path id="Path_21703" data-name="Path 21703" d="M804.2,711.5h-4.348a.719.719,0,0,0-.719.719v2.033a.719.719,0,0,0,.719.719H804.2a.719.719,0,0,0,.719-.719v-2.033A.719.719,0,0,0,804.2,711.5Z" fill="#e6e6e6"/>
      <path id="Path_21704" data-name="Path 21704" d="M815.766,711.5h-4.348a.719.719,0,0,0-.719.719v2.033a.719.719,0,0,0,.719.719h4.348a.719.719,0,0,0,.719-.719v-2.033A.719.719,0,0,0,815.766,711.5Z" fill="#e6e6e6"/>
      <path id="Path_21705" data-name="Path 21705" d="M827.336,711.5h-4.348a.718.718,0,0,0-.718.719v2.033a.718.718,0,0,0,.718.719h4.348a.719.719,0,0,0,.719-.719v-2.033A.719.719,0,0,0,827.336,711.5Z" fill="#e6e6e6"/>
      <path id="Path_21706" data-name="Path 21706" d="M838.907,711.5h-4.348a.719.719,0,0,0-.719.719v2.033a.719.719,0,0,0,.719.719h4.348a.719.719,0,0,0,.719-.719v-2.033A.719.719,0,0,0,838.907,711.5Z" fill="#e6e6e6"/>
      <path id="Path_21707" data-name="Path 21707" d="M850.478,711.5H846.13a.719.719,0,0,0-.719.719v2.033a.719.719,0,0,0,.719.719h4.348a.718.718,0,0,0,.718-.719v-2.033A.718.718,0,0,0,850.478,711.5Z" fill="#e6e6e6"/>
      <path id="Path_21708" data-name="Path 21708" d="M676.782,717.285h-4.348a.719.719,0,0,0-.719.719v2.033a.718.718,0,0,0,.719.719h4.348a.718.718,0,0,0,.719-.719V718A.719.719,0,0,0,676.782,717.285Z" fill="#e6e6e6"/>
      <path id="Path_21709" data-name="Path 21709" d="M688.352,717.285h-4.347a.719.719,0,0,0-.719.719v2.033a.718.718,0,0,0,.719.719h4.347a.718.718,0,0,0,.719-.719V718A.718.718,0,0,0,688.352,717.285Z" fill="#e6e6e6"/>
      <path id="Path_21710" data-name="Path 21710" d="M699.923,717.285h-4.348a.719.719,0,0,0-.719.719v2.033a.718.718,0,0,0,.719.719h4.348a.718.718,0,0,0,.719-.719V718A.719.719,0,0,0,699.923,717.285Z" fill="#e6e6e6"/>
      <path id="Path_21711" data-name="Path 21711" d="M711.494,717.285h-4.348a.719.719,0,0,0-.719.719v2.033a.718.718,0,0,0,.719.719h4.348a.718.718,0,0,0,.719-.719V718A.719.719,0,0,0,711.494,717.285Z" fill="#e6e6e6"/>
      <path id="Path_21712" data-name="Path 21712" d="M723.064,717.285h-4.347A.718.718,0,0,0,718,718v2.033a.718.718,0,0,0,.719.719h4.347a.718.718,0,0,0,.719-.719V718A.719.719,0,0,0,723.064,717.285Z" fill="#e6e6e6"/>
      <path id="Path_21713" data-name="Path 21713" d="M734.635,717.285h-4.348a.719.719,0,0,0-.719.719v2.033a.718.718,0,0,0,.719.719h4.348a.718.718,0,0,0,.719-.719V718A.719.719,0,0,0,734.635,717.285Z" fill="#e6e6e6"/>
      <path id="Path_21714" data-name="Path 21714" d="M746.205,717.285h-4.347a.719.719,0,0,0-.719.719v2.033a.718.718,0,0,0,.719.719h4.347a.718.718,0,0,0,.719-.719V718A.719.719,0,0,0,746.205,717.285Z" fill="#e6e6e6"/>
      <path id="Path_21715" data-name="Path 21715" d="M757.776,717.285h-4.348a.719.719,0,0,0-.719.719v2.033a.718.718,0,0,0,.719.719h4.348a.718.718,0,0,0,.719-.719V718A.719.719,0,0,0,757.776,717.285Z" fill="#e6e6e6"/>
      <path id="Path_21716" data-name="Path 21716" d="M769.347,717.285H765a.719.719,0,0,0-.719.719v2.033a.718.718,0,0,0,.719.719h4.348a.718.718,0,0,0,.719-.719V718A.719.719,0,0,0,769.347,717.285Z" fill="#e6e6e6"/>
      <path id="Path_21717" data-name="Path 21717" d="M780.917,717.285H776.57a.718.718,0,0,0-.719.719v2.033a.718.718,0,0,0,.719.719h4.347a.718.718,0,0,0,.719-.719V718A.719.719,0,0,0,780.917,717.285Z" fill="#e6e6e6"/>
      <path id="Path_21718" data-name="Path 21718" d="M792.488,717.285H788.14a.719.719,0,0,0-.719.719v2.033a.718.718,0,0,0,.719.719h4.348a.718.718,0,0,0,.719-.719V718A.719.719,0,0,0,792.488,717.285Z" fill="#e6e6e6"/>
      <path id="Path_21719" data-name="Path 21719" d="M804.058,717.285h-4.347a.719.719,0,0,0-.719.719v2.033a.718.718,0,0,0,.719.719h4.347a.718.718,0,0,0,.719-.719V718A.719.719,0,0,0,804.058,717.285Z" fill="#e6e6e6"/>
      <path id="Path_21720" data-name="Path 21720" d="M815.629,717.285h-4.348a.719.719,0,0,0-.719.719v2.033a.718.718,0,0,0,.719.719h4.348a.718.718,0,0,0,.719-.719V718A.719.719,0,0,0,815.629,717.285Z" fill="#e6e6e6"/>
      <path id="Path_21721" data-name="Path 21721" d="M827.2,717.285h-4.348a.719.719,0,0,0-.719.719v2.033a.718.718,0,0,0,.719.719H827.2a.718.718,0,0,0,.719-.719V718A.719.719,0,0,0,827.2,717.285Z" fill="#e6e6e6"/>
      <path id="Path_21722" data-name="Path 21722" d="M838.77,717.285h-4.347a.719.719,0,0,0-.719.719v2.033a.718.718,0,0,0,.719.719h4.347a.718.718,0,0,0,.719-.719V718A.719.719,0,0,0,838.77,717.285Z" fill="#e6e6e6"/>
      <path id="Path_21723" data-name="Path 21723" d="M850.341,717.285h-4.348a.719.719,0,0,0-.719.719v2.033a.718.718,0,0,0,.719.719h4.348a.718.718,0,0,0,.719-.719V718A.719.719,0,0,0,850.341,717.285Z" fill="#e6e6e6"/>
      <path id="Path_21724" data-name="Path 21724" d="M772.817,724.227H727.973a.718.718,0,0,0-.719.719v2.033a.719.719,0,0,0,.719.719h44.844a.719.719,0,0,0,.719-.719v-2.033A.718.718,0,0,0,772.817,724.227Z" fill="#e6e6e6"/>
      <path id="Path_21725" data-name="Path 21725" d="M901.072,444.651H605.647a1.175,1.175,0,0,1,0-2.35H901.072a1.175,1.175,0,0,1,0,2.35Z" fill="#cacaca"/>
      <path id="Path_21726" data-name="Path 21726" d="M625.757,436.3a7.04,7.04,0,1,0-6.885-7.039A6.963,6.963,0,0,0,625.757,436.3Z" fill="#ccc"/>
      <path id="Path_21727" data-name="Path 21727" d="M649.542,436.3a7.04,7.04,0,1,0-6.885-7.039A6.963,6.963,0,0,0,649.542,436.3Z" fill="#ccc"/>
      <path id="Path_21728" data-name="Path 21728" d="M673.326,436.3a7.04,7.04,0,1,0-6.885-7.039A6.963,6.963,0,0,0,673.326,436.3Z" fill="#ccc"/>
      <path id="Path_21729" data-name="Path 21729" d="M753.057,462.466l-.954-2.788,122.024-63.4.953,2.788Z" fill="#3f3d56"/>
      <path id="Path_21730" data-name="Path 21730" d="M1121.23,579.9l-.95-2.788,73.42-63.083.95,2.787Z" fill="#3f3d56"/>
      <path id="Path_21731" data-name="Path 21731" d="M980.161,594.587l-122.025-63.4.955-2.787,122.022,63.4Z" fill="#3f3d56"/>
      <path id="Path_21732" data-name="Path 21732" d="M1042.62,550.467,971.089,433.022l2.261-1.889,71.53,117.445Z" fill="#3f3d56"/>
      <path id="Path_21733" data-name="Path 21733" d="M1098.45,397.434l-69.67-.321v-2.945l69.67.321Z" fill="#3f3d56"/>
      <path id="Path_21734" data-name="Path 21734" d="M1224.66,415.7H1146.6a19.145,19.145,0,0,1,0-38.291h78.06a19.145,19.145,0,0,1,0,38.291Z" fill="#6070ff"/>
      <path id="Path_21735" data-name="Path 21735" d="M1321.85,527.631H1243.8a19.145,19.145,0,0,1,0-38.291h78.05a19.145,19.145,0,1,1,0,38.291Z" fill="#6070ff"/>
      <path id="Path_21736" data-name="Path 21736" d="M1195.65,606.562l-69.67-.32V603.3l69.67.319Z" fill="#3f3d56"/>
      <path id="Path_21737" data-name="Path 21737" d="M1321.85,624.834H1243.8a19.145,19.145,0,0,1,0-38.291h78.05a19.145,19.145,0,1,1,0,38.291Z" fill="#6070ff"/>
      <path id="Path_21738" data-name="Path 21738" d="M1093.59,611.639h-78.06a19.145,19.145,0,0,1,0-38.291h78.06a19.145,19.145,0,0,1,0,38.291Z" fill="#6070ff"/>
      <path id="Path_21739" data-name="Path 21739" d="M987.554,414.291H909.5a19.145,19.145,0,0,1,0-38.291h78.053a19.145,19.145,0,1,1,0,38.291Z" fill="#6070ff"/>
      <path id="Path_21740" data-name="Path 21740" d="M614.479,742.977H526.117a11.781,11.781,0,1,0,0,23.563h32.4v91.31h23.563V766.54h32.4a11.781,11.781,0,0,0,0-23.563Z" fill="#3f3d56"/>
      <path id="Path_21741" data-name="Path 21741" d="M672.8,908.42H436.457a95.44,95.44,0,0,1-94.13-81.937l-8.366-30.773a690.85,690.85,0,0,0-78.319-181.005c-15.828-25.7-23.974-50.586-5.471-74.543l.465-.6c14.84-19.317,88.706-23.5,112.786-24.312q1.428-.048,2.865-.048h147q1.439,0,2.864.048a71.935,71.935,0,0,1,62.2,39.648,74.126,74.126,0,0,1-4.206,75.89c-51.638,77.57-67.448,126.209-51.262,157.708,15.657,30.467,63.651,46.044,151.038,49.02,23.484.8,34.262,19.087,34.337,35.738.073,16.222-10.289,34.132-33.213,35.122q-1.117.047-2.25.047Z" fill="#3f3d56"/>
      <path id="Path_21742" data-name="Path 21742" d="M476.606,1118.29h88.361a11.785,11.785,0,0,0,0-23.57h-32.4V895.9H509.005V1094.72h-32.4a11.785,11.785,0,0,0,0,23.57Z" fill="#3f3d56"/>
      <path id="Path_21743" data-name="Path 21743" d="M556.582,1038.13l15.221,8.27,40.3-55.715L589.632,978.48Z" fill="#F2D9CA"/>
      <path id="Path_21744" data-name="Path 21744" d="M563.909,1018.28l27.633,8.65-4.4,11.58,18.949,27.5a7.735,7.735,0,0,1-9.117,11.62l-32.17-12.22-1.194-13.56-6.516,10.63-12.129-4.61,18.942-39.59Z" fill="#2f2e41"/>
      <path id="Path_21745" data-name="Path 21745" d="M595.042,476.257a17.107,17.107,0,0,1-17.468,19.565L518.886,620.7l-18.407-25.669,60.415-118.086a17.2,17.2,0,0,1,34.148-.692Z" fill="#F2D9CA"/>
      <path id="Path_21746" data-name="Path 21746" d="M400.278,645.955s-1.572,21.817,23.1,26.1,90.628-37.43,101.46-43.834,31.017-86.981,31.017-86.981L538.3,511.543c-21.675,27.418-38.7,52.7-39.729,70.647l-98.294,63.765Z" fill="#6070ff"/>
      <path id="Path_21747" data-name="Path 21747" d="M428.761,721.1,434.09,744s.052,21.112,3.791,25c3.712,3.875,85.35-3.905,85.35-3.905s-8.655-34.019-8.54-59.761L428.761,721.1Z" fill="#F2D9CA"/>
      <path id="Path_21748" data-name="Path 21748" d="M601.224,1013.96l-29.454-16.2c-.56-38.328,22.493-90.2,49.836-144.524-61.151,10.518-118.841,13.887-168.74,1.164A32.254,32.254,0,0,1,429.8,815.437q.292-1.212.674-2.4c5.972-18.221-7.419-29.643,4.9-49.684,32.394-11.064,63.166-14.188,91.307-4.418l17.631,38.985L631.7,786.614a32.224,32.224,0,0,1,35.822,28.173c.01.08.019.161.028.241q.177,1.423.23,2.858c-17.671,82.846-37.485,157.389-66.559,196.074Z" fill="#2f2e41"/>
      <path id="Path_21749" data-name="Path 21749" d="M416.9,576.152l33.667-1.988a6.836,6.836,0,0,1,6.722,4.217l9.514,23.066,39.542,32.683S522,654.053,522.035,679.783s5.555,85.286,5.555,85.286-22.849-32.162-36.952-23.608c-2.4,1.455-3.243,4.431-5.756,5.935-1.254.751-4.15.021-5.416.773-19.434,11.536-39.7,22.807-41.594,20.831-3.719-3.88-8.229-23.707-8.229-23.707L398.825,632.058a41.938,41.938,0,0,1,5.964-35.289c2.153-3.032,4.408-5.287,6.505-5.66,4.707-1,2.2-11.552,5.6-14.957Z" fill="#6070ff"/>
      <path id="Path_21750" data-name="Path 21750" d="M703.292,1086.09l14.211-9.88-32.194-60.74-20.975,14.59Z" fill="#F2D9CA"/>
      <path id="Path_21751" data-name="Path 21751" d="M705.439,1045.34l-22.272,19.91c-35.415-39.47-62.188-94.812-84.876-157.664-59.447-17.411-104.277-45.49-143.414-78.83-13.277-11.235-23.23-25.668-11.906-39.353q.793-.96,1.658-1.857c13.37-13.74,47.274-11.122,67.132-23.71l44.36,47.417-2.791,12.712,83.321,28.225a32.183,32.183,0,0,1,19.727,41.015c-.029.082-.058.165-.088.247q-.468,1.354-1.05,2.667l50.2,149.221Z" fill="#2f2e41"/>
      <path id="Path_21752" data-name="Path 21752" d="M695.005,1082.09l22.75-17.91,7.068,10.16,33.4-.1a7.737,7.737,0,0,1,4.44,14.09L734.4,1107.97l-11.862-6.67,5.09,11.38-10.653,7.41-21.974-38Z" fill="#2f2e41"/>
      <path id="Path_21753" data-name="Path 21753" d="M466.614,861.523a17.108,17.108,0,0,1-7.644-25.09L382.752,721.41l31.495-2.394,69.515,112.968a17.2,17.2,0,0,1-17.148,29.539Z" fill="#F2D9CA"/>
      <path id="Path_21754" data-name="Path 21754" d="M422.791,606.942s-17.825-12.677-34.3,6.183-15.1,96.886-15.252,109.469c-.049,3.94,5.641,12.442,13.479,22.263,3.519,4.409,7.472,9.084,11.532,13.73,2.35,2.69.325,8.287,2.685,10.9s9.078,2.216,11.31,4.629c10.6,11.451,19.2,20.168,19.2,20.168l34.491.424c.389-25.641-17.17-48.528-39.727-70.648l-3.423-117.118Z" fill="#6070ff"/>
      <path id="Path_21755" data-name="Path 21755" d="M388.025,495.3c-3.266,2.357-6.7,4.785-10.685,5.369s-8.65-1.342-9.753-5.216c-1.348-4.736,2.929-9.048,6.772-12.126l12.188-9.759a29.461,29.461,0,0,1,7.473-4.832,9.959,9.959,0,0,1,8.621.288,9.257,9.257,0,0,1,4.069,8.061,17.207,17.207,0,0,1-3.018,8.831,31.06,31.06,0,0,1-20.163,13.706" fill="#2f2e41"/>
      <path id="Path_21756" data-name="Path 21756" d="M480.463,748.867H392.1a11.782,11.782,0,0,0,0,23.564h32.4v91.31h23.563v-91.31h32.4a11.782,11.782,0,0,0,0-23.564Z" fill="#3f3d56"/>
      <path id="Path_21757" data-name="Path 21757" d="M393.438,470.584c.356-8.834-9.057-15.829-17.878-15.276s-16.4,6.758-21.4,14.047-8.005,15.718-11.944,23.626-9.186,15.65-17.015,19.747-18.722,3.362-24.132-3.624a19.456,19.456,0,0,0-2,17.474,26.645,26.645,0,0,0,11.691,13.566,30.659,30.659,0,0,0,6.768,2.976,27.588,27.588,0,0,1,4.074-7.327,22.78,22.78,0,0,0-.877,8.11,27.06,27.06,0,0,0,11.031-.174,23.484,23.484,0,0,0,16.291-13.286c3.308-7.831,1.623-16.761,2.33-25.232s5.808-18.146,14.309-18.284c6.475-.107,5.618.427,9.72,5.437" fill="#2f2e41"/>
      <path id="Path_21758" data-name="Path 21758" d="M452.23,517a38.29,38.29,0,0,1-38.29,38.291c-21.147,0-41.236-24.507-41.236-45.655s20.089-30.927,41.236-30.927A38.29,38.29,0,0,1,452.23,517Z" fill="#2f2e41"/>
      <path id="Path_21759" data-name="Path 21759" d="M432.808,562.889A36.531,36.531,0,1,0,389.7,534.423,36.531,36.531,0,0,0,432.808,562.889Z" fill="#F2D9CA"/>
      <path id="Path_21760" data-name="Path 21760" d="M471.375,521.42c-10.814,2.953-21.733,6.048-25.949,0a33.242,33.242,0,0,0-4.58-11.281,45.676,45.676,0,0,1-2.7,11.281c-13.662,2.97-26.431,3.68-37.465,0a20.929,20.929,0,0,0-2.578,8.925,12.588,12.588,0,0,0-1.708-.9,2.827,2.827,0,0,0-2.327-.206,2.008,2.008,0,0,0-.957,1.488,5.583,5.583,0,0,0,.088,1.841,14,14,0,0,0,1.841,5.979,5.456,5.456,0,0,0,3.7,2.371c1.531,8.615,13.725,20.265,13.725,20.265-36.817,1.473-36.817-23.505-36.817-47.128l4.418-8.836H394.8V486.074H436.03a35.355,35.355,0,0,1,35.345,35.346Z" fill="#2f2e41"/>
      <path id="Path_21761" data-name="Path 21761" d="M806.907,1122.55l-646.144.45a1.755,1.755,0,0,1-.019-3.51h.019l646.144-.45a1.755,1.755,0,0,1,0,3.51Z" fill="#cacaca"/>
      <path id="Path_21762" data-name="Path 21762" d="M1238.41,1122.55l-333.937.45a1.755,1.755,0,0,1-.019-3.51h.019l333.937-.45a1.755,1.755,0,0,1,.01,3.51Z" fill="#cacaca"/>
      <path id="Path_21763" data-name="Path 21763" d="M821.674,593.964H695.092a19.938,19.938,0,0,1-19.916-19.917V490.17a19.938,19.938,0,0,1,19.916-19.916H821.674A19.938,19.938,0,0,1,841.59,490.17v83.877A19.938,19.938,0,0,1,821.674,593.964ZM695.092,473.2a16.991,16.991,0,0,0-16.971,16.971v83.877a16.99,16.99,0,0,0,16.971,16.971H821.674a16.99,16.99,0,0,0,16.971-16.971V490.17A16.991,16.991,0,0,0,821.674,473.2Z" fill="#e6e6e6"/>
      <path id="Path_21764" data-name="Path 21764" d="M732.6,496.766H698.739v2.945H732.6Z" fill="#e6e6e6"/>
      <path id="Path_21765" data-name="Path 21765" d="M773.846,508.547H698.739v2.945h75.107Z" fill="#e6e6e6"/>
      <path id="Path_21766" data-name="Path 21766" d="M773.846,518.855H698.739V521.8h75.107Z" fill="#e6e6e6"/>
      <path id="Path_21767" data-name="Path 21767" d="M794.464,529.164H698.739v2.946h95.725Z" fill="#e6e6e6"/>
      <path id="Path_21768" data-name="Path 21768" d="M748.81,539.473H698.739v2.945H748.81Z" fill="#e6e6e6"/>
      <path id="Path_21769" data-name="Path 21769" d="M790.046,549.781H698.739v2.946h91.307Z" fill="#e6e6e6"/>
      <path id="Path_21770" data-name="Path 21770" d="M714.938,560.094h-16.2v2.945h16.2Z" fill="#e6e6e6"/>
      <path id="Path_21771" data-name="Path 21771" d="M697.636,433.377a.547.547,0,0,1-.394-.166L694.1,430a.551.551,0,0,1,0-.77l3.142-3.212a.551.551,0,0,1,.788.77l-2.766,2.827,2.766,2.827a.551.551,0,0,1-.394.936Z" fill="#ccc"/>
      <path id="Path_21772" data-name="Path 21772" d="M702.916,433.374a.552.552,0,0,1-.394-.936l2.766-2.827-2.766-2.827a.551.551,0,0,1,.788-.771l3.142,3.212a.552.552,0,0,1,0,.771l-3.142,3.212a.55.55,0,0,1-.394.165Z" fill="#ccc"/>
      <path id="Path_21773" data-name="Path 21773" d="M867.3,425.4H861.46a1.206,1.206,0,0,0-1.206,1.206v5.849a1.206,1.206,0,0,0,1.206,1.206H867.3a1.21,1.21,0,0,0,1.211-1.206v-5.849A1.21,1.21,0,0,0,867.3,425.4Z" fill="#ccc"/>
      <path id="Path_21774" data-name="Path 21774" d="M852.985,425.4h-5.843a1.206,1.206,0,0,0-1.206,1.206v5.849a1.206,1.206,0,0,0,1.206,1.206h5.843a1.21,1.21,0,0,0,1.211-1.206v-5.849A1.21,1.21,0,0,0,852.985,425.4Z" fill="#ccc"/>
      <path id="Path_21775" data-name="Path 21775" d="M880.795,425.68h-5.843a1.205,1.205,0,0,0-1.206,1.206v5.848a1.205,1.205,0,0,0,1.206,1.206h5.843a1.21,1.21,0,0,0,1.211-1.206v-5.848A1.21,1.21,0,0,0,880.795,425.68Z" fill="#ccc"/>
      <path id="Path_21776" data-name="Path 21776" d="M792.727,427.9h-46.7a1.47,1.47,0,0,0,0,2.941h46.7a1.47,1.47,0,1,0,0-2.941Z" fill="#ccc"/>
      <path id="Path_25492" data-name="Path 25492" d="M4.194,0C6.511,0,8.389,2.253,8.389,5.033s-1.878,5.033-4.194,5.033S0,7.813,0,5.033,1.878,0,4.194,0Z" transform="translate(428 531)" fill="#2f2e41"/>
      <path id="Path_25514" data-name="Path 25514" d="M4.194,0C6.511,0,8.389,2.253,8.389,5.033s-1.878,5.033-4.194,5.033S0,7.813,0,5.033,1.878,0,4.194,0Z" transform="translate(448.133 531)" fill="#2f2e41"/>
    </g>
  </g>
  <path id="Path_21954" data-name="Path 21954" d="M355.114,589.211c0,57.76-60.554,85.4-60.554,85.4s-61.176-27.638-62.418-85.4c-.73-33.95,27.528-61.486,61.486-61.486a61.486,61.486,0,0,1,61.486,61.486Z" transform="translate(226.786 -286.726)" fill="#e5e5e5"/>
  <path id="Path_21955" data-name="Path 21955" d="M147.842,557.3H106.851l-4.969-19.874H152.81Z" transform="translate(394 -166)" fill="#cbcbcb"/>
  <rect id="Rectangle_2461" data-name="Rectangle 2461" width="38.196" height="19.905" transform="translate(502.248 425.288)" fill="#fff"/>
  <path id="Path_21956" data-name="Path 21956" d="M313.968,732.228H275.151V711.7h38.817Zm-38.2-.621h37.575V712.323H275.772Z" transform="translate(226.786 -286.726)" fill="#cbcbcb"/>
  <path id="Path_21957" data-name="Path 21957" d="M135.176,559.643H119.517l-1.8-2.824h19.253Z" transform="translate(394 -166)" fill="#cbcbcb"/>
  <rect id="Rectangle_2462" data-name="Rectangle 2462" width="0.621" height="30.432" transform="translate(501.161 391.299)" fill="#cbcbcb"/>
  <rect id="Rectangle_2463" data-name="Rectangle 2463" width="0.621" height="30.432" transform="translate(540.91 391.299)" fill="#cbcbcb"/>
  <path id="Path_21958" data-name="Path 21958" d="M300.785,657.814l-.379-.492c17.942-13.836,39.33-37.54,39.33-71.89a61.092,61.092,0,0,0-37.363-56.368l.242-.572a61.712,61.712,0,0,1,37.742,56.94C340.357,620.034,318.838,643.892,300.785,657.814Z" transform="translate(226.786 -286.726)" fill="#cbcbcb"/>
  <path id="Path_21959" data-name="Path 21959" d="M280.911,657.814l-.379-.492c17.942-13.836,39.33-37.54,39.33-71.89a61.164,61.164,0,0,0-36.938-56.186l.246-.57a61.784,61.784,0,0,1,37.313,56.756C320.483,620.034,298.963,643.893,280.911,657.814Z" transform="translate(226.786 -286.726)" fill="#cbcbcb"/>
  <path id="Path_21960" data-name="Path 21960" d="M306.345,657.814c-18.053-13.921-39.572-37.779-39.572-72.382a61.784,61.784,0,0,1,37.313-56.757l.246.57a61.163,61.163,0,0,0-36.938,56.186c0,34.35,21.388,58.054,39.33,71.89Z" transform="translate(226.786 -286.726)" fill="#cbcbcb"/>
  <path id="Path_21961" data-name="Path 21961" d="M286.471,657.814c-18.053-13.921-39.572-37.779-39.572-72.382a61.669,61.669,0,0,1,37.995-57.046l.239.573a61.049,61.049,0,0,0-37.613,56.473c0,34.35,21.388,58.054,39.33,71.89Z" transform="translate(226.786 -286.726)" fill="#cbcbcb"/>
  <rect id="Rectangle_2464" data-name="Rectangle 2464" width="0.621" height="130.425" transform="translate(520.104 241)" fill="#cbcbcb"/>
  <line id="Line_21" data-name="Line 21" y1="11.389" x2="11.389" transform="translate(502.248 420.994)" fill="#fff"/>
  <rect id="Rectangle_2465" data-name="Rectangle 2465" width="16.106" height="0.621" transform="translate(502.032 432.165) rotate(-45)" fill="#cbcbcb"/>
  <line id="Line_22" data-name="Line 22" y1="17.803" x2="16.932" transform="translate(502.248 420.8)" fill="#fff"/>
  <rect id="Rectangle_2466" data-name="Rectangle 2466" width="24.569" height="0.621" transform="translate(502.027 438.392) rotate(-46.444)" fill="#cbcbcb"/>
  <rect id="Rectangle_2467" data-name="Rectangle 2467" width="46.58" height="5.59" transform="translate(497.435 420.8)" fill="#fff"/>
  <path id="Path_21962" data-name="Path 21962" d="M317.539,713.426h-47.2v-6.211h47.2Zm-46.58-.621h45.959v-4.969H270.959Z" transform="translate(226.786 -286.726)" fill="#cbcbcb"/>
  <path id="Path_21963" data-name="Path 21963" d="M472.3,442.831c0,38.124-39.969,56.366-39.969,56.366s-40.379-18.242-41.2-56.366c-.482-22.408,18.17-40.583,40.583-40.583A40.583,40.583,0,0,1,472.3,442.831Z" transform="translate(226.786 -286.726)" fill="#e5e5e5"/>
  <path id="Path_21964" data-name="Path 21964" d="M278.65,380.726H251.594l-3.279-13.118H281.93Z" transform="translate(394 -166)" fill="#cbcbcb"/>
  <rect id="Rectangle_2468" data-name="Rectangle 2468" width="25.211" height="13.138" transform="translate(646.517 237.16)" fill="#fff"/>
  <path id="Path_21965" data-name="Path 21965" d="M445.146,537.228H419.525V523.68h25.621Zm-25.211-.41h24.8V524.09h-24.8Z" transform="translate(226.786 -286.726)" fill="#cbcbcb"/>
  <path id="Path_21966" data-name="Path 21966" d="M270.29,382.273H259.954l-1.186-1.864h12.708Z" transform="translate(394 -166)" fill="#cbcbcb"/>
  <rect id="Rectangle_2469" data-name="Rectangle 2469" width="0.41" height="20.087" transform="translate(645.8 214.726)" fill="#cbcbcb"/>
  <rect id="Rectangle_2470" data-name="Rectangle 2470" width="0.41" height="20.087" transform="translate(672.035 214.726)" fill="#cbcbcb"/>
  <path id="Path_21967" data-name="Path 21967" d="M436.445,488.111l-.25-.325c11.843-9.133,25.96-24.778,25.96-47.451a40.323,40.323,0,0,0-24.661-37.205l.16-.378a40.732,40.732,0,0,1,24.912,37.583C462.564,463.175,448.36,478.923,436.445,488.111Z" transform="translate(226.786 -286.726)" fill="#cbcbcb"/>
  <path id="Path_21968" data-name="Path 21968" d="M423.327,488.112l-.25-.325c11.843-9.133,25.96-24.778,25.96-47.451a40.371,40.371,0,0,0-24.381-37.085l.163-.376a40.78,40.78,0,0,1,24.628,37.462C449.446,463.175,435.242,478.923,423.327,488.112Z" transform="translate(226.786 -286.726)" fill="#cbcbcb"/>
  <path id="Path_21969" data-name="Path 21969" d="M440.115,488.111C428.2,478.923,414,463.175,414,440.336a40.78,40.78,0,0,1,24.628-37.462l.163.376a40.371,40.371,0,0,0-24.381,37.085c0,22.673,14.117,38.318,25.96,47.451Z" transform="translate(226.786 -286.726)" fill="#cbcbcb"/>
  <path id="Path_21970" data-name="Path 21970" d="M427,488.111c-11.915-9.189-26.119-24.936-26.119-47.775a40.7,40.7,0,0,1,25.078-37.653l.158.378a40.3,40.3,0,0,0-24.826,37.275c0,22.673,14.117,38.318,25.96,47.451Z" transform="translate(226.786 -286.726)" fill="#cbcbcb"/>
  <rect id="Rectangle_2471" data-name="Rectangle 2471" width="0.41" height="86.086" transform="translate(658.303 115.522)" fill="#cbcbcb"/>
  <line id="Line_23" data-name="Line 23" y1="7.517" x2="7.517" transform="translate(646.517 234.326)" fill="#fff"/>
  <rect id="Rectangle_2472" data-name="Rectangle 2472" width="10.631" height="0.41" transform="translate(646.375 241.699) rotate(-45)" fill="#cbcbcb"/>
  <line id="Line_24" data-name="Line 24" y1="11.751" x2="11.176" transform="translate(646.517 234.198)" fill="#fff"/>
  <rect id="Rectangle_2473" data-name="Rectangle 2473" width="16.217" height="0.41" transform="translate(646.372 245.809) rotate(-46.444)" fill="#cbcbcb"/>
  <rect id="Rectangle_2474" data-name="Rectangle 2474" width="30.745" height="3.689" transform="translate(643.34 234.198)" fill="#fff"/>
  <path id="Path_21971" data-name="Path 21971" d="M447.5,524.818H416.348v-4.1H447.5Zm-30.745-.41h30.335v-3.279H416.758Z" transform="translate(226.786 -286.726)" fill="#cbcbcb"/>
</svg>
