<svg xmlns="http://www.w3.org/2000/svg" xmlns:xlink="http://www.w3.org/1999/xlink" width="1500" height="1500" viewBox="0 0 1500 1500">
  <defs>
    <clipPath id="clip-undraw_up_to_date_re_nqid">
      <rect width="1500" height="1500"/>
    </clipPath>
  </defs>
  <g id="undraw_up_to_date_re_nqid" clip-path="url(#clip-undraw_up_to_date_re_nqid)">
    <rect width="1500" height="1500" opacity="0"/>
    <g id="undraw_up_to_date_re_nqid-2" data-name="undraw_up_to_date_re_nqid">
      <g id="Group_108" data-name="Group 108" transform="translate(68 305)">
        <path id="Path_2355" data-name="Path 2355" d="M409.528,259.5H790.472a47.725,47.725,0,0,1,16.908,3.045,43.99,43.99,0,0,1,13.831,8.319,38.878,38.878,0,0,1,9.351,12.376,35.215,35.215,0,0,1,3.438,15.2V601.564a35.215,35.215,0,0,1-3.438,15.2,38.878,38.878,0,0,1-9.351,12.376,43.99,43.99,0,0,1-13.831,8.319,47.725,47.725,0,0,1-16.908,3.045H409.528a47.725,47.725,0,0,1-16.908-3.045,43.992,43.992,0,0,1-13.831-8.319,38.876,38.876,0,0,1-9.351-12.376,35.215,35.215,0,0,1-3.438-15.2V298.436a35.215,35.215,0,0,1,3.438-15.2,38.877,38.877,0,0,1,9.351-12.376,43.989,43.989,0,0,1,13.831-8.319A47.725,47.725,0,0,1,409.528,259.5Zm380.943,379a45.73,45.73,0,0,0,16.2-2.917,42,42,0,0,0,13.205-7.94,36.887,36.887,0,0,0,8.876-11.74A33.23,33.23,0,0,0,832,601.564V298.436a33.231,33.231,0,0,0-3.245-14.339,36.887,36.887,0,0,0-8.876-11.74,42,42,0,0,0-13.205-7.94,45.734,45.734,0,0,0-16.2-2.916H409.528a45.734,45.734,0,0,0-16.2,2.916,42,42,0,0,0-13.205,7.94,36.889,36.889,0,0,0-8.876,11.74A33.23,33.23,0,0,0,368,298.436V601.564a33.229,33.229,0,0,0,3.245,14.339,36.889,36.889,0,0,0,8.876,11.74,42,42,0,0,0,13.205,7.94,45.73,45.73,0,0,0,16.2,2.917Z" transform="translate(-229 -195.5)" fill="#e8cfbe"/>
        <path id="Path_2382" data-name="Path 2382" d="M795.365,306.5H393.635a1,1,0,0,1,0-2h401.73a1,1,0,0,1,0,2Z" transform="translate(-229 -195.5)" fill="#e8cfbe"/>
        <ellipse id="Ellipse_440" data-name="Ellipse 440" cx="7.728" cy="7.9" rx="7.728" ry="7.9" transform="translate(201.927 79.199)" fill="#e8cfbe"/>
        <ellipse id="Ellipse_441" data-name="Ellipse 441" cx="7.728" cy="7.9" rx="7.728" ry="7.9" transform="translate(228.623 79.199)" fill="#e8cfbe"/>
        <ellipse id="Ellipse_442" data-name="Ellipse 442" cx="7.728" cy="7.9" rx="7.728" ry="7.9" transform="translate(255.319 79.199)" fill="#e8cfbe"/>
        <path id="Path_2383" data-name="Path 2383" d="M522.489,288.844a.911.911,0,0,1-.653-.275l-5.214-5.33a.913.913,0,0,1,0-1.278l5.214-5.33a.914.914,0,1,1,1.307,1.278l-4.589,4.691,4.589,4.691a.914.914,0,0,1-.653,1.553Z" transform="translate(-229 -195.5)" fill="#e8cfbe"/>
        <path id="Path_2384" data-name="Path 2384" d="M531.251,288.844a.914.914,0,0,1-.653-1.553l4.589-4.691-4.589-4.691a.914.914,0,0,1,1.307-1.278l5.214,5.33a.913.913,0,0,1,0,1.278l-5.214,5.33A.911.911,0,0,1,531.251,288.844Z" transform="translate(-229 -195.5)" fill="#e8cfbe"/>
        <path id="Path_2385" data-name="Path 2385" d="M733.674,275.614h-9.7a2,2,0,0,0-2,2v9.7a2,2,0,0,0,2,2h9.7a2.008,2.008,0,0,0,2.01-2v-9.7A2.008,2.008,0,0,0,733.674,275.614Z" transform="translate(-229 -195.5)" fill="#e8cfbe"/>
        <path id="Path_2386" data-name="Path 2386" d="M709.914,275.614h-9.7a2,2,0,0,0-2,2v9.7a2,2,0,0,0,2,2h9.7a2.008,2.008,0,0,0,2.01-2v-9.7A2.008,2.008,0,0,0,709.914,275.614Z" transform="translate(-229 -195.5)" fill="#e8cfbe"/>
        <path id="Path_2387" data-name="Path 2387" d="M756.063,276.071h-9.7a2,2,0,0,0-2,2v9.7a2,2,0,0,0,2,2h9.7a2.008,2.008,0,0,0,2.01-2v-9.7a2.008,2.008,0,0,0-2.01-2Z" transform="translate(-229 -195.5)" fill="#e8cfbe"/>
        <path id="Path_2388" data-name="Path 2388" d="M650.13,279.763h-77.5a2.44,2.44,0,1,0,0,4.88h77.5a2.44,2.44,0,1,0,0-4.88Z" transform="translate(-229 -195.5)" fill="#e8cfbe"/>
      </g>
      <path id="Path_903" data-name="Path 903" d="M1007.143,631.616a1.02,1.02,0,0,1-1.02-1.02V610.711a1.02,1.02,0,0,1,2.04,0V630.6a1.02,1.02,0,0,1-1.019,1.02Z" transform="translate(-507.837 -3.321)" fill="#fff"/>
      <path id="Path_904" data-name="Path 904" d="M1013.813,623.393a1.014,1.014,0,0,1-.664-.246l-12.237-10.5a1.02,1.02,0,1,1,1.328-1.547l12.237,10.5a1.02,1.02,0,0,1-.665,1.793Z" transform="translate(-514.507 -1.933)" fill="#fff"/>
      <path id="Path_2323" data-name="Path 2323" d="M302.373,774.459c15.619,35.722,50.318,57.583,85.846,75.352q7.441,3.723,14.859,7.232c.033.009.068.034.1.044.238.112.476.224.7.339,1.02.482,2.041.964,3.053,1.439l-.482.3-1.5.919c.52-.3,1.035-.586,1.556-.883.155-.09.318-.174.472-.265,17.931-10.146,36.125-20.9,48.747-37.132,13.092-16.854,18.808-41.329,8.07-59.774a37.6,37.6,0,0,0-4.995-6.71c-.787-.859-1.619-1.671-2.478-2.461A40.3,40.3,0,0,0,389.3,774.079c-5.347-21.987,10.572-43.1,26.447-59.23s34.018-33.788,34.506-56.421a43.607,43.607,0,0,0-14.683-32.551c-.281-.26-.561-.519-.848-.77a58.82,58.82,0,0,0-40.139-15.147c-27.524.771-52,18.632-69.222,40.119C297.635,684.652,284.616,733.844,302.373,774.459Z" transform="translate(-229.252 498.9)" fill="#ff8e28"/>
      <path id="Path_2324" data-name="Path 2324" d="M322.875,710.769a99.988,99.988,0,0,0-8.41,27.764,86.823,86.823,0,0,0,.389,25.815,111.241,111.241,0,0,0,21.084,48.276,160.1,160.1,0,0,0,28.177,28.827q7.441,3.723,14.859,7.232c.033.009.068.034.1.044.238.112.476.224.7.339,1.02.482,2.041.964,3.053,1.439l-.482.3-1.5.919c.52-.3,1.035-.585,1.556-.883.155-.09.318-.174.472-.265a87.719,87.719,0,0,1,51.823-103.616c-.787-.859-1.619-1.671-2.478-2.461a92.532,92.532,0,0,0-14.385,7.734A90.679,90.679,0,0,0,382.369,796.8a92.708,92.708,0,0,0-3.333,51.758c-.871-.6-1.746-1.22-2.6-1.834a162.557,162.557,0,0,1-42-41.859,103.486,103.486,0,0,1-17.166-47.119c-1.72-18.43,3.338-36.38,11.96-52.565a216.618,216.618,0,0,1,35.156-47.339,246.147,246.147,0,0,1,46.491-37.955,1.77,1.77,0,0,0,.585-2.368,1.507,1.507,0,0,0-.848-.77,1.311,1.311,0,0,0-1.122.2c-2.1,1.323-4.177,2.659-6.233,4.037a248.94,248.94,0,0,0-46.538,40.38,200.41,200.41,0,0,0-33.852,49.409Z" transform="translate(-205.148 507.262)" fill="#fff"/>
      <path id="Path_2325" data-name="Path 2325" d="M597.95,611.794a57.809,57.809,0,1,1,57.809-57.809A57.809,57.809,0,0,1,597.95,611.794Zm0-111.137a53.328,53.328,0,1,0,53.328,53.328A53.328,53.328,0,0,0,597.95,500.658Z" transform="translate(75.741 357.775)" fill="#ffdbac"/>
      <path id="Path_395" data-name="Path 395" d="M573.93,554.84a5.765,5.765,0,0,1-3.467-1.152l-.062-.046-13.059-9.99a5.8,5.8,0,0,1,7.062-9.211l8.459,6.487L592.85,514.85a5.8,5.8,0,0,1,8.133-1.074h0l-.124.172.127-.172a5.808,5.808,0,0,1,1.073,8.135L578.551,552.57a5.8,5.8,0,0,1-4.616,2.263Z" transform="translate(94.255 378.118)" fill="#e8cfbe"/>
      <circle id="Ellipse_428" data-name="Ellipse 428" cx="55.026" cy="55.026" r="55.026" transform="translate(414.062 511.973)" fill="#ffdbac"/>
      <path id="Path_2326" data-name="Path 2326" d="M526.263,640.154q-1.039,0-2.088-.092a24.65,24.65,0,0,1-22.124-29.385,23.091,23.091,0,0,1,.605-2.343l-81.213-96.051a19.143,19.143,0,0,1-1.332-22.817l.147-.179,73.1-72.081a21.131,21.131,0,1,1,29.4,30.364L469.81,497.9l57.962,93.028a23.437,23.437,0,0,1,3.269.4,24.649,24.649,0,0,1-4.778,48.822Z" transform="translate(-77.043 252.44)" fill="#ffdbac"/>
      <path id="Path_2327" data-name="Path 2327" d="M220.822,591.077l27.467,0,13.066-105.942-40.537,0Z" transform="translate(338.893 741.741)" fill="#ffdbac"/>
      <path id="Path_2328" data-name="Path 2328" d="M511.944,705.92l54.091,0h0a34.471,34.471,0,0,1,34.471,34.472v1.119l-88.563,0Z" transform="translate(40.765 617.93)"/>
      <path id="Path_2329" data-name="Path 2329" d="M98.963,565.868l23.6,14.052,65.43-84.343L153.162,474.84Z" transform="translate(187.75 728.974)" fill="#ffdbac"/>
      <path id="Path_2330" data-name="Path 2330" d="M402.657,687.932,449.134,715.6h0a34.47,34.47,0,0,1,11.982,47.254l-.573.963-76.1-45.308Z" transform="translate(-117.375 595.621)"/>
      <path id="Path_2331" data-name="Path 2331" d="M691.556,975.527H660.8a10.063,10.063,0,0,1-10.025-9.016L619.768,675.047a3.361,3.361,0,0,0-6.4-1.028L557.427,797.88,458.393,959.365a10.13,10.13,0,0,1-12.655,3.956l-39.563-17.407a10.085,10.085,0,0,1-4.595-14.4L492.62,779.077l27.921-128.436c-8.782-55.7,28.864-138.507,29.246-139.338l.187-.4,113.2-45.28.52.637c67.262,82.106,56.316,283.378,37.916,500.034a10.15,10.15,0,0,1-10.05,9.237Z" transform="translate(-97.894 319.871)" fill="#999"/>
      <path id="Path_2332" data-name="Path 2332" d="M490.422,604.667l-.483-1.015c-.231-.486-23.289-49.117-41.063-101.094a76.667,76.667,0,0,1,5.316-61.441,77.5,77.5,0,0,1,49.424-38.005h0a77.6,77.6,0,0,1,90.067,46.472c14.1,35.257,19.1,68.141,14.876,97.736l-.084.593-.539.258Z" transform="translate(-42.521 239.675)" fill="#fff"/>
      <path id="Path_2333" data-name="Path 2333" d="M638,667.148a25.356,25.356,0,0,1-19.44,9.522h0a25.332,25.332,0,0,1-25.672-26.015,24.422,24.422,0,0,1,.4-3.719l-108.351-201.8a20.28,20.28,0,1,1,34.513-21.306L625.3,627.045a25.3,25.3,0,0,1,12.7,40.1Z" transform="translate(3.517 256.091)" fill="#ffdbac"/>
      <path id="Path_2334" data-name="Path 2334" d="M552.773,379.911H465.4V341.825c19.178-7.619,37.944-14.1,49.288,0a38.086,38.086,0,0,1,38.086,38.086Z" transform="translate(-16.968 156.005)"/>
      <path id="Path_2335" data-name="Path 2335" d="M500.253,334.219c-52.234,0-66.854,65.473-66.854,102.41,0,20.6,9.316,27.967,23.955,30.46l5.17-27.573,12.109,28.759c4.112.021,8.432-.059,12.911-.142l4.105-8.454,9.155,8.3c36.667.055,66.3,5.4,66.3-31.352C567.106,399.693,554.284,334.219,500.253,334.219Z" transform="translate(-56.66 156.889)"/>
      <circle id="Ellipse_429" data-name="Ellipse 429" cx="17.923" cy="17.923" r="17.923" transform="translate(899.526 460.371)" fill="#e8cfbe"/>
      <path id="Path_2336" data-name="Path 2336" d="M911.95,489.794a57.809,57.809,0,1,1,57.808-57.809,57.809,57.809,0,0,1-57.808,57.809Zm0-111.136a53.328,53.328,0,1,0,53.328,53.328,53.328,53.328,0,0,0-53.328-53.328Z" transform="translate(465.214 206.451)" fill="#e8cfbe"/>
      <path id="Path_395-2" data-name="Path 395" d="M887.929,432.84a5.764,5.764,0,0,1-3.467-1.152l-.062-.047-13.059-9.99a5.8,5.8,0,1,1,7.062-9.211l8.459,6.487L906.85,392.85a5.8,5.8,0,0,1,8.133-1.074h0l-.124.172.127-.172a5.808,5.808,0,0,1,1.073,8.135l-23.51,30.659a5.8,5.8,0,0,1-4.616,2.263Z" transform="translate(483.729 226.793)" fill="#e8cfbe"/>
      <path id="Path_2337" data-name="Path 2337" d="M1096.292,331.981h-394.3a2.24,2.24,0,1,1,0-4.481h394.3a2.24,2.24,0,0,1,0,4.481Z" transform="translate(273.71 148.554)" fill="#e8cfbe"/>
      <path id="Path_2338" data-name="Path 2338" d="M1096.292,350.981h-394.3a2.24,2.24,0,1,1,0-4.481h394.3a2.24,2.24,0,0,1,0,4.481Z" transform="translate(273.71 172.121)" fill="#e8cfbe"/>
      <path id="Path_2339" data-name="Path 2339" d="M1096.292,369.981h-394.3a2.24,2.24,0,1,1,0-4.481h394.3a2.24,2.24,0,0,1,0,4.481Z" transform="translate(273.71 195.688)" fill="#e8cfbe"/>
      <path id="Path_2340" data-name="Path 2340" d="M1006.678,388.981H701.989a2.24,2.24,0,1,1,0-4.481h304.689a2.24,2.24,0,1,1,0,4.481Z" transform="translate(273.71 219.255)" fill="#e8cfbe"/>
      <path id="Path_2341" data-name="Path 2341" d="M1004.438,407.981H701.989a2.24,2.24,0,1,1,0-4.481h302.449a2.24,2.24,0,0,1,0,4.481Z" transform="translate(273.71 242.821)" fill="#e8cfbe"/>
      <circle id="Ellipse_430" data-name="Ellipse 430" cx="17.923" cy="17.923" r="17.923" transform="translate(899.526 140)" fill="#e8cfbe"/>
      <path id="Path_2342" data-name="Path 2342" d="M911.95,346.794a57.809,57.809,0,1,1,57.808-57.809,57.809,57.809,0,0,1-57.808,57.809Zm0-111.136a53.328,53.328,0,1,0,53.328,53.328,53.328,53.328,0,0,0-53.328-53.328Z" transform="translate(465.214 29.079)" fill="#e8cfbe"/>
      <path id="Path_395-3" data-name="Path 395" d="M887.929,289.84a5.764,5.764,0,0,1-3.467-1.152l-.062-.047-13.059-9.99a5.8,5.8,0,1,1,7.062-9.211l8.459,6.486L906.85,249.85a5.8,5.8,0,0,1,8.133-1.074h0l-.124.172.127-.172a5.808,5.808,0,0,1,1.073,8.135l-23.51,30.659a5.8,5.8,0,0,1-4.616,2.263Z" transform="translate(483.729 49.422)" fill="#e8cfbe"/>
      <path id="Path_2343" data-name="Path 2343" d="M1096.292,188.981h-394.3a2.24,2.24,0,1,1,0-4.481h394.3a2.24,2.24,0,0,1,0,4.481Z" transform="translate(273.71 -28.818)" fill="#e8cfbe"/>
      <path id="Path_2344" data-name="Path 2344" d="M1096.292,207.981h-394.3a2.24,2.24,0,1,1,0-4.481h394.3a2.24,2.24,0,0,1,0,4.481Z" transform="translate(273.71 -5.251)" fill="#e8cfbe"/>
      <path id="Path_2345" data-name="Path 2345" d="M1096.292,226.981h-394.3a2.24,2.24,0,1,1,0-4.481h394.3a2.24,2.24,0,0,1,0,4.481Z" transform="translate(273.71 18.315)" fill="#e8cfbe"/>
      <path id="Path_2346" data-name="Path 2346" d="M1006.678,245.981H701.989a2.24,2.24,0,1,1,0-4.481h304.689a2.24,2.24,0,1,1,0,4.481Z" transform="translate(273.71 41.883)" fill="#e8cfbe"/>
      <path id="Path_2347" data-name="Path 2347" d="M1004.438,264.981H701.989a2.24,2.24,0,1,1,0-4.481h302.449a2.24,2.24,0,0,1,0,4.481Z" transform="translate(273.71 65.449)" fill="#e8cfbe"/>
      <circle id="Ellipse_431" data-name="Ellipse 431" cx="17.923" cy="17.923" r="17.923" transform="translate(899.526 778.503)" fill="#e8cfbe"/>
      <path id="Path_2348" data-name="Path 2348" d="M911.95,631.795a57.809,57.809,0,1,1,57.808-57.809,57.809,57.809,0,0,1-57.808,57.809Zm0-111.137a53.328,53.328,0,1,0,53.328,53.328,53.328,53.328,0,0,0-53.328-53.328Z" transform="translate(465.214 382.582)" fill="#f8eee7"/>
      <path id="Path_395-4" data-name="Path 395" d="M887.929,574.84a5.763,5.763,0,0,1-3.467-1.152l-.062-.046-13.059-9.99a5.8,5.8,0,1,1,7.062-9.212l8.459,6.487L906.85,534.85a5.8,5.8,0,0,1,8.133-1.074h0l-.124.172.127-.172a5.808,5.808,0,0,1,1.073,8.135l-23.51,30.659a5.8,5.8,0,0,1-4.616,2.263Z" transform="translate(483.729 402.925)" fill="#f8eee7"/>
      <path id="Path_2349" data-name="Path 2349" d="M1096.292,473.981h-394.3a2.24,2.24,0,1,1,0-4.481h394.3a2.24,2.24,0,0,1,0,4.481Z" transform="translate(273.71 324.686)" fill="#f8eee7"/>
      <path id="Path_2350" data-name="Path 2350" d="M1096.292,492.981h-394.3a2.24,2.24,0,1,1,0-4.481h394.3a2.24,2.24,0,0,1,0,4.481Z" transform="translate(273.71 348.253)" fill="#f8eee7"/>
      <path id="Path_2351" data-name="Path 2351" d="M1096.292,511.981h-394.3a2.24,2.24,0,1,1,0-4.481h394.3a2.24,2.24,0,0,1,0,4.481Z" transform="translate(273.71 371.819)" fill="#f8eee7"/>
      <path id="Path_2352" data-name="Path 2352" d="M1006.678,530.981H701.989a2.24,2.24,0,1,1,0-4.481h304.689a2.24,2.24,0,1,1,0,4.481Z" transform="translate(273.71 395.387)" fill="#f8eee7"/>
      <path id="Path_2353" data-name="Path 2353" d="M1004.438,549.981H701.989a2.24,2.24,0,1,1,0-4.481h302.449a2.24,2.24,0,0,1,0,4.481Z" transform="translate(273.71 418.953)" fill="#f8eee7"/>
      <rect id="Rectangle_609" data-name="Rectangle 609" width="1500" height="1500" fill="#fff" opacity="0"/>
    </g>
  </g>
</svg>
